<?xml version="1.0" encoding="UTF-8"?>
<svg width="288px" height="240px" viewBox="0 0 288 240" version="1.1" xmlns="http://www.w3.org/2000/svg" xmlns:xlink="http://www.w3.org/1999/xlink">
    <title>illustration 1</title>
    <defs>
        <path d="M230.796294,26.5684472 C210.253459,26.5684472 192.712351,24.2265839 185.704845,20.9277019 C167.52466,24.329441 136.711897,26.5684472 101.759284,26.5684472 C45.8735361,26.5684472 0.570551546,20.847205 0.570551546,13.7903106 C0.570551546,6.73192547 45.8735361,1.01068323 101.759284,1.01068323 C102.909325,1.01068323 104.051918,1.0136646 105.193021,1.01813665 C125.174242,7.70086957 148.988438,15.8310559 162.970675,20.4596273 C164.114758,20.8382609 165.269268,21.0171429 166.402923,21.0171429 C171.511072,21.0171429 176.158907,17.3828571 177.125716,12.0387578 L178.320448,5.43354037 C188.857031,6.97192547 196.531918,8.83080745 200.311263,10.8775155 C208.629696,9.64173913 219.237784,8.90086957 230.796294,8.90086957 C257.503469,8.90086957 279.157613,12.8556522 279.157613,17.7346584 C279.157613,18.5783851 278.509598,19.3937888 277.299969,20.1674534 C275.36933,18.3607453 272.829407,17.2650932 270.046665,17.2650932 C265.339242,17.2650932 261.326015,20.4029814 259.788655,24.8049689 C251.710062,25.9125466 241.672526,26.5684472 230.796294,26.5684472" id="path-1"></path>
    </defs>
    <g id="design" stroke="none" stroke-width="1" fill="none" fill-rule="evenodd">
        <g id="Full-method" transform="translate(-161.000000, -1887.000000)">
            <g id="Group-18" transform="translate(0.000000, 1622.000000)">
                <g id="Group-14" transform="translate(161.000000, 265.000000)">
                    <g id="Group-239" transform="translate(8.321412, 212.625604)">
                        <mask id="mask-2" fill="white">
                            <use xlink:href="#path-1"></use>
                        </mask>
                        <g id="Clip-238"></g>
                        <path d="M230.796294,26.5684472 C210.253459,26.5684472 192.712351,24.2265839 185.704845,20.9277019 C167.52466,24.329441 136.711897,26.5684472 101.759284,26.5684472 C45.8735361,26.5684472 0.570551546,20.847205 0.570551546,13.7903106 C0.570551546,6.73192547 45.8735361,1.01068323 101.759284,1.01068323 C102.909325,1.01068323 104.051918,1.0136646 105.193021,1.01813665 C125.174242,7.70086957 148.988438,15.8310559 162.970675,20.4596273 C164.114758,20.8382609 165.269268,21.0171429 166.402923,21.0171429 C171.511072,21.0171429 176.158907,17.3828571 177.125716,12.0387578 L178.320448,5.43354037 C188.857031,6.97192547 196.531918,8.83080745 200.311263,10.8775155 C208.629696,9.64173913 219.237784,8.90086957 230.796294,8.90086957 C257.503469,8.90086957 279.157613,12.8556522 279.157613,17.7346584 C279.157613,18.5783851 278.509598,19.3937888 277.299969,20.1674534 C275.36933,18.3607453 272.829407,17.2650932 270.046665,17.2650932 C265.339242,17.2650932 261.326015,20.4029814 259.788655,24.8049689 C251.710062,25.9125466 241.672526,26.5684472 230.796294,26.5684472" id="Fill-237" fill="#D1E6EC" mask="url(#mask-2)"></path>
                    </g>
                    <path d="M268.110067,237.430573 C269.647428,233.028585 273.660655,229.890697 278.368077,229.890697 C281.15082,229.890697 283.690742,230.986349 285.621381,232.793057 C282.685201,234.668337 276.437438,236.2902 268.110067,237.430573" id="Fill-240" fill="#D4E9EE"></path>
                    <path d="M92.1820619,206.612188 C88.6723505,205.467343 86.4646289,201.610945 87.2407577,197.369952 C97.3557577,142.10138 107.472247,86.8328087 117.588737,31.5642373 C118.364866,27.3247342 121.596005,24.097405 125.500485,23.0852311 C147.932247,17.3580261 190.220098,5.82908203 212.228789,0.297156568 C219.003902,-1.40520368 225.269541,4.4636162 224.025649,11.3431193 L185.447129,224.664362 C184.265804,231.195045 177.58901,235.170697 171.292088,233.085231 C151.695206,226.597778 112.782995,213.233803 92.1820619,206.612188" id="Fill-241" fill="#234852"></path>
                    <path d="M170.296974,231.786846 C142.836015,222.93666 115.375057,214.087964 87.9140979,205.236287 C84.5041959,204.121256 82.3560619,199.854921 83.1143144,195.70784 C93.0133093,141.652685 102.910814,87.5975292 112.80683,33.542374 C113.566572,29.3952932 117.259515,25.2273429 121.055247,24.2315665 C151.57901,16.3547963 182.102773,8.47802613 212.626536,0.601255947 C216.422268,-0.394520451 218.679149,3.28597644 217.66467,8.82088328 C204.546454,80.4765354 191.425258,152.130697 178.305552,223.786349 C177.292562,229.321256 173.708366,232.903368 170.296974,231.786846" id="Fill-242" fill="#2B515F"></path>
                    <path d="M172.893505,210.559517 C145.736443,203.375914 118.579381,196.192312 91.4238093,189.008709 C100.756722,138.031815 110.091124,87.0534299 119.424036,36.0765354 C149.110593,29.4474671 178.79417,22.8183988 208.480727,16.1908212 C196.61832,80.9803864 184.755912,145.769952 172.893505,210.559517" id="Fill-243" fill="#A7C4DA"></path>
                    <path d="M178.091036,16.2429951 C177.852686,17.5488336 176.909711,18.7831193 175.987593,18.9977777 C175.065474,19.2139268 174.50833,18.3403864 174.745191,17.047964 C174.982052,15.7555417 175.923536,14.5197653 176.848634,14.2916907 C177.773732,14.0621255 178.330876,14.9356659 178.091036,16.2429951" id="Fill-244" fill="#231829"></path>
                    <path d="M184.675469,14.6569081 C184.432649,15.9865976 183.486696,17.2387715 182.564577,17.4534299 C181.640969,17.6695789 181.088294,16.7781504 181.329624,15.4633677 C181.570954,14.1470945 182.515418,12.8964112 183.440515,12.666846 C184.365613,12.4372808 184.918289,13.3287094 184.675469,14.6569081" id="Fill-245" fill="#231829"></path>
                    <path d="M127.462407,213.351567 C124.496433,212.433306 121.528969,211.513554 118.561505,210.593803 C117.216314,210.174921 116.395495,208.295169 116.739613,206.418399 C116.897521,205.54933 117.056918,204.681753 117.216314,203.812685 C117.560433,201.937405 118.948825,200.709082 120.302954,201.084734 C123.285314,201.921007 126.267675,202.75579 129.250036,203.590573 C130.604165,203.967716 131.419026,205.878771 131.06001,207.83902 C130.894655,208.742374 130.729299,209.647219 130.563943,210.552063 C130.204928,212.510821 128.809088,213.770448 127.462407,213.351567" id="Fill-246" fill="#231829"></path>
                    <path d="M207.218959,23.0852311 C177.621784,29.2238646 148.027588,35.3624982 118.431902,41.5011317 C118.762613,39.692933 119.093325,37.8847342 119.425526,36.0765354 C149.110593,29.4474671 178.79566,22.8183988 208.480727,16.1908212 C208.060634,18.487964 207.640541,20.7865976 207.218959,23.0852311" id="Fill-247" fill="#D4E9EE"></path>
                    <path d="M127.466876,44.8909454 C124.131459,45.5304485 120.794552,46.1699516 117.459134,46.8094547 C117.783887,45.0400137 118.107149,43.2705727 118.431902,41.5011317 C121.777747,40.8064733 125.123593,40.1133056 128.469438,39.4201379 C128.135747,41.2432435 127.802057,43.0663491 127.466876,44.8909454" id="Fill-248" fill="#A7C4DA"></path>
                    <path d="M205.984005,29.8320634 C179.713309,34.8705727 153.441124,39.909082 127.168938,44.9475914 C127.502629,43.1244858 127.837809,41.3028709 128.17001,39.4812559 C154.521149,34.0164112 180.869309,28.5500758 207.218959,23.0852311 C206.806314,25.3331814 206.39516,27.5826224 205.984005,29.8320634" id="Fill-249" fill="#FFFFFE"></path>
                    <path d="M203.247443,44.7791441 C173.933309,49.3764112 144.620665,53.9736783 115.306531,58.5709454 C116.024562,54.6504485 116.741103,50.7299516 117.459134,46.8094547 C146.966928,41.1508212 176.476211,35.4906969 205.984005,29.8320634 C205.070825,34.8139268 204.159134,39.7972808 203.247443,44.7791441" id="Fill-250" fill="#D4E9EE"></path>
                    <path d="M150.679237,121.798275 C136.178588,121.301877 121.674959,120.80548 107.174309,120.309082 C110.728711,100.891442 114.284603,81.4738025 117.840495,62.0561628 C132.831253,59.8827466 147.820521,57.7093305 162.811278,55.537405 C158.768258,77.6248584 154.723747,99.7108212 150.679237,121.798275" id="Fill-251" fill="#D4E9EE"></path>
                    <path d="M146.458943,121.653678 C146.458943,121.653678 147.877129,113.268585 147.976938,111.435045 C148.076747,109.598523 147.792216,106.651442 146.725598,105.084734 C145.658979,103.509082 141.393995,102.037778 141.393995,102.04224 C138.110716,103.611939 134.834887,105.142871 131.566505,106.635045 C128.835902,105.192063 126.097851,103.78933 123.352351,102.423865 C123.350861,102.428337 118.530222,103.992063 116.909438,105.452933 C115.285675,106.922747 113.971768,109.59107 113.43399,111.245728 C112.894722,112.901877 111.394603,120.453678 111.394603,120.453678 C123.082716,120.853181 134.77083,121.254175 146.458943,121.653678" id="Fill-252" fill="#2B515F"></path>
                    <path d="M137.061974,66.5207591 C137.063464,66.5088336 133.814448,65.3297032 130.732278,69.0564112 C126.584979,74.078523 123.01717,81.607964 119.370407,104.164983 C119.394242,104.044237 133.388397,111.157778 141.827495,106.126722 C142.783876,105.400759 143.741747,104.670324 144.699619,103.932436 C144.69366,103.966722 148.958644,84.5952932 147.886067,74.2723118 C146.823918,64.0611317 141.785784,62.1456038 137.061974,66.5207591" id="Fill-253" fill="#2B515F"></path>
                    <path d="M137.288407,99.3724361 C136.101124,97.4941752 136.977062,91.8504485 136.977062,91.8504485 C135.117928,91.9443615 133.258794,92.0382746 131.39817,92.1336783 C131.39966,92.1306969 130.339,97.7133056 128.457521,99.6303243 C126.574552,101.550324 123.352351,102.423865 123.352351,102.423865 C123.35533,102.408958 124.919505,109.218399 131.088314,109.252806 C137.255634,109.28697 141.391015,102.058647 141.393995,102.04225 C141.393995,102.04225 138.47718,101.247716 137.288407,99.3724361" id="Fill-254" fill="#D4E9EE"></path>
                    <path d="M129.139799,83.6069702 C129.139799,83.6054795 127.662026,82.8884609 127.325356,84.4044858 C126.988686,85.9145479 128.098505,88.9510696 128.98934,88.7811317 C129.883155,88.6007591 129.288768,83.7470945 129.288768,83.7545479" id="Fill-255" fill="#A7C4DA"></path>
                    <path d="M142.819629,82.5709454 C142.819629,82.5709454 144.632582,81.7808833 144.276546,83.372933 C143.917531,84.9724361 141.420809,88.1401379 140.611907,87.9418771 C139.800026,87.758523 142.600644,82.7364112 142.602134,82.7274671" id="Fill-256" fill="#A7C4DA"></path>
                    <path d="M130.785907,93.5841131 C130.788887,93.5706969 133.220062,98.5883367 137.081342,98.9580261 C137.08283,98.9565354 136.241155,96.695169 136.977062,91.8504485 C134.912351,92.436287 132.849129,93.0146721 130.785907,93.5841131" id="Fill-257" fill="#A7C4DA"></path>
                    <path d="M142.651294,83.3252311 C141.496784,89.6263491 137.46717,94.8467218 133.650582,94.9853553 C129.832505,95.1224982 127.629253,90.365728 128.730134,84.3597653 C128.931242,83.255169 129.613521,79.3793926 130.505845,78.6087094 C133.741454,75.8166597 141.607021,75.3590199 143.481052,78.0452311 C143.914552,78.6638646 142.827077,82.3652311 142.651294,83.3252311" id="Fill-258" fill="#D4E9EE"></path>
                    <path d="M143.816232,81.0325603 C140.223098,81.3217528 136.631454,81.6109454 133.039809,81.9001379 C133.369031,80.0964112 133.699742,78.2941752 134.030454,76.4904485 C133.447985,78.3418771 132.865515,80.191815 132.286026,82.0357901 C131.006381,82.1699516 129.728227,82.3026224 128.448582,82.4352948 C128.447093,82.4397653 131.071928,73.1065976 133.443515,70.7945479 C135.082175,69.2203864 141.784294,66.5923118 143.479562,70.8377777 C145.612799,76.2310696 143.759624,81.3485851 143.761113,81.3321876" id="Fill-259" fill="#2B515F"></path>
                    <path d="M185.87467,56.5302 C178.949098,57.4588957 172.022036,58.3861007 165.093485,59.3147963 C165.351201,57.9075914 165.610407,56.5018771 165.868124,55.0946721 C172.808593,54.0869702 179.750552,53.0822497 186.691021,52.0745479 C186.419897,53.5592684 186.147284,55.0454795 185.87467,56.5302" id="Fill-260" fill="#D4E9EE"></path>
                    <path d="M196.444026,61.8161628 C185.609505,63.0892063 174.772005,64.3622497 163.937485,65.6338025 C164.195201,64.2280882 164.452918,62.8208833 164.709144,61.4136783 C175.56899,60.0183988 186.427345,58.6231193 197.285701,57.2278398 C197.004149,58.7572808 196.725577,60.2867218 196.444026,61.8161628" id="Fill-261" fill="#D4E9EE"></path>
                    <path d="M191.474418,88.9644858 C180.736727,89.5145479 170.000526,90.0631193 159.264325,90.6116907 C159.522041,89.2059764 159.779758,87.8002622 160.037474,86.3930572 C170.796021,85.7207591 181.554567,85.0484609 192.314603,84.3761628 C192.034541,85.9056038 191.754479,87.4350448 191.474418,88.9644858" id="Fill-262" fill="#D4E9EE"></path>
                    <path d="M189.916201,97.4688336 C179.223201,97.7908212 168.527222,98.1128087 157.832732,98.4333056 C158.088959,97.0275914 158.348165,95.6203864 158.605881,94.2131814 C169.322716,93.7704485 180.039552,93.3247342 190.757876,92.8805106 C190.476325,94.4099516 190.197753,95.9393926 189.916201,97.4688336" id="Fill-263" fill="#D4E9EE"></path>
                    <path d="M188.359474,105.973181 C177.706696,106.067094 167.053918,106.161007 156.399649,106.254921 C156.657366,104.847716 156.915082,103.442001 157.172799,102.034796 C167.849412,101.818647 178.524536,101.601007 189.19966,101.384858 C188.919598,102.914299 188.639536,104.44374 188.359474,105.973181" id="Fill-264" fill="#D4E9EE"></path>
                    <path d="M186.802747,114.477529 C176.19168,114.343368 165.579124,114.210697 154.968057,114.075045 C155.225773,112.66933 155.48349,111.262126 155.741206,109.856411 C166.376108,109.866846 177.008031,109.878771 187.642933,109.890697 C187.362871,111.418647 187.082809,112.948088 186.802747,114.477529" id="Fill-265" fill="#D4E9EE"></path>
                    <path d="M185.246021,122.983368 C174.675175,122.621132 164.10582,122.258896 153.534974,121.89666 C153.792691,120.489455 154.051897,119.08374 154.309613,117.676535 C164.901314,117.916535 175.493015,118.155045 186.086206,118.395045 C185.806144,119.924486 185.524593,121.452436 185.246021,122.983368" id="Fill-266" fill="#D4E9EE"></path>
                    <path d="M170.818366,201.03107 C160.033005,198.432809 149.246155,195.834548 138.459304,193.236287 C138.715531,191.836535 138.971758,190.438275 139.227985,189.040014 C150.03718,191.508585 160.849356,193.977157 171.660041,196.444237 C171.37849,197.973678 171.099918,199.503119 170.818366,201.03107" id="Fill-267" fill="#D4E9EE"></path>
                    <path d="M118.186103,188.351318 C112.760649,187.043989 107.335196,185.73815 101.909742,184.430821 C102.139155,183.180138 102.367077,181.927964 102.59649,180.67579 C108.033861,181.917529 113.471232,183.159268 118.908603,184.401007 C118.668763,185.718771 118.427433,187.035045 118.186103,188.351318" id="Fill-268" fill="#D4E9EE"></path>
                    <path d="M182.88784,135.122001 C159.158557,133.5702 135.429273,132.018399 111.701479,130.466598 C111.930892,129.214424 112.160304,127.96374 112.388227,126.711567 C136.16816,127.986101 159.946603,129.260635 183.726536,130.53666 C183.446474,132.06461 183.166412,133.594051 182.88784,135.122001" id="Fill-269" fill="#D4E9EE"></path>
                    <path d="M181.350479,143.508585 C157.715046,141.448461 134.079613,139.389827 110.44418,137.329703 C110.673593,136.077529 110.903005,134.826846 111.132418,133.574672 C134.8185,135.357529 158.504582,137.138896 182.190665,138.921753 C181.910603,140.451194 181.632031,141.979144 181.350479,143.508585" id="Fill-270" fill="#D4E9EE"></path>
                    <path d="M179.816098,151.893678 C156.273026,149.326722 132.731443,146.759765 109.188371,144.192809 C109.417784,142.940635 109.647196,141.689952 109.875119,140.437778 C133.46884,142.727467 157.062562,145.017157 180.656284,147.306846 C180.376222,148.834796 180.09616,150.364237 179.816098,151.893678" id="Fill-271" fill="#D4E9EE"></path>
                    <path d="M110.244562,128.482498 C109.970459,129.977653 108.820418,131.12697 107.676335,131.046473 C106.530763,130.967467 105.82316,129.70784 106.091304,128.235045 C106.360938,126.76225 107.510979,125.612933 108.659531,125.669579 C109.809572,125.727716 110.518665,126.985852 110.244562,128.482498" id="Fill-272" fill="#2B515F"></path>
                    <path d="M177.536871,165.087716 C154.139789,161.723244 130.742706,158.358771 107.347113,154.994299 C107.575036,153.742126 107.804448,152.492933 108.033861,151.239268 C131.481593,154.326473 154.929325,157.412188 178.375567,160.500883 C178.096995,162.028834 177.815443,163.558275 177.536871,165.087716" id="Fill-273" fill="#D4E9EE"></path>
                    <path d="M176.001,173.477281 C152.696278,169.604486 129.393046,165.733181 106.088325,161.861877 C106.317737,160.609703 106.548639,159.357529 106.776562,158.105355 C130.131933,161.699393 153.485814,165.294921 176.839696,168.888958 C176.561124,170.416908 176.279572,171.946349 176.001,173.477281" id="Fill-274" fill="#D4E9EE"></path>
                    <path d="M174.463639,181.865355 C151.252768,177.485728 128.043387,173.107591 104.832515,168.727964 C105.060438,167.47579 105.289851,166.225107 105.519263,164.972933 C128.780784,169.073803 152.043794,173.174672 175.305314,177.277032 C175.023763,178.804983 174.745191,180.334424 174.463639,181.865355" id="Fill-275" fill="#D4E9EE"></path>
                    <path d="M172.576201,191.437032 C149.471098,186.477529 126.367485,181.516535 103.262381,176.557032 C103.491794,175.304858 103.721206,174.054175 103.949129,172.803492 C127.104881,177.484237 150.260634,182.166473 173.414897,186.8502 C173.136325,188.37815 172.854773,189.906101 172.576201,191.437032" id="Fill-276" fill="#D4E9EE"></path>
                    <path d="M105.911052,152.873057 C105.636948,154.368212 104.500314,155.447467 103.371129,155.280511 C102.243433,155.112063 101.547747,153.782374 101.817381,152.309579 C102.087015,150.835293 103.223649,149.757529 104.355814,149.900635 C105.489469,150.045231 106.185155,151.376411 105.911052,152.873057" id="Fill-277" fill="#2B515F"></path>
                    <path d="M211.270918,133.884734 C211.270918,133.884734 215.093464,125.884237 216.525057,123.320262 C217.147747,122.20374 217.938773,120.862126 220.200124,118.827343 C221.536376,117.625852 222.275263,117.364983 225.692613,116.430324 C224.977562,119.195542 217.13583,133.857902 215.40034,136.092436 C213.581428,138.432809 211.270918,133.884734 211.270918,133.884734" id="Fill-278" fill="#745E99"></path>
                    <path d="M205.048479,120.924734 C205.192979,120.917281 206.054021,119.377405 206.115098,118.661877 C206.162768,118.107343 205.809711,116.579393 205.551995,116.50784 C205.295768,116.437778 205.331521,116.777653 205.331521,116.777653 C205.331521,116.777653 205.173613,116.472063 204.981443,116.613678 C204.862268,116.701629 204.972505,117.439517 204.887593,117.977653 C204.835454,118.308585 204.609021,118.641007 204.629876,118.858647 C204.629876,118.858647 204.390036,118.213181 204.203825,118.313057 C204.019103,118.412933 204.190418,119.609952 204.373649,119.949827 C204.424299,120.039268 204.556881,121.169206 204.619448,121.327219 C204.717768,121.5702 204.889082,120.933678 205.048479,120.924734" id="Fill-279" fill="#EA8D9A"></path>
                    <path d="M247.757912,233.185107 C247.313985,231.268088 250.049057,231.64225 251.593866,231.113057 C251.136531,231.423119 250.689624,231.859889 251.43,232.044734 C252.514495,232.314548 254.856289,231.894175 255.52516,231.095169 C255.808201,231.66461 255.899072,232.465107 255.911015,233.01666 C255.927376,233.729206 248.069258,234.52225 247.757912,233.185107" id="Fill-280" fill="#231829"></path>
                    <path d="M251.43,232.044734 C250.689624,231.859889 251.136531,231.423119 251.593866,231.113057 C252.551737,230.785107 253.35617,230.548088 253.533443,230.461629 C253.999716,230.236535 254.117402,229.796784 254.117402,229.796784 L254.603041,229.677529 C254.603041,229.677529 255.444716,230.929703 255.52516,231.095169 C254.856289,231.894175 252.514495,232.314548 251.43,232.044734" id="Fill-281" fill="#EA8D9A"></path>
                    <path d="M217.862799,233.93343 C217.418871,232.017902 220.153943,232.392063 221.697263,231.862871 C221.242907,232.172933 220.79451,232.609703 221.534887,232.793057 C222.619381,233.062871 224.961175,232.643989 225.631536,231.844983 C225.911598,232.414424 226.005448,233.214921 226.017387,233.766473 C226.032263,234.47902 218.174144,235.272063 217.862799,233.93343" id="Fill-282" fill="#231829"></path>
                    <path d="M221.534887,232.793057 C220.79451,232.609703 221.242907,232.172933 221.697263,231.862871 C222.656624,231.534921 223.462546,231.297902 223.63982,231.211442 C224.104603,230.986349 224.222289,230.546598 224.222289,230.546598 L224.709418,230.427343 C224.709418,230.427343 225.549603,231.679517 225.631536,231.844983 C224.961175,232.643989 222.619381,233.062871 221.534887,232.793057" id="Fill-283" fill="#EA8D9A"></path>
                    <path d="M243.022186,140.379641 C243.057938,140.613678 247.990304,145.585107 250.594284,151.509082 C254.652201,160.742374 256.126995,219.68548 255.356825,229.866846 C255.254036,231.239765 251.924577,230.07107 251.748794,228.379144 C250.644933,217.761007 235.411356,163.471815 235.411356,163.471815 L225.119082,231.065355 L221.774727,231.262126 C221.774727,231.262126 220.743861,144.535666 222.203758,141.913554 C225.32317,141.059393 238.101737,140.275293 243.022186,140.379641" id="Fill-284" fill="#231829"></path>
                    <path d="M222.513613,141.840511 C223.815603,141.482747 225.667289,141.379889 229.650722,141.214424 L228.254881,141.214424 L235.411356,163.471815 C235.411356,163.471815 230.528149,200.709082 225.119082,231.065355 L221.774727,231.262126 C221.774727,231.262126 213.894263,171.063865 222.513613,141.840511" id="Fill-285" fill="#2F2646"></path>
                    <path d="M219.958794,119.30138 C221.628737,116.934175 231.225325,114.602747 237.359871,115.146846 C238.864459,115.279517 242.529098,117.40225 243.330552,118.402498 C245.959856,121.687964 245.091366,128.619641 245.188196,131.405728 C245.31333,134.995293 244.313747,139.734175 244.851526,143.414672 C245.664897,148.962995 223.718773,144.905355 223.179505,142.983865 C222.112887,139.172188 221.663,136.305604 221.204175,130.609703 C220.669376,123.962747 219.958794,119.30138 219.958794,119.30138" id="Fill-286" fill="#A7C4DA"></path>
                    <path d="M229.848851,110.956535 C229.848851,110.956535 231.195531,115.354051 230.785866,115.889206 C230.376201,116.424362 228.761376,117.212933 227.690289,116.169455 C226.620691,115.127467 227.238912,111.150324 227.238912,111.150324 L229.848851,110.956535" id="Fill-287" fill="#EA8D9A"></path>
                    <path d="M230.686057,114.17343 C229.719247,114.63256 228.366608,114.947094 227.122716,114.622126 C227.024397,113.808212 227.063129,112.881007 227.121227,112.18784 L229.743082,110.707591 C229.918866,111.342622 230.535598,113.43107 230.686057,114.17343" id="Fill-288" fill="#BA586D"></path>
                    <path d="M224.742191,109.942871 C224.701969,109.35256 225.314232,107.703865 225.694103,106.933181 C225.850521,106.614175 226.407665,105.679517 226.750294,105.582622 C228.588572,105.060883 231.268526,107.502622 231.684149,108.124237 C232.189155,108.878523 231.783959,109.893678 231.496448,110.653927 C231.211918,111.414175 229.169552,114.969455 226.781577,113.852933 C224.182067,112.635045 224.573856,111.563244 224.742191,109.942871" id="Fill-289" fill="#EA8D9A"></path>
                    <path d="M243.114546,119.969206 C243.582309,121.854921 242.451634,123.767467 241.167521,126.04374 C238.551624,130.678275 232.321737,136.008958 230.467072,137.644237 C226.96034,140.734424 223.681531,135.886722 223.681531,135.886722 C223.681531,135.886722 230.251067,129.672063 233.771206,124.251939 C234.612881,122.958026 237.733784,117.871815 238.958309,117.047467 C240.652088,115.908585 242.709351,118.327964 243.114546,119.969206" id="Fill-290" fill="#655292"></path>
                    <path d="M219.958794,119.30138 C220.730454,118.208709 223.081186,117.203989 226.151438,116.328958 C226.349567,116.272312 226.939485,116.142622 226.939485,116.142622 C226.939485,116.142622 224.982031,123.584113 226.28849,130.548585 C227.816912,138.683244 229.600072,145.187094 229.600072,145.187094 C229.600072,145.187094 229.37066,145.210945 229.148696,145.167716 C225.740284,144.493927 223.356778,143.612933 223.179505,142.983865 C222.112887,139.172188 221.663,136.305604 221.204175,130.609703 C220.669376,123.962747 219.958794,119.30138 219.958794,119.30138" id="Fill-291" fill="#D4E9EE"></path>
                    <path d="M209.650134,122.495914 C211.107052,124.967467 216.134758,136.028337 216.134758,136.028337 C216.134758,136.028337 213.515881,140.801504 211.098113,138.483492 C208.431567,135.92548 208.949979,135.637778 205.902072,131.12548 C204.337897,128.810448 202.246371,125.779889 202.991216,123.159268 C203.64668,120.853181 205.973577,119.744113 205.973577,119.744113 C205.973577,119.744113 208.194706,120.024362 209.650134,122.495914" id="Fill-292" fill="#745E99"></path>
                    <path d="M231.10168,115.151318 C231.10168,115.151318 229.698392,139.13343 233.062113,145.749082 C233.062113,145.749082 238.661861,159.612436 241.55633,160.424858 C244.452289,161.238771 252.481722,158.314051 252.481722,158.314051 C252.481722,158.314051 253.365108,152.370697 244.766613,141.886722 C244.766613,141.886722 247.179912,124.588834 244.345031,119.478771 C243.180093,117.379889 239.990665,115.421132 237.359871,115.146846 C234.514562,114.848709 231.10168,115.151318 231.10168,115.151318" id="Fill-293" fill="#655292"></path>
                    <path d="M226.246778,116.303616 C226.246778,116.303616 223.675572,123.718275 224.392113,133.917529 C225.108655,144.115293 225.582376,144.255417 225.582376,144.255417 C225.582376,144.255417 221.957959,157.206473 220.648521,158.603244 C219.337593,160.000014 214.658474,155.84548 214.658474,155.84548 C214.658474,155.84548 220.094356,143.252188 220.340155,143.362498 L221.245887,131.10461 L219.613186,119.507094 C219.613186,119.507094 220.542753,117.549827 226.246778,116.303616" id="Fill-294" fill="#745E99"></path>
                    <path d="M199.539603,133.249703 C199.524706,133.236287 199.048005,133.04697 199.180588,132.801007 L199.922454,132.833803 C199.682613,132.702622 199.532155,132.490945 199.658778,132.388088 C199.810727,132.264362 201.491098,132.789082 201.552175,132.82933 C201.401716,132.634051 200.95332,132.124237 201.050149,131.928958 L201.135062,131.864858 C201.294459,131.876784 201.805423,132.364237 201.939495,132.538647 C202.159969,132.832312 202.419175,133.145355 202.599428,133.477778 L203.062722,134.331939 C203.347253,134.330448 203.949088,134.603244 204.074222,134.887964 C204.168072,135.086225 204.121892,134.919268 204.016124,135.122001 L203.934191,135.20697 L204.050387,135.193554 L204.075711,135.265107 C203.354701,135.497653 202.20466,135.557281 201.282541,135.110076 C201.051639,135.020635 200.819247,134.917778 200.600263,134.805976 L200.391706,134.703119 L200.277,134.643492 L200.113134,134.558523 C199.947778,134.473554 199.634943,134.133678 199.532155,134.008461 C199.45767,133.829579 199.630474,133.805728 199.688572,133.802747 L199.277418,133.407716 C199.289335,133.169206 199.497892,133.289952 199.539603,133.249703" id="Fill-295" fill="#EA8D9A"></path>
                    <path d="M204.884613,138.465604 C207.895278,141.323244 232.910165,140.175417 230.481969,136.4502 C229.208284,134.497405 230.489418,132.722001 230.489418,132.722001 L206.275985,132.422374 C206.275985,132.422374 199.569397,133.41815 204.884613,138.465604" id="Fill-296" fill="#655292"></path>
                    <path d="M223.696428,111.251691 C224.164191,110.030821 225.004376,108.489455 224.949258,108.839765 C224.734742,110.194796 224.436804,112.062622 226.374892,112.88697 C228.123789,113.630821 229.534526,113.469827 230.610082,112.043244 C231.179144,110.92225 231.378763,110.270821 231.68266,109.054424 C231.736289,108.654921 231.502407,107.635293 230.696485,107.478771 C228.877572,107.12697 227.447469,106.757281 225.971186,105.596039 C225.087799,104.907343 224.679624,103.489703 224.660258,102.408958 C224.451701,101.161256 224.971603,99.5274671 226.09632,98.3542994 C226.424052,98.0099516 226.988644,98.1321876 226.802433,98.5808833 C225.677716,101.186598 229.94866,100.763244 230.994423,100.480014 C231.597747,100.320511 232.141485,99.9880882 232.79099,100.062622 C233.577546,100.141629 234.225562,100.672312 234.712691,101.261132 C235.819531,102.602747 236.074268,104.522747 234.90933,105.880759 C235.409866,106.134175 235.639278,106.664858 235.372624,107.660635 C234.918268,109.37343 233.574567,111.03107 232.090835,112.010448 C232.038696,112.585852 232.004433,113.386349 231.828649,114.030324 C231.751186,114.529703 231.602216,114.970945 231.350459,115.203492 C230.547515,115.94138 228.238495,116.179889 227.213588,116.154548 C226.228902,116.123244 224.268469,115.780386 223.705366,114.80548 C223.140773,113.841007 223.119918,112.64548 223.696428,111.251691" id="Fill-297" fill="#2F2646"></path>
                    <path d="M86.6597784,113.896163 C86.6597784,113.896163 86.1771186,107.964734 80.1021598,108.346349 C77.3596392,108.519268 77.5115876,110.634548 75.2606649,109.926473 C73.0097423,109.22138 74.4517629,110.410945 72.8995052,111.645231 C71.3457577,112.879517 66.0960876,109.436039 64.4321031,111.257653 C62.7666289,113.079268 63.2135361,114.362747 63.2403505,116.475045 C63.2671649,118.587343 59.2733041,115.348088 57.8938505,118.347343 C56.5143969,121.346598 55.5565258,129.654175 67.004799,134.542126 C74.7526804,137.851442 86.7178763,125.665107 88.1792629,122.211194 C89.3561186,119.43107 91.6189588,111.607964 86.6597784,113.896163" id="Fill-298" fill="#E0594E"></path>
                    <path d="M86.6597784,113.896163 C86.3648196,112.305604 85.6363608,110.740386 84.3775722,109.769952 C83.1485773,108.774175 81.4875722,108.471567 79.9382938,108.663865 C79.1651443,108.748834 78.506701,109.066349 77.8989072,109.576163 C77.5875619,109.820635 77.2479124,110.123244 76.7816392,110.293181 C76.315366,110.469082 75.8058918,110.430324 75.3798402,110.321504 C75.1474485,110.266349 74.9746443,110.212685 74.7854536,110.160511 C74.6037113,110.117281 74.4085619,110.075542 74.2804485,110.080014 L74.1985155,110.090448 L74.1687216,110.163492 C74.1240309,110.308088 74.0793402,110.548088 73.9974072,110.764237 C73.8409897,111.215914 73.531134,111.62138 73.1765876,111.903119 C72.7445773,112.238523 72.2038196,112.317529 71.7658505,112.29666 C70.8660773,112.25343 70.0780309,111.997032 69.2870052,111.779393 C68.5004485,111.552809 67.7258093,111.317281 66.9526598,111.172685 C66.2033454,111.044486 65.357201,110.952063 64.8507062,111.351567 L64.6615155,111.499144 L64.4708351,111.719765 C64.3442113,111.865852 64.2309948,112.020883 64.1222474,112.177405 C63.9002835,112.487467 63.7289691,112.825852 63.618732,113.183616 C63.3893196,113.900635 63.4280515,114.707094 63.4503969,115.522498 L63.4638041,116.139641 C63.4593351,116.340883 63.4831701,116.548088 63.4220928,116.807467 C63.3803814,117.056411 63.1479897,117.326225 62.8902732,117.384362 C62.6429845,117.457405 62.4180412,117.443989 62.2050155,117.42461 C61.3663196,117.317281 60.5961495,117.068337 59.7976753,117.108585 C59.0006907,117.116039 58.2513763,117.597529 57.8938505,118.347343 C58.0443093,117.968709 58.2796804,117.612436 58.6118814,117.351567 C58.9411031,117.087716 59.3641753,116.956535 59.7783093,116.904362 C60.6184948,116.801504 61.4527216,117.005728 62.2333196,117.045976 C62.631067,117.063865 62.9751856,117.008709 62.9990206,116.706101 C63.0303041,116.564486 63.0079588,116.358771 63.002,116.154548 L62.9617784,115.546349 C62.9081495,114.74138 62.8157887,113.882747 63.045201,113.019641 C63.1584175,112.593306 63.3431392,112.183368 63.58,111.819641 C63.6961959,111.636287 63.825799,111.461877 63.9628505,111.296411 L64.1699175,111.051939 L64.4514691,110.811939 C64.6361907,110.630076 64.8819897,110.585355 65.1024639,110.482498 C65.3274072,110.439268 65.559799,110.384113 65.7817629,110.379641 C66.2286701,110.363244 66.6591907,110.406473 67.0748144,110.479517 C67.9090412,110.622622 68.7015567,110.853678 69.4866237,111.066846 C70.265732,111.274051 71.0567577,111.500635 71.7911753,111.524486 C72.1665773,111.545355 72.4689845,111.476784 72.6954175,111.320262 C72.9814381,111.09666 73.1855258,110.828337 73.304701,110.50933 C73.3702474,110.345355 73.4000412,110.179889 73.4745258,109.935417 C73.5221959,109.813181 73.5817835,109.63579 73.7694845,109.50461 C73.9437784,109.374921 74.1344588,109.361504 74.2640619,109.360014 C74.7973711,109.365976 75.1802216,109.556784 75.5481753,109.637281 C75.9042113,109.734175 76.2483299,109.756535 76.5537165,109.646225 C76.8620825,109.541877 77.1570412,109.303368 77.4862629,109.049952 C78.1238505,108.504362 79.0146856,108.113803 79.8757268,108.073554 C81.5486495,107.937902 83.3452165,108.340386 84.6203918,109.48374 C85.8836495,110.625604 86.5331546,112.277281 86.6597784,113.896163" id="Fill-299" fill="#E5736B"></path>
                    <path d="M68.9622526,219.804734 C68.6970876,219.300883 67.3638144,218.861132 66.306134,218.565976 C66.6249278,218.756784 66.942232,219.03107 66.4521237,219.18461 C65.7370722,219.408212 64.1296959,218.862622 63.6485258,218.351318 C63.4816804,218.746349 63.4518866,219.285976 63.4652938,219.657157 C63.4831701,220.135666 69.3912835,220.621629 68.9622526,219.804734" id="Fill-300" fill="#231829"></path>
                    <path d="M39.3993402,223.756535 C39.2712268,223.207964 41.4074433,221.753057 42.1850619,221.522001 C41.9392629,221.697902 41.5742887,222.073554 41.9020206,222.268834 C42.3831907,222.558026 43.4259742,222.301629 43.8207423,221.80374 C43.8952268,222.227094 43.8564948,222.796535 43.8073351,223.184113 C43.7417887,223.682001 39.6972784,225.042995 39.3993402,223.756535" id="Fill-301" fill="#231829"></path>
                    <path d="M66.9377629,218.752312 C66.3508247,218.404983 64.6257629,218.020386 64.5885206,217.914548 C65.6089588,215.080759 72.4049278,186.881504 73.0022938,180.575914 C74.0480567,169.553803 72.871201,141.370945 71.8179897,138.716039 C68.9831082,137.523492 61.8430206,138.495417 57.1892268,137.984113 C57.1251701,138.200262 51.4971186,142.435293 48.3076907,147.700386 C43.3365928,155.906598 43.6613454,211.464362 43.1250567,221.162747 C43.0326959,221.202995 42.728799,221.274548 42.0867423,221.595045 C41.8334948,221.760511 40.9307423,222.431318 41.2495361,222.640014 C41.7187887,222.945604 43.4170361,222.362747 43.8296804,221.879765 L43.7492371,221.551815 L60.5991289,159.967219 L63.7498247,180.094424 L63.5904278,218.512312 C63.9241186,219.129455 65.5851237,219.40374 66.3344381,219.373927 C66.8468918,219.351567 67.1954794,219.019144 66.9377629,218.752312" id="Fill-302" fill="#EA8D9A"></path>
                    <path d="M57.8029794,137.630821 C57.8029794,137.630821 52.4981907,139.61343 47.415366,148.038771 C45.6307165,150.996287 43.0848351,169.251194 42.8256289,173.663616 L46.9744175,173.663616 L49.0495567,158.091939 L48.7903505,173.663616 C48.7903505,173.663616 66.6606804,175.677529 74.8465309,172.563492 C74.8465309,172.563492 77.7395103,156.380635 71.7211598,134.688212 L57.8029794,137.630821" id="Fill-303" fill="#2F2646"></path>
                    <path d="M60.7063866,174.303119 C60.7063866,174.303119 61.3335464,174.303119 61.6493608,174.301629 C66.4044536,174.264362 71.4559948,173.854424 74.8465309,172.563492 C74.8465309,172.563492 77.7395103,156.380635 71.7211598,134.688212 L65.9426495,135.910573 L64.3874124,135.99107 C64.3874124,135.99107 68.8624433,143.967716 67.110567,152.281256 C64.8953969,162.792063 60.7063866,174.303119 60.7063866,174.303119" id="Fill-304" fill="#231829"></path>
                    <path d="M71.6019845,119.311815 C73.9869794,119.909579 79.104067,123.360511 79.6358866,123.698896 C81.8599948,125.110573 83.188799,125.095666 82.528866,128.83579 C82.1489948,130.992809 80.5594948,133.620883 79.826567,134.668834 C76.334732,139.65666 72.2619175,144.016908 72.2619175,144.016908 C72.2619175,144.016908 67.5187423,144.312063 63.1926804,142.12225 C58.2290309,139.608958 57.8029794,137.630821 57.8029794,137.630821 C57.8029794,137.630821 59.0006907,131.741132 64.8268711,122.178399 C65.2022732,121.564237 68.7968969,118.609703 71.6019845,119.311815" id="Fill-305" fill="#A7C4DA"></path>
                    <path d="M86.6821237,142.345852 C86.6821237,142.345852 93.9533041,150.645976 97.5196237,151.83256 C97.7907474,151.923492 98.8737526,152.239517 99.4934639,152.230573 C101.573072,152.20374 104.4735,150.200262 101.24534,146.594299 C95.8586186,140.574921 88.9747577,137.645728 88.9747577,137.645728 C88.9747577,137.645728 89.8953866,139.807219 86.6821237,142.345852" id="Fill-306" fill="#9BB8D4"></path>
                    <path d="M81.7303918,124.982374 C79.5479948,122.755293 76.893366,127.995045 86.6821237,142.345852 C87.7398041,143.897653 91.5981031,142.043244 90.1843866,139.714796 C86.5137887,133.674548 84.017067,127.316784 81.7303918,124.982374" id="Fill-307" fill="#9BB8D4"></path>
                    <polyline id="Fill-308" fill="#745E99" points="97.6581649 151.83256 95.8764948 148.685728 106.054062 142.919765 107.834242 146.068088 97.6581649 151.83256"></polyline>
                    <path d="M79.9934124,162.091442 L77.9972268,158.565976 C77.5398918,157.756535 77.8244227,156.727964 78.6333247,156.270324 L93.3201856,147.94933 C95.1018557,146.940138 97.3646959,147.567716 98.3732165,149.350573 C99.3817371,151.13343 98.756067,153.397778 96.9729072,154.40697 L82.2860464,162.726473 C81.4771443,163.185604 80.4507474,162.900883 79.9934124,162.091442" id="Fill-309" fill="#745E99"></path>
                    <path d="M83.8219175,161.857405 L80.1677062,155.401256 L93.3201856,147.94933 C95.1018557,146.940138 97.3646959,147.567716 98.3732165,149.349082 C99.3817371,151.13343 98.756067,153.396287 96.9729072,154.40697 L83.8219175,161.857405" id="Fill-310" fill="#B43866"></path>
                    <path d="M145.206113,130.313057 L145.186747,130.180386 C143.649387,120.012436 133.027892,114.774175 121.511093,118.503865 C110.044943,122.217157 101.945495,133.442001 103.393474,143.575666 L103.41284,143.708337 C104.950201,153.874796 115.571696,159.113057 127.088495,155.383368 C138.554644,151.671567 146.654093,140.445231 145.206113,130.313057 M141.414851,131.516039 C142.599155,139.801256 135.944706,149.009206 126.582,152.039765 C122.023546,153.515542 117.494887,153.333678 113.828758,151.52548 C110.162629,149.717281 107.808918,146.504858 107.199634,142.481504 L107.184737,142.372685 C106.000433,134.087467 112.654881,124.879517 122.016098,121.848958 C131.44584,118.794548 140.139675,123.083244 141.398464,131.407219 L141.414851,131.516039" id="Fill-311" fill="#9E2D5C"></path>
                    <path d="M144.033727,128.694175 L144.014361,128.561504 C142.477,118.395045 131.856995,113.156784 120.338706,116.884983 C108.872557,120.599765 100.773108,131.82461 102.221088,141.956784 L102.240454,142.089455 C103.777814,152.255914 114.399309,157.495666 125.916108,153.765976 C137.383747,150.052685 145.481706,138.82784 144.033727,128.694175 M140.242464,129.897157 C141.426768,138.182374 134.77232,147.390324 125.411103,150.422374 C120.852649,151.89815 116.3225,151.714796 112.656371,149.906598 C108.991732,148.098399 106.636531,144.887467 106.027247,140.862622 L106.012351,140.753803 C104.828046,132.468585 111.482495,123.262126 120.845201,120.230076 C130.273454,117.177157 138.968778,121.464362 140.227567,129.789827 L140.242464,129.897157" id="Fill-312" fill="#B43866"></path>
                    <path d="M119.391263,151.410697 C116.976474,151.410697 114.68384,150.906846 112.656371,149.906598 C111.124969,149.150821 109.82149,148.150573 108.780196,146.947591 C107.984701,145.619393 107.448412,144.118275 107.199634,142.481504 L107.184737,142.372685 C106.49501,137.54138 108.467361,132.398523 112.088799,128.346846 C111.960686,129.05343 111.831082,129.760014 111.701479,130.466598 C121.256356,131.091194 130.814211,131.71579 140.370577,132.341877 C140.330356,133.474796 140.156062,134.612188 139.862593,135.736163 C130.285371,135.016163 120.708149,134.296163 111.132418,133.574672 C110.903005,134.826846 110.673593,136.077529 110.44418,137.329703 C119.718995,138.137653 128.995299,138.945604 138.270113,139.753554 C137.668278,140.876039 136.950247,141.959765 136.130918,142.985355 C127.378985,142.137157 118.627052,141.287467 109.875119,140.437778 C109.647196,141.689952 109.417784,142.940635 109.188371,144.192809 C116.909438,145.035045 124.627526,145.87579 132.348593,146.718026 C130.304737,148.314548 127.958474,149.596535 125.411103,150.422374 C123.373206,151.081256 121.342758,151.410697 119.391263,151.410697 M139.880469,128.185852 C131.131515,127.716287 122.384052,127.248212 113.635098,126.778647 C115.98434,124.609703 118.844546,122.874548 122.016098,121.848958 C123.426835,121.391318 124.821186,121.099144 126.176804,120.960511 C127.776732,121.014175 129.37666,121.06933 130.978077,121.124486 C134.084082,121.687964 136.762546,123.148834 138.647005,125.328212 C139.169887,126.200262 139.587,127.15579 139.880469,128.185852" id="Fill-313" fill="#C6DEE8"></path>
                    <path d="M130.978077,121.124486 C129.37666,121.06933 127.776732,121.014175 126.176804,120.960511 C126.802474,120.894921 127.420696,120.863616 128.02849,120.863616 C129.044459,120.863616 130.030634,120.951567 130.978077,121.124486" id="Fill-314" fill="#9DB6BD"></path>
                    <path d="M140.370577,132.341877 C130.814211,131.71579 121.256356,131.091194 111.701479,130.466598 C111.831082,129.760014 111.960686,129.05343 112.088799,128.346846 C112.575928,127.804237 113.091361,127.279517 113.635098,126.778647 C122.384052,127.248212 131.131515,127.716287 139.880469,128.185852 C140.027948,128.701629 140.144144,129.236784 140.227567,129.789827 L140.242464,129.897157 C140.35866,130.706598 140.398881,131.522001 140.370577,132.341877" id="Fill-315" fill="#D4E9EE"></path>
                    <path d="M138.270113,139.753554 C128.995299,138.945604 119.718995,138.137653 110.44418,137.329703 C110.673593,136.077529 110.903005,134.826846 111.132418,133.574672 C120.708149,134.296163 130.285371,135.016163 139.862593,135.736163 C139.503577,137.106101 138.964309,138.455169 138.270113,139.753554" id="Fill-316" fill="#D4E9EE"></path>
                    <path d="M132.348593,146.718026 C124.627526,145.87579 116.909438,145.035045 109.188371,144.192809 C109.417784,142.940635 109.647196,141.689952 109.875119,140.437778 C118.627052,141.287467 127.378985,142.137157 136.130918,142.985355 C135.038974,144.34933 133.766778,145.608958 132.348593,146.718026" id="Fill-317" fill="#D4E9EE"></path>
                    <path d="M108.780196,146.947591 C107.327747,145.273554 106.381794,143.205976 106.027247,140.862622 L106.012351,140.753803 C104.828046,132.468585 111.482495,123.262126 120.845201,120.230076 C122.906933,119.56225 124.934402,119.246225 126.856103,119.246225 C131.97468,119.246225 136.345433,121.491194 138.647005,125.328212 C136.762546,123.148834 134.084082,121.687964 130.978077,121.124486 C130.030634,120.951567 129.044459,120.863616 128.02849,120.863616 C127.420696,120.863616 126.802474,120.894921 126.176804,120.960511 C124.821186,121.099144 123.426835,121.391318 122.016098,121.848958 C118.844546,122.874548 115.98434,124.609703 113.635098,126.778647 C113.091361,127.279517 112.575928,127.804237 112.088799,128.346846 C108.467361,132.398523 106.49501,137.54138 107.184737,142.372685 L107.199634,142.481504 C107.448412,144.118275 107.984701,145.619393 108.780196,146.947591" id="Fill-318" fill="#C1A9BC"></path>
                    <path d="M119.176747,152.297653 C111.935361,152.297653 106.122588,148.038771 105.084273,141.168212 C103.753979,132.371691 110.754036,122.624113 120.718577,119.396784 C122.900974,118.6902 125.047619,118.354796 127.079557,118.354796 C134.320943,118.354796 140.132227,122.613678 141.170541,129.484237 C142.500835,138.280759 135.502268,148.026846 125.536237,151.255666 C123.35384,151.96225 121.208686,152.297653 119.176747,152.297653 M108.780196,146.947591 C109.82149,148.150573 111.124969,149.150821 112.656371,149.906598 C114.68384,150.906846 116.976474,151.410697 119.391263,151.410697 C121.342758,151.410697 123.373206,151.081256 125.411103,150.422374 C127.958474,149.596535 130.304737,148.314548 132.348593,146.718026 C133.766778,145.608958 135.038974,144.34933 136.130918,142.985355 C136.950247,141.959765 137.668278,140.876039 138.270113,139.753554 C138.964309,138.455169 139.503577,137.106101 139.862593,135.736163 C140.156062,134.612188 140.330356,133.474796 140.370577,132.341877 C140.398881,131.522001 140.35866,130.706598 140.242464,129.897157 L140.227567,129.789827 C140.144144,129.236784 140.027948,128.701629 139.880469,128.185852 C139.587,127.15579 139.169887,126.200262 138.647005,125.328212 C136.345433,121.491194 131.97468,119.246225 126.856103,119.246225 C124.934402,119.246225 122.906933,119.56225 120.845201,120.230076 C111.482495,123.262126 104.828046,132.468585 106.012351,140.753803 L106.027247,140.862622 C106.381794,143.205976 107.327747,145.273554 108.780196,146.947591" id="Fill-319" fill="#C8AEC0"></path>
                    <path d="M100.071464,150.705604 L100.220433,150.727964 C100.650954,150.574424 102.709706,149.793306 102.684381,148.970448 C102.645649,147.710821 101.297479,146.902871 100.893773,147.117529 C100.530289,147.311318 101.029335,148.023865 101.029335,148.023865 C101.029335,148.023865 101.077005,147.867343 100.698624,147.955293 C100.320242,148.043244 100.689686,148.810945 100.694155,149.250697 C100.700113,149.67256 99.4085515,150.619144 100.071464,150.705604" id="Fill-320" fill="#EA8D9A"></path>
                    <path d="M86.1160412,155.009206 C86.1160412,155.009206 86.4765464,154.889952 86.8221546,154.748337 C87.215433,154.588834 87.5908351,154.398026 87.3941959,154.31902 C87.1975567,154.241504 86.8415206,154.245976 86.4705876,154.299641 C85.6423196,154.418896 84.739567,154.77666 85.3860928,154.971939 C85.7927784,155.095666 86.1160412,155.009206 86.1160412,155.009206" id="Fill-321" fill="#EA8D9A"></path>
                    <path d="M84.4654639,154.82138 L84.8006443,154.648461 C85.2564897,154.630573 86.3365155,154.605231 86.7908711,154.717032 C87.3733402,154.861629 88.7915258,155.940883 88.804933,156.273306 C88.8198299,156.604237 88.0481701,156.23902 88.0481701,156.23902 C88.0481701,156.23902 88.906232,156.596784 88.804933,157.00374 C88.7051237,157.409206 87.3495052,156.930697 87.3495052,156.930697 C87.3495052,156.930697 87.6787268,157.518026 87.379299,157.468834 C87.1454175,157.430076 86.4139794,157.134921 85.9328093,156.93815 C85.7868196,156.878523 85.255,156.63107 85.1388041,156.525231 C84.7902165,156.201753 84.0453711,155.501132 84.0572887,155.417653 C84.0677165,155.343119 84.3090464,155.021132 84.4654639,154.82138" id="Fill-322" fill="#EA8D9A"></path>
                    <path d="M67.0211856,143.489206 C67.0211856,143.489206 76.6952371,133.506101 78.1655619,126.76225 C78.4113608,125.632312 78.0091443,123.494672 78.6735464,123.072809 C79.3394381,122.649455 82.1564433,125.092685 82.4216082,125.796287 C82.6867732,126.50138 82.6748557,131.012188 79.3602938,135.326225 C76.045732,139.638771 72.8131031,144.532685 72.8131031,144.532685 C72.8131031,144.532685 67.1984588,143.894672 67.0211856,143.489206" id="Fill-323" fill="#9BB8D4"></path>
                    <path d="M68.2054897,120.361256 C66.9213763,121.458399 65.5553299,125.141877 66.2554845,129.870324 C66.8886031,134.147094 68.3663763,142.324983 72.4108866,145.485231 C75.4021856,147.822622 74.1955361,139.634299 74.1955361,139.634299 L71.3755515,129.025107 C71.3755515,129.025107 69.6147371,119.155293 68.2054897,120.361256" id="Fill-324" fill="#D4E9EE"></path>
                    <path d="M69.5536598,139.528461 C68.5510979,143.19107 77.6173557,157.157281 83.193268,155.851442 C85.2669175,155.363989 85.5529381,153.980635 85.5529381,153.980635 L73.902067,138.535666 C73.902067,138.535666 70.6843351,135.400759 69.5536598,139.528461" id="Fill-325" fill="#D4E9EE"></path>
                    <path d="M81.8450979,119.577157 C81.8450979,119.577157 78.420299,122.324486 78.2340876,122.829827 C78.049366,123.33666 78.1849278,124.381629 79.2992165,123.952312 C80.4164845,123.524486 82.7716856,120.492436 82.7716856,120.492436 L81.8450979,119.577157" id="Fill-326" fill="#EA8D9A"></path>
                    <path d="M82.3411649,119.062871 C82.3411649,119.062871 78.916366,121.8102 78.7301546,122.315542 C78.545433,122.822374 78.7852732,123.910573 79.9010515,123.481256 C81.0153402,123.05343 83.2677526,119.97815 83.2677526,119.97815 L82.3411649,119.062871" id="Fill-327" fill="#BA586D"></path>
                    <path d="M85.871732,118.743865 C85.6140155,116.847716 82.1728299,115.671567 81.4235155,115.763989 C80.5997165,115.863865 80.1408918,116.752312 79.7848557,117.40374 C79.4303093,118.055169 78.4575412,121.136411 80.3866907,122.580883 C84.0230258,125.298399 85.871732,118.743865 85.871732,118.743865" id="Fill-328" fill="#EA8D9A"></path>
                    <path d="M75.9772062,118.418896 C75.9772062,118.418896 81.2358144,120.659393 84.9108814,117.212933 C84.9108814,117.212933 84.1556082,120.492436 86.4333454,122.466101 C86.4333454,122.466101 89.0343454,118.609703 86.0519845,115.298896 C83.0711134,111.988088 76.0397732,116.229082 75.9772062,118.418896" id="Fill-329" fill="#E0594E"></path>
                    <polyline id="Fill-335" fill="#D4E9EE" points="20.8556701 79.0062112 28.2966753 88.1023602 72.2291443 79.5652174 20.8556701 79.0062112"></polyline>
                    <path d="M27.7603866,87.6298137 C28.2966753,88.1023602 28.5305567,101.670559 28.5305567,101.670559 L30.797866,90.4248447 L71.9490825,79.623354 L27.7603866,87.6298137" id="Fill-336" fill="#A7C4DA"></path>
                    <polyline id="Fill-337" fill="#8FB5CF" points="45.2821289 95.9925466 28.5305567 101.670559 30.797866 90.4248447 53.1119433 90.6842236 45.2821289 95.9925466"></polyline>
                    <path d="M30.797866,90.4248447 C31.0570722,90.4963975 35.7838608,102.471056 35.7838608,102.471056 L72.2291443,79.5652174 L30.797866,90.4248447" id="Fill-338" fill="#D4E9EE"></path>
                    <path d="M73.0044662,48.9546675 C76.8955383,50.2351643 79.3371414,54.3181457 79.001961,58.3206302 L78.9960023,58.4339221 C78.9468425,58.9258476 79.7304198,59.0167793 79.849595,58.547214 L79.8764095,58.4339221 C81.4629301,51.9300712 81.6253064,42.881624 88.4272342,39.3665929 C91.6166621,37.7134252 95.2768322,38.2098227 97.6737445,40.9541706 C100.307518,43.9742948 100.620353,48.1705681 100.889987,51.9837358 C100.92276,52.3951643 101.457559,52.5844811 101.683992,52.1998848 L101.797208,52.0224935 C103.017265,50.2500712 105.753827,50.5362824 107.222662,51.888332 C109.025188,53.5340463 109.333554,56.2634873 109.473585,58.5591395 C109.489971,58.7693258 109.656817,59.0063445 109.899636,58.9854749 C113.273786,58.6441084 116.349997,61.4376488 116.279982,64.8453507 L116.345528,65.08386 C110.559569,64.8244811 104.739348,65.0018724 98.9474301,65.0018724 C92.7607445,65.0018724 86.5800177,65.0018724 80.3948218,65.0018724 C68.0214507,65.0018724 55.655528,65.0078352 43.2821569,65.0137979 C36.4489456,65.0182699 29.5278425,64.721624 22.7005899,65.1375246 C20.9665899,60.3345432 25.9064043,55.7819966 30.4618786,58.4026178 C30.7538579,58.5695743 31.1754404,58.2878352 31.0562651,57.9479594 L30.9639043,57.672183 C28.3346002,49.6731768 29.2641672,40.7067171 33.792827,33.554419 C35.936492,30.1780215 39.4015126,26.6406302 43.724595,26.8403817 C47.8599765,27.0282078 50.8080744,30.7340463 52.1353889,34.3429904 C54.0138889,39.4470898 53.1334816,45.1623693 53.8470435,50.4662202 C53.917059,50.980506 54.6514765,51.017773 54.6678631,50.4662202 C54.7319198,48.4731768 56.9619868,47.1822451 58.8017548,47.7337979 C60.7189868,48.312183 61.7334662,50.3424935 61.9062703,52.2118103 L61.9226569,52.4219966 C61.9494713,52.8542948 62.4887394,53.0063445 62.7270899,52.6381457 C64.8916105,49.3541706 69.2251208,47.7114376 73.0044662,48.9546675" id="Fill-339" fill="#D4E9EE"></path>
                    <path d="M0.819329897,93.8345479 C1.05172165,93.8345479 1.28262371,93.8449827 1.51501546,93.8613802 C1.34221134,94.0670945 0.965319588,94.0611317 0.819329897,93.8345479" id="Fill-340" fill="#D4E9EE"></path>
                    <path d="M23.9080464,126.061629 C24.2685515,119.287964 19.3525722,113.520511 12.9305155,113.177653 C6.50696907,112.836287 1.00852062,118.050697 0.649505155,124.825852 C0.397747423,129.558771 2.72315464,133.798275 6.33714433,136.041753 C6.43546392,136.29815 6.52931443,136.560511 6.60677835,136.834796 C6.90918557,137.918523 7.05219588,139.064858 7.6257268,140.011442 C8.57763918,141.584113 10.3459021,142.096908 11.8951804,142.149082 L12.2303608,142.14461 C12.4255103,142.158026 12.6191701,142.162498 12.8143196,142.156535 C14.0418247,142.117778 15.9411804,141.715293 16.6919845,140.403492 C16.8513814,140.126225 16.9541701,139.795293 17.0331237,139.442001 C17.1463402,139.246722 17.2535979,139.039517 17.3504278,138.811442 C17.7183814,137.949827 17.9507732,136.994299 18.1399639,136.020883 C21.4038763,133.993554 23.6816134,130.339889 23.9080464,126.061629" id="Fill-365" fill="#F8C74F"></path>
                    <path d="M13.1807835,128.935666 C13.1629072,128.652436 13.1807835,128.372188 13.2359021,128.09343 C13.5502268,128.212685 13.8645515,128.330448 14.180366,128.449703 C14.3427423,128.68225 13.8347577,129.57666 13.7215412,129.736163 C13.5800206,129.935914 13.4057268,130.114796 13.2135567,130.272809 C13.188232,129.827094 13.1718454,129.379889 13.1807835,128.935666 Z M9.02156701,129.594548 C8.83237629,129.302374 8.58657732,128.890945 8.65808247,128.548088 C8.83237629,127.708834 9.54742784,128.02784 10.0360464,128.50933 C10.7168351,129.181629 11.1160722,130.034299 11.3797474,130.916784 C10.4159175,130.892933 9.51465464,130.359268 9.02156701,129.594548 Z M13.250799,130.824362 C13.4936186,130.66933 13.7215412,130.482995 13.9256289,130.251939 C14.5393814,129.554299 15.1144021,128.142622 14.3367835,127.35256 C13.5621443,126.569952 12.8113402,127.468834 12.6757784,128.188834 C12.528299,128.975914 12.5268093,129.815169 12.5849072,130.666349 C12.3465567,130.775169 12.094799,130.855666 11.829634,130.894424 L11.786433,130.731939 C11.4289072,129.581132 10.6900206,127.969703 9.36717526,127.485231 C8.35567526,127.114051 8.06965464,128.020386 8.19329897,128.761256 C8.4614433,130.372685 9.97347938,131.337157 11.4944536,131.329703 C11.5734072,131.641256 11.6389536,131.954299 11.6940722,132.26138 C12.2944175,135.560262 11.9845619,138.74138 11.454232,142.008958 C11.4318866,142.14461 11.6732165,142.186349 11.7119485,142.055169 C12.7189794,138.745852 12.8530515,134.710573 11.9354021,131.299889 C12.1692835,131.268585 12.3986959,131.208958 12.6221495,131.129952 C12.7234485,132.246473 12.9022113,133.368958 12.9811649,134.406473 C13.1733351,136.922747 13.048201,139.248212 12.4255103,141.700386 C12.3480464,142.004486 12.8068711,142.155045 12.9334948,141.858399 C14.0477835,139.233306 13.746866,136.172933 13.4936186,133.419641 C13.4146649,132.559517 13.3178351,131.691939 13.250799,130.824362 L13.250799,130.824362 Z" id="Fill-366" fill="#FFF1CF"></path>
                    <path d="M14.9743711,142.353306 C14.9907577,142.059641 14.8254021,141.807716 14.5364021,141.682498 C14.3963711,141.62138 14.2369742,141.606473 14.0954536,141.64374 C13.9881959,141.596039 13.8585928,141.57815 13.708134,141.612436 C13.0660773,141.761504 12.4150825,141.782374 11.7536598,141.776411 C11.3454845,141.700386 10.943268,141.606473 10.5395619,141.522995 C10.2014021,141.399268 9.80365464,141.314299 9.56530412,141.579641 L9.4729433,141.891194 C9.35525773,142.07902 9.32248454,142.311567 9.38207216,142.521753 C9.45208763,142.770697 9.64425773,142.989827 9.88409794,143.122498 C9.72619072,143.261132 9.63680928,143.465355 9.69341753,143.699393 C9.75598454,143.960262 9.96603093,144.139144 10.2088505,144.262871 C10.3384536,144.338896 10.4740155,144.398523 10.6259639,144.43579 C10.4874227,145.74461 14.5021392,145.506101 14.2205876,144.286722 L14.1907938,144.201753 C14.4351031,144.078026 14.6466392,143.888709 14.7479381,143.705355 C14.8864794,143.454921 14.8760515,143.162747 14.6719639,142.954051 C14.8432784,142.79902 14.9594742,142.594796 14.9743711,142.353306" id="Fill-367" fill="#A7C4DA"></path>
                </g>
            </g>
        </g>
    </g>
</svg>