<?xml version="1.0" encoding="UTF-8"?>
<svg width="161px" height="154px" viewBox="0 0 161 154" version="1.1" xmlns="http://www.w3.org/2000/svg" xmlns:xlink="http://www.w3.org/1999/xlink">
    <title>image2</title>
    <g id="design" stroke="none" stroke-width="1" fill="none" fill-rule="evenodd">
        <g id="Mobile" transform="translate(-155.000000, -1890.000000)">
            <g id="Group-18" transform="translate(-23.000000, 1373.000000)">
                <g id="Group-22" transform="translate(38.000000, 507.000000)">
                    <g id="Group-14" transform="translate(140.200000, 10.800000)">
                        <path d="M160.267698,150.286089 C160.267698,151.713253 151.519567,152.869532 140.72954,152.869532 C129.93826,152.869532 121.191381,151.713253 121.191381,150.286089 C121.191381,148.858926 129.93826,147.701393 140.72954,147.701393 C151.519567,147.701393 160.267698,148.858926 160.267698,150.286089" id="Fill-304" fill="#D1E6EC"></path>
                        <path d="M141.301321,148.475171 C141.03107,150.544434 127.674907,150.504303 111.467344,148.38613 C95.2597814,146.267958 82.3390233,142.873114 82.6092744,140.805106 C82.8770233,138.735844 96.2344372,138.775975 112.442,140.894147 C128.649563,143.012319 141.570321,146.407163 141.301321,148.475171" id="Fill-305" fill="#D1E6EC"></path>
                        <path d="M80.5360977,117.498942 C80.5360977,121.559712 63.691693,124.850467 42.9148837,124.850467 C22.1368233,124.850467 5.2924186,121.559712 5.2924186,117.498942 C5.2924186,113.439426 22.1368233,110.147417 42.9148837,110.147417 C63.691693,110.147417 80.5360977,113.439426 80.5360977,117.498942" id="Fill-306" fill="#D1E6EC"></path>
                        <path d="M132.867233,8.39113045 C134.232251,9.31665504 134.670158,10.9005813 134.572567,12.3942124 C129.307674,12.606155 124.036526,12.6889255 118.766628,12.6412698 C118.792902,11.152655 117.666856,9.93367143 116.157953,9.69037635 C117.166391,7.10693373 118.94054,4.41438455 122.094721,3.97921242 C125.6768,3.48760586 128.430609,6.57645012 127.836307,9.7317616 C127.785009,9.99637635 128.374307,9.91235176 128.429358,9.68661406 C128.884781,7.75279438 131.263242,7.30633537 132.867233,8.39113045" id="Fill-324" fill="#D4E9EE"></path>
                        <path d="M134.731465,12.784237 C129.371484,13.0024501 124.009,13.0864747 118.645265,13.0400731 C114.901786,13.1742616 111.148298,13.1203354 107.401065,13.1140649 C105.524321,13.1128108 103.650079,13.1128108 101.774586,13.1052862 C100.838716,13.1015239 99.9015953,13.0977616 98.9632233,13.0914911 C98.1024233,13.0877288 97.201586,13.1391468 96.348293,13.0074665 L96.348293,12.9861468 C96.4684047,12.9685895 96.5872651,12.9522862 96.7086279,12.9422534 L96.7048744,12.9058845 L96.6385628,12.8557206 C96.4696558,11.7307944 97.1765628,10.5707534 98.277586,10.0766386 C99.3160512,9.60885996 100.565963,9.77690914 101.473056,10.4077206 C101.646967,8.93290094 102.084874,7.47313045 102.935665,6.2077452 C104.313195,4.15729438 106.82553,2.72887635 109.483,3.21295832 C111.840191,3.64060586 113.619344,5.75501569 113.093856,7.96473701 C114.316242,7.40917143 115.710037,8.33093373 115.619953,9.59882717 C116.754758,6.77208947 118.77914,3.96416324 122.264879,3.58040914 C125.579209,3.21421242 128.338023,5.57818783 128.505679,8.48393373 C129.293912,7.62111406 130.596372,7.2060075 131.853791,7.46560586 C134.27354,7.9659911 135.304498,10.2459419 135.165619,12.3465567 L135.030493,12.5095895 C135.055516,12.6249665 134.932902,12.7742042 134.731465,12.784237 Z M134.572567,12.3942124 C134.670158,10.9005813 134.232251,9.31665504 132.867233,8.39113045 C131.263242,7.30633537 128.884781,7.75279438 128.429358,9.68661406 C128.374307,9.91235176 127.785009,9.99637635 127.836307,9.7317616 C128.430609,6.57645012 125.6768,3.48760586 122.094721,3.97921242 C118.94054,4.41438455 117.166391,7.10693373 116.157953,9.69037635 C117.666856,9.93367143 118.792902,11.152655 118.766628,12.6412698 C124.036526,12.6889255 129.307674,12.606155 134.572567,12.3942124 L134.572567,12.3942124 Z" id="Fill-325" fill="#D4E9EE"></path>
                        <polyline id="Fill-336" fill="#9C7631" points="39.2927674 77.809237 11.1103256 70.5367206 47.1500698 66.2125895 75.3312605 73.4851059 39.2927674 77.809237"></polyline>
                        <path d="M21.8628186,25.929696 C21.8628186,25.929696 24.0185721,37.7897042 26.1518047,45.7482124 C27.2928651,50.0108927 29.6488047,51.9359337 30.9975581,52.8112944 C34.8999349,55.343319 46.8760651,53.0922124 46.8760651,53.0922124 L56.4562186,23.3487616 L40.6515302,12.1295977 L21.8628186,25.929696" id="Fill-337" fill="#EA9085"></path>
                        <polyline id="Fill-338" fill="#EC9883" points="30.9550186 52.386155 32.8818093 77.1445649 55.4277628 74.5410567 49.7011907 49.3487288 30.9550186 52.386155"></polyline>
                        <path d="M30.5358791,35.1548436 C30.5358791,35.1548436 36.330014,36.1104665 40.6627907,42.2542944 C44.9968186,48.3993764 39.4942047,54.1343682 35.9271395,54.7739583 C32.3588233,55.4135485 25.6088,49.3023272 23.4292744,41.5407124 C21.2484977,33.7803518 30.5358791,35.1548436 30.5358791,35.1548436" id="Fill-339" fill="#EFA690"></path>
                        <polyline id="Fill-340" fill="#EC923D" points="16.1425023 45.0446632 13.2235395 41.8567452 52.3511535 5.81145012 55.2701163 8.99936815 16.1425023 45.0446632"></polyline>
                        <polyline id="Fill-341" fill="#EBA92C" points="19.060214 48.2325813 16.1425023 45.0446632 55.2701163 8.99936815 58.1878279 12.1872862 19.060214 48.2325813"></polyline>
                        <polyline id="Fill-342" fill="#F8C74F" points="21.9791767 51.4192452 19.060214 48.2325813 58.1878279 12.1872862 61.1067907 15.3752042 21.9791767 51.4192452"></polyline>
                        <path d="M23.5055953,50.0134009 L19.967307,53.6891632 C19.5594279,54.0365485 18.9826419,54.119319 18.4671628,53.8684993 C17.6726744,53.482237 15.9873581,52.1591632 14.1281302,50.1463354 C11.7759442,47.5980075 11.1641256,46.2799501 10.8625953,45.2729091 C10.6824279,44.6684337 10.8338186,44.0451468 11.2504558,43.6588845 L14.7599674,40.4621878 C14.7599674,40.4621878 17.5262884,45.1700731 23.5055953,50.0134009" id="Fill-343" fill="#E57777"></path>
                        <path d="M18.3683209,46.5094501 C18.2694791,46.4003436 18.1668837,46.2924911 18.0667907,46.1783682 C15.2854558,42.9804173 14.4959721,41.6422944 14.3808651,40.7757124 C14.3808651,40.7757124 15.1766047,40.0420649 15.748386,39.5153436 C15.8985256,39.3761386 16.0436605,39.2632698 16.1437535,39.1679583 L16.1800372,39.1328436 L16.2163209,39.2105977 C16.6279535,39.9016059 18.007986,42.1464419 20.052386,44.4125977 C22.8249628,47.4926632 24.6303907,48.6288764 24.8593535,48.7668272 L23.0689395,50.5351059 C22.334507,50.38336 20.8043349,49.1706468 18.3683209,46.5094501" id="Fill-344" fill="#A7C4DA"></path>
                        <path d="M62.8008651,8.33845832 L68.533693,0.771228809 C68.6888372,0.482786186 68.1558419,-0.12419742 67.8755814,0.0225320881 L59.348907,4.72163865 L62.8008651,8.33845832" id="Fill-345" fill="#231829"></path>
                        <path d="M61.2519256,15.2410157 C61.2519256,15.2410157 65.7235814,4.80190094 65.8274279,4.59372061 C66.2453163,3.75222061 65.3682512,2.07047471 63.9506837,2.12816324 C62.7370558,2.17707307 56.3536233,4.67398291 52.3511535,5.81145012 L52.0045814,6.1312452 L55.044907,9.22008947 L57.1881488,12.5058272 L58.0101628,12.3515731 L57.9288372,13.0789501 L60.9241209,15.5432534 L61.2519256,15.2410157" id="Fill-346" fill="#FCE3AC"></path>
                        <path d="M52.009586,9.03197471 L52.009586,9.03197471 C51.1988326,8.13905668 51.2764047,6.76331078 52.1834977,5.95943373 L52.3511535,5.81145012 L55.2888837,9.04576979 L55.1212279,9.1937534 C54.2141349,9.99763045 52.8215907,9.92489274 52.009586,9.03197471" id="Fill-347" fill="#FCE3AC"></path>
                        <path d="M54.9385581,12.1822698 L54.9385581,12.1822698 C54.1278047,11.2880977 54.2053767,9.91360586 55.1137209,9.10972881 L55.2801256,8.9617452 L58.2178558,12.1948108 L58.0502,12.3440485 C57.143107,13.1466714 55.7505628,13.0751878 54.9385581,12.1822698" id="Fill-348" fill="#FCE3AC"></path>
                        <path d="M57.9551116,15.2560649 L57.9551116,15.2560649 C57.143107,14.3618927 57.2206791,12.9874009 58.1277721,12.1835239 L58.2954279,12.0355403 L61.2331581,15.26986 L61.0655023,15.4178436 C60.1584093,16.2204665 58.764614,16.1489829 57.9551116,15.2560649" id="Fill-349" fill="#FCE3AC"></path>
                        <path d="M26.8762279,21.0186468 L31.5293023,29.002237 C32.018507,29.8412288 31.7307395,30.9122288 30.8812,31.41136 L29.9140512,31.9794665 C28.421414,32.8573354 26.4958744,32.4547698 25.508707,31.0589583 L21.2034558,24.9678026 C20.6617023,24.2015485 20.8193488,23.1543764 21.5650419,22.5674583 L24.1649581,20.5220239 C25.0370186,19.8360321 26.3244651,20.0730567 26.8762279,21.0186468" id="Fill-350" fill="#ED9E89"></path>
                        <path d="M26.615986,20.4969419 L31.7470047,29.3145075 C32.5927907,30.7692616 34.4845488,31.2671386 35.9671767,30.4256386 L37.0619442,29.80486 C38.205507,29.1564911 38.5983721,27.7230567 37.9390093,26.6069091 L32.4851907,16.9980075 C31.7507581,15.7539419 29.8039488,15.4128272 28.6666419,16.3295731 L27.1777581,17.5309993 C26.2781721,18.2558682 26.0417023,19.5099665 26.615986,20.4969419" id="Fill-351" fill="#EFA690"></path>
                        <path d="M31.4454744,15.6159911 L37.0994791,25.5183518 C38.1992512,27.5474829 40.8104279,28.173278 42.7071907,26.8627452 C44.453814,25.6550485 44.9067349,23.2622288 43.7231349,21.4964583 L37.3859953,12.0518436 C36.7116186,11.0448026 35.354107,10.7714091 34.3431674,11.4373354 L32.4501581,12.682655 C31.4917674,13.3147206 30.8974651,14.6039337 31.4454744,15.6159911" id="Fill-352" fill="#ED9E89"></path>
                        <path d="M36.5502186,10.8015075 L44.5501535,22.7405239 C45.5648465,24.2554747 47.5904791,24.6981714 49.1431721,23.7463108 C50.6896093,22.7982124 52.124693,20.8242616 51.117507,18.904237 L43.4478791,6.5927534 C42.6721581,5.17436815 40.8717349,4.69279438 39.4942047,5.53429438 L37.4260326,6.79717143 C36.0497535,7.63867143 35.6506326,9.45962225 36.5502186,10.8015075" id="Fill-353" fill="#EFA690"></path>
                        <path d="M29.2897209,31.0689911 L29.2897209,31.0689911 C28.245,31.6471304 26.9325302,31.2671386 26.3557442,30.2199665 L26.1568093,29.8600403 C26.000414,29.5778682 26.1042605,29.2217042 26.3857721,29.066196 L29.1470884,27.5387042 C29.4286,27.3819419 29.7839302,27.484778 29.9390744,27.7669501 L30.1380093,28.1281304 C30.7135442,29.1753026 30.3344419,30.4921059 29.2897209,31.0689911" id="Fill-354" fill="#EA8E7E"></path>
                        <path d="M35.6643953,29.0950403 L35.6643953,29.0950403 C34.4858,29.7471714 33.0031721,29.3182698 32.3538186,28.1369091 L32.1298605,27.7318354 C31.9534465,27.4120403 32.0698047,27.0107288 32.3876,26.835155 L35.5017442,25.1120239 C35.8195395,24.9364501 36.2199116,25.0518272 36.3963256,25.3703682 L36.6190326,25.776696 C37.2696372,26.9580567 36.8417395,28.4441632 35.6643953,29.0950403" id="Fill-355" fill="#EC9883"></path>
                        <path d="M41.5686326,25.6650813 L41.5686326,25.6650813 C40.3900372,26.3159583 38.9086605,25.8870567 38.2580558,24.7069501 L38.0353488,24.3006223 C37.8589349,23.9820813 37.975293,23.5807698 38.2930884,23.405196 L41.4072326,21.6820649 C41.7250279,21.505237 42.1254,21.6218682 42.3005628,21.9404091 L42.5245209,22.346737 C43.1751256,23.5268436 42.7472279,25.0129501 41.5686326,25.6650813" id="Fill-356" fill="#EA8E7E"></path>
                        <path d="M48.7840884,21.5892616 L48.7840884,21.5892616 C47.4516,22.3279255 45.7737907,21.8413354 45.0368558,20.5057206 L44.7841209,20.0454665 C44.585186,19.6855403 44.7165581,19.2315567 45.076893,19.032155 L48.6014186,17.080778 C48.9617535,16.8826304 49.4146744,17.0130567 49.6136093,17.374237 L49.8663442,17.8344911 C50.6020279,19.1701059 50.1178279,20.8518518 48.7840884,21.5892616" id="Fill-357" fill="#EC9883"></path>
                        <path d="M47.1175395,15.678696 C46.3480744,15.4190977 45.5248093,15.9320239 45.4372279,16.7421714 C45.2683209,18.3060321 45.5185535,20.7866386 47.8056791,23.1104829 C50.1378465,25.4794747 53.3608419,26.74486 53.3608419,26.74486 L50.0965581,32.8723845 C50.0965581,32.8723845 42.809786,33.6386386 39.4128791,38.7127206 C36.0159721,43.7868026 35.200214,51.4204993 40.1297953,53.9989255 C43.1651163,55.5866141 48.8203721,54.6084173 54.269186,48.1661141 C59.718,41.7225567 59.7367674,38.5145731 59.7367674,38.5145731 C59.7367674,38.5145731 61.7423814,21.7058927 61.0154558,20.8756796 C60.424907,20.2009747 50.7359023,16.8964255 47.1175395,15.678696" id="Fill-358" fill="#ED9E89"></path>
                        <path d="M47.497893,17.3729829 L47.9270419,16.0022534 L52.0258512,17.3579337 L51.2063395,19.8724009 C51.1287674,20.1194583 50.8660233,20.2574091 50.618293,20.179655 L48.6352,19.5563682 C47.7193488,19.2679255 47.2113767,18.2909829 47.497893,17.3729829" id="Fill-359" fill="#EA8E7E"></path>
                        <path d="M36.5652326,48.5486141 C36.0935442,46.8718845 36.1761209,45.0584583 36.5714884,43.3390895 C36.9656047,41.6096878 37.7563395,39.9718354 38.7948047,38.5321304 C39.3215442,37.8172944 39.9133442,37.1538764 40.5451814,36.5381141 C40.8779907,36.2471632 41.1895302,35.9336386 41.5423581,35.6715321 L42.0603395,35.2639501 L42.602093,34.8914829 C44.047186,33.9032534 45.6261535,33.1395075 47.2801907,32.6504091 C45.845107,33.6085403 44.4600698,34.5804665 43.1888884,35.6640075 C42.5495442,36.2020157 41.956493,36.7826632 41.3784558,37.3733436 C40.8166837,37.9790731 40.2824372,38.6048682 39.796986,39.2670321 C38.8348419,40.5963764 38.051614,42.0498764 37.4986,43.6099747 C36.9631023,45.1725813 36.6090233,46.8254829 36.5652326,48.5486141" id="Fill-360" fill="#EA9085"></path>
                        <polyline id="Fill-361" fill="#EFA690" points="37.698786 53.1712206 41.3121442 76.1713845 32.8818093 77.1445649 30.8161395 51.7854419 37.698786 53.1712206"></polyline>
                        <path d="M39.6330837,55.1702534 C39.8645488,56.0242944 40.034707,56.8846059 40.1835953,57.7474255 C40.3362372,58.6102452 40.4525953,59.4768272 40.5626977,60.3459173 C40.6602884,61.2137534 40.7503721,62.0840977 40.8054233,62.9594583 C40.8629767,63.8323108 40.8992605,64.7101796 40.8742372,65.5930649 C40.6427721,64.740278 40.472614,63.8799665 40.3237256,63.0158927 C40.1710837,62.1530731 40.0547256,61.2864911 39.9458744,60.418655 C39.8482837,59.5495649 39.7582,58.6792206 39.7044,57.8051141 C39.6455953,56.9310075 39.6093116,56.0543927 39.6330837,55.1702534" id="Fill-362" fill="#EFA690"></path>
                        <path d="M39.0825721,53.9487616 C38.4895209,54.1820239 37.9127349,54.3049255 37.3146791,54.3789173 C36.7191256,54.4504009 36.1198186,54.4616878 35.5280186,54.3977288 C34.9387209,54.3350239 34.3531767,54.2234091 33.7951581,54.0277698 C33.2321349,53.8534501 32.7053953,53.5863272 32.1949209,53.3066632 C32.7266651,53.546196 33.2684186,53.7669173 33.8339442,53.8948354 C34.3944651,54.0415649 34.9712512,54.1042698 35.5442837,54.119319 C36.1173163,54.1356223 36.6903488,54.0791878 37.2483674,53.966319 C37.8013814,53.8559583 38.3631535,53.6816386 38.8410977,53.4471223 L39.0825721,53.9487616" id="Fill-363" fill="#EC9883"></path>
                        <polyline id="Fill-364" fill="#D4E9EE" points="55.1975488 71.2841632 32.3125302 74.7605239 30.8761953 61.5460895 52.6101442 58.2440485 55.1975488 71.2841632"></polyline>
                        <path d="M59.1937628,87.0230977 L32.8780558,91.0211632 L31.1101628,75.6120567 C30.8999674,74.2237698 31.8533535,72.9282862 33.2383907,72.7175977 L53.4396651,69.648819 C54.8247023,69.4393845 56.1171535,70.3937534 56.3273488,71.7820403 L59.1937628,87.0230977" id="Fill-365" fill="#CADCE5"></path>
                        <path d="M51.7143116,62.8516059 C51.8794651,63.9464337 51.1275163,64.9685239 50.0352512,65.1340649 C48.942986,65.30086 47.9232884,64.5471468 47.7581349,63.452319 C47.5917302,62.3574911 48.3436791,61.3354009 49.4359442,61.1686059 C50.5282093,61.0018108 51.547907,61.7555239 51.7143116,62.8516059" id="Fill-366" fill="#CADCE5"></path>
                        <polyline id="Fill-367" fill="#F8C74F" points="39.2327116 123.761909 11.0515209 114.818934 11.1103256 70.5367206 39.2927674 77.809237 39.2327116 123.761909"></polyline>
                        <polyline id="Fill-368" fill="#EBA92C" points="75.3312605 73.4851059 75.2724558 117.487655 39.2327116 123.761909 39.2927674 77.809237 75.3312605 73.4851059"></polyline>
                        <polyline id="Fill-369" fill="#F8C74F" points="39.2927674 77.809237 50.5232047 93.9131141 86.5667023 88.0163436 75.3312605 73.4851059 39.2927674 77.809237"></polyline>
                        <polyline id="Fill-370" fill="#F8D588" points="11.1103256 70.5367206 -1.4001823e-13 86.3044993 29.6500558 94.6091386 39.2927674 77.809237 11.1103256 70.5367206"></polyline>
                        <path d="M14.2382326,102.629098 C14.2795209,102.723155 14.3070465,102.836024 14.1669163,102.790876 C13.9604744,102.724409 13.6214093,102.423426 13.596386,102.230294 L13.3311395,102.492401 C13.2873488,102.553852 13.9842465,103.080573 14.2394837,103.243606 L14.5898093,103.259909 C14.7737302,103.089352 14.3145535,102.721901 14.2382326,102.629098" id="Fill-371" fill="#231829"></path>
                        <path d="M14.1669163,102.790876 C14.3070465,102.836024 14.2795209,102.723155 14.2382326,102.629098 C14.1156186,102.481114 14.0092698,102.363229 13.9892512,102.33313 L13.7302605,101.820204 L13.6251628,101.926803 L13.596386,102.230294 C13.6214093,102.423426 13.9604744,102.724409 14.1669163,102.790876" id="Fill-372" fill="#EA8D9A"></path>
                        <path d="M18.9613721,102.567647 L18.83,102.689294 C18.6673488,102.551344 18.4771721,102.150032 18.5309741,101.963171 C18.4096093,101.979475 18.2707302,102.049704 18.1806465,102.104885 C18.115586,102.14627 18.5447349,102.88995 18.7123907,103.134499 L19.0289349,103.278721 C19.2979349,103.207237 18.9939023,102.680516 18.9613721,102.567647" id="Fill-373" fill="#231829"></path>
                        <path d="M18.83,102.689294 L18.9613721,102.567647 C18.9088233,102.385803 18.8575256,102.237819 18.8525209,102.20145 L18.8212419,101.633344 L18.6811116,101.692286 L18.5309721,101.963171 C18.4771721,102.150032 18.6673488,102.551344 18.83,102.689294" id="Fill-374" fill="#EA8D9A"></path>
                        <path d="M15.0677535,84.5261878 C15.0665023,84.5700813 13.780307,86.1489911 13.403707,87.2877124 C12.3264558,90.5471141 13.0558837,99.9139747 13.2710837,101.949376 C13.2936047,102.158811 13.8316047,102.045942 13.8503721,101.969442 L16.4265163,88.9920321 L18.6398233,101.783835 L19.0089163,101.876639 C19.0089163,101.876639 20.2475674,96.4489009 20.2813488,92.7129419 C20.3464093,85.4090731 18.5172093,85.26736 18.3658186,84.681696 C17.9817116,84.8810977 15.8609907,84.8158845 15.0677535,84.5261878" id="Fill-375" fill="#2F2646"></path>
                        <path d="M17.7064558,72.9822124 L17.7027023,72.8818845 C17.7565023,72.8028764 17.8503395,72.6762124 17.9641953,72.5370075 L18.2044186,72.3476386 C18.3182744,72.2924583 18.4158651,72.2949665 18.4446419,72.2949665 L18.5034465,72.3601796 L18.5660047,72.4141059 C18.5447349,72.4579993 18.223186,72.6574009 18.1743907,72.7790485 L18.3758279,72.7815567 L18.0179953,73.0010239 L17.8565953,73.0699993 L17.7064558,72.9822124" id="Fill-376" fill="#EA8D9A"></path>
                        <path d="M22.9888651,74.4871304 L23.0764465,74.4382206 C23.1152326,74.3516878 23.2441023,74.2338026 23.3241767,74.073278 L23.3792279,73.7321632 C23.3667163,73.6067534 23.234093,73.6694583 23.2015628,73.6355977 L23.0451674,73.6155321 L22.9663442,73.5904501 L22.9200512,73.9804747 L22.8137023,73.8099173 L22.8112,74.2312944 L22.8362233,74.40436 L22.9888651,74.4871304" id="Fill-377" fill="#EA8D9A"></path>
                        <path d="M20.8844093,79.6552698 C20.7868186,79.4859665 20.6104047,79.9111059 20.6141581,79.6389665 C20.6304233,78.4801796 21.5575349,76.0973927 22.2556837,74.7981468 C22.4320977,74.4708272 22.8324698,74.1008682 23.1465116,74.302778 L23.1590233,74.3103026 C24.0148186,74.8621059 23.5956791,75.8741632 23.3304326,76.5012124 C23.0664372,77.1282616 21.9791767,78.8739665 21.9791767,78.8739665 C21.9791767,78.8739665 21.4949767,79.8070157 21.2872837,80.0967124 C21.0670791,80.4039665 21.1158744,80.0578354 20.8844093,79.6552698" id="Fill-378" fill="#2C684C"></path>
                        <line x1="17.5250372" y1="79.7305157" x2="17.5250372" y2="79.7305157" id="Fill-379" fill="#2F2646"></line>
                        <path d="M17.9742047,79.6151386 L17.869107,80.5356468 C17.907893,80.6309583 18.0630372,80.7638927 18.1706372,80.5619829 C18.2782372,80.3600731 18.2281907,79.6289337 18.2281907,79.6289337 L17.9742047,79.6151386" id="Fill-380" fill="#EA8D9A"></path>
                        <path d="M17.8841209,80.2171059 C17.976707,80.2936059 18.1080791,80.3412616 18.230693,80.269778 C18.2419535,80.1192862 18.2407023,79.9474747 18.2369488,79.8195567 L17.9429256,79.8032534 C17.9241581,79.9223927 17.900386,80.0779009 17.8841209,80.2171059" id="Fill-381" fill="#BA586D"></path>
                        <path d="M18.5710093,79.4458354 C18.5660047,79.3028682 18.2819907,78.8689501 18.2819907,78.8689501 C18.007986,78.6043354 17.3786512,79.1160075 17.3098372,79.2451796 C17.2335163,79.3881468 17.3236,79.5612124 17.3874093,79.6903845 C17.4512186,79.8208108 17.6126186,80.0289911 17.746493,80.0954583 C17.869107,80.1544009 18.1193395,80.1305731 18.2344465,80.0666141 C18.5785163,79.8722288 18.6285628,79.7292616 18.5710093,79.4458354" id="Fill-382" fill="#EA8D9A"></path>
                        <path d="M15.7346233,76.750778 L15.7346233,76.750778 L15.7333721,76.7532862 L15.670814,76.9451632 C15.4843907,77.5333354 15.3380047,79.7631223 15.4956512,80.6673272 C15.5994977,81.2667862 15.4543628,81.9214255 15.4543628,81.9214255 L17.2810605,80.5970977 C17.2810605,80.5970977 16.693014,80.44786 16.562893,80.129319 C16.2851349,79.4445813 16.5378698,77.1734091 16.5378698,77.1734091 C16.6517256,76.891237 15.963586,76.1738927 15.7346233,76.750778" id="Fill-383" fill="#377258"></path>
                        <path d="M15.5932419,77.3389501 C15.5431953,77.1470731 16.585414,73.895196 17.3999209,72.7966059 C17.3999209,72.7966059 17.5287907,72.735155 17.9466791,72.9985157 C18.8024744,73.5365239 18.3708233,74.2300403 18.1105814,74.8094337 C17.8503395,75.3888272 16.6679907,77.1119583 16.6679907,77.1119583 C16.6679907,77.1119583 15.8046884,78.1465895 15.5932419,77.3389501" id="Fill-384" fill="#377258"></path>
                        <path d="M13.5626047,102.067265 C13.7014837,102.054721 13.8403628,102.007065 13.8503721,101.969442 L16.4265163,88.9920321 L18.6398233,101.783835 L19.0089163,101.876639 C19.0089163,101.876639 20.2475674,96.4489009 20.2813488,92.7129419 C20.3464093,85.4090731 18.5172093,85.26736 18.3658186,84.681696 C18.1643814,84.7870403 17.4824977,84.8183927 16.7668326,84.7820239 C16.4602977,84.7669747 15.232907,87.3504173 14.526,91.4362698 C13.7402698,95.9786141 13.488786,102.072278 13.5626047,102.067265" id="Fill-385" fill="#231829"></path>
                        <path d="M19.5719395,82.6638518 C19.5719395,82.6638518 19.8096605,82.0267698 20.2225442,81.5815649 C20.6391814,81.1338518 21.7689814,79.6352042 21.9453953,78.7498108 C22.1743581,77.5947862 20.913186,78.7548272 20.913186,78.7548272 C20.913186,78.7548272 20.1462233,80.3124173 19.2791674,80.9281796 C19.0339395,81.1024993 19.0727256,83.0262862 19.5719395,82.6638518" id="Fill-386" fill="#2C684C"></path>
                        <path d="M16.693014,80.3512849 C16.6992698,80.3500403 16.8356465,80.474196 17.2134977,80.5017862 C17.3774,80.5143272 17.6351395,80.5017862 17.9366698,80.5231059 C18.5322233,80.5644911 19.2766651,80.6585485 19.6670279,80.7814501 L19.6695302,80.7814501 L19.7796326,81.7922534 C19.7608651,82.3841878 19.2804186,82.9184337 19.0889907,83.4928108 C18.8725395,84.1449419 18.9325953,84.8171386 18.7198977,85.0993108 C18.6323163,85.2146878 17.9967256,85.2397698 17.308586,85.1733026 C16.4052465,85.0867698 15.3855488,84.8773354 15.0227116,84.5951632 C15.0740093,84.3556304 15.2128884,83.0664173 15.425586,82.0455813 C15.6245209,81.0924665 15.5882372,80.3876632 16.693014,80.3512849" id="Fill-387" fill="#377258"></path>
                        <path d="M17.9504326,80.5231059 L18.1118326,80.5231059 C18.7399163,80.5494419 19.2941814,80.6635649 19.6670279,80.7814501 L19.6695302,80.7814501 L19.7796326,81.7922534 C19.7608651,82.3766632 19.4230512,82.9623272 19.2353767,83.5316878 C19.0164233,84.1925977 18.9350977,84.8133764 18.7198977,85.0993108 C18.6373209,85.2084173 18.0667907,85.2360075 17.4249442,85.1833354 L16.501586,85.0616878 C16.501586,85.0616878 16.9770279,83.9179501 17.3323581,82.4544173 C17.4549721,81.9490157 17.9504326,80.5231059 17.9504326,80.5231059" id="Fill-388" fill="#2C684C"></path>
                        <path d="M17.1021442,79.2326386 C16.9570093,79.1373272 16.8481581,78.9805649 16.8531628,78.8024829 C16.8606698,78.6570075 16.9332372,78.5265813 17.0370837,78.4249993 L17.0383349,78.4237452 C17.1246651,78.3108764 17.477493,78.0374829 17.5212837,77.9697616 C17.7890326,77.5584173 17.9742047,76.6855649 18.5059488,77.1320239 C18.9363488,77.4957124 18.9075721,78.3234173 18.6460791,78.6444665 C18.1944093,79.2012862 17.8853721,79.033237 17.7089581,79.2639911 C17.7402372,79.5699911 17.8090512,79.8283354 18.0567814,80.052819 L18.0555302,80.1205403 C17.7965395,80.2095813 17.1647023,79.9211386 17.0683628,79.8145403 C16.9657674,79.6979091 16.9520047,79.364319 17.1021442,79.2326386" id="Fill-389" fill="#714E27"></path>
                        <path d="M17.8140558,80.1255567 C17.6101163,80.1054911 17.4074279,80.0615977 17.216,79.9687944 C17.1259163,79.9173764 17.0233209,79.8709747 16.9645163,79.7518354 L16.9357395,79.4119747 L16.9344884,79.4245157 L16.9707721,79.2903272 L17.0558512,79.1774583 L17.0671116,79.2953436 L16.8969535,79.1536304 L16.7881023,78.9529747 L16.7818465,78.7234747 L16.8656744,78.5178026 L16.8581674,78.5341059 L16.8906977,78.485196 L16.9119674,78.4613682 L16.954507,78.4174747 L17.039586,78.332196 L17.2134977,78.1704173 L17.384907,78.013655 L17.5050186,77.834319 C17.5813395,77.6951141 17.6564093,77.5559091 17.7439907,77.4229747 C17.8353256,77.2938026 17.9241581,77.1558518 18.0555302,77.0643026 C17.9466791,77.1784255 17.8753628,77.3188845 17.8052977,77.4580895 C17.7352326,77.5972944 17.6676698,77.7390075 17.6063628,77.8832288 L17.4799953,78.1039501 L17.3098372,78.2719993 L17.0033023,78.5830157 L16.9957953,78.5980649 L16.9357395,78.9128436 L17.1371767,79.1699337 L17.1421814,79.173696 L17.1622,79.2715157 L17.147186,79.287819 L17.0946372,79.351778 L17.0683628,79.4345485 L17.0671116,79.4420731 L17.0658605,79.4470895 L17.0671116,79.7079419 L17.2585395,79.8935485 C17.4261953,79.9963845 17.6188744,80.0678682 17.8140558,80.1255567" id="Fill-390" fill="#98662E"></path>
                        <path d="M143.36574,92.2865485 L136.389256,138.118827 C135.480912,144.084573 129.920744,148.184221 123.967712,147.273745 L99.261,143.496401 C93.3079674,142.585926 89.2191674,137.011458 90.1262605,131.044458 L97.1027442,85.2121796 C98.0110884,79.2451796 103.572507,75.1467862 109.524288,76.0572616 L134.231,79.8346059 C140.184033,80.7450813 144.272833,86.3195485 143.36574,92.2865485" id="Fill-391" fill="#377258"></path>
                        <path d="M142.493679,91.6356714 L135.342033,138.626737 C134.556302,143.78986 129.743079,147.33645 124.592042,146.548876 L100.771153,142.906975 C95.6201163,142.119401 92.0805767,137.294885 92.866307,132.131762 L100.019205,85.1419501 C100.804935,79.9775731 105.616907,76.4309829 110.767944,77.2185567 L134.590084,80.8604583 C139.741121,81.6480321 143.279409,86.4725485 142.493679,91.6356714" id="Fill-392" fill="#F8C74F"></path>
                        <path d="M139.704837,91.209278 L132.553191,138.200344 C131.76746,143.363467 126.954237,146.910057 121.8032,146.122483 L97.8922279,142.466786 C92.7411907,141.679212 89.2029023,136.854696 89.9886326,131.691573 L97.1402791,84.7005075 C97.9260093,79.5373845 102.739233,75.9907944 107.89027,76.7783682 L131.801242,80.4340649 C136.952279,81.2228927 140.491819,86.046155 139.704837,91.209278" id="Fill-393" fill="#EBA92C"></path>
                        <path d="M91.8015674,135.98686 C92.2782605,136.059598 92.5998093,136.542426 92.520986,137.066639 C92.4409116,137.589598 91.990493,137.95454 91.5138,137.881803 C91.037107,137.809065 90.7155581,137.324983 90.7943814,136.802024 C90.8744558,136.279065 91.3248744,135.914122 91.8015674,135.98686" id="Fill-394" fill="#231829"></path>
                        <path d="M92.2795116,136.24395 C92.4046279,136.381901 92.413386,136.606385 92.2957767,136.759385 C91.6939674,137.549467 90.6830279,137.99718 89.6320512,137.837909 C88.1031302,137.603393 87.0471488,136.171212 87.2798651,134.646229 C87.4825535,133.313122 88.601093,132.34245 89.8998,132.273475 L89.7871953,133.012139 C88.8913628,133.126262 88.1406651,133.821032 87.9980326,134.755335 C87.8266233,135.885278 88.6086,136.947499 89.7409023,137.120565 C90.5278837,137.239704 91.2973488,136.865983 91.7465163,136.261507 C91.8728837,136.092204 92.1093535,136.064614 92.2494837,136.211344 L92.2544884,136.21636 L92.2795116,136.24395" id="Fill-395" fill="#A7C4DA"></path>
                        <path d="M90.7943814,136.802024 C90.7668558,136.554967 90.8631953,136.284081 91.0558744,136.092204 C91.2435488,135.896565 91.5400744,135.789967 91.8253395,135.832606 C92.1093535,135.876499 92.3608372,136.067122 92.4822,136.310417 C92.6098186,136.551204 92.6210791,136.838393 92.520986,137.066639 C92.4922093,136.819581 92.4096326,136.606385 92.2782605,136.440844 C92.1468884,136.277811 91.9717256,136.16745 91.7790465,136.141114 C91.5863674,136.107253 91.3861814,136.16118 91.2122698,136.277811 C91.037107,136.395696 90.8957256,136.576286 90.7943814,136.802024" id="Fill-396" fill="#231829"></path>
                        <path d="M92.4384093,131.80695 C92.9138512,131.879688 93.2366512,132.362516 93.1565767,132.885475 C93.0765023,133.408434 92.6260837,133.773376 92.1493907,133.700639 C91.6726977,133.627901 91.3511488,133.145073 91.4312233,132.622114 C91.5100465,132.099155 91.9617163,131.734212 92.4384093,131.80695" id="Fill-397" fill="#231829"></path>
                        <path d="M92.9151023,132.062786 C93.0402186,132.201991 93.0502279,132.426475 92.9326186,132.579475 C92.3295581,133.369557 91.3198698,133.81727 90.268893,133.656745 C88.7387209,133.423483 87.6827395,131.991303 87.9154558,130.465065 C88.1181442,129.133212 89.2366837,128.16254 90.5366419,128.093565 L90.4240372,128.830975 C89.5269535,128.946352 88.777507,129.639868 88.6348744,130.575426 C88.462214,131.705368 89.2441907,132.766335 90.3777442,132.939401 C91.1647256,133.059794 91.9341907,132.684819 92.3833581,132.081598 C92.5084744,131.91104 92.7461953,131.88345 92.8863256,132.031434 L92.8900791,132.03645 L92.9151023,132.062786" id="Fill-398" fill="#A7C4DA"></path>
                        <path d="M91.4312233,132.622114 C91.4024465,132.375057 91.5000372,132.104171 91.6914651,131.912294 C91.8803907,131.716655 92.1769163,131.610057 92.4621814,131.652696 C92.7461953,131.696589 92.9964279,131.885958 93.1190419,132.130507 C93.2466605,132.371294 93.2566698,132.658483 93.1565767,132.885475 C93.1278,132.639671 93.0452233,132.425221 92.9138512,132.260934 C92.7824791,132.097901 92.6073163,131.986286 92.4146372,131.961204 C92.2232093,131.927344 92.0217721,131.98127 91.8478605,132.096647 C91.6739488,132.215786 91.5313163,132.395122 91.4312233,132.622114" id="Fill-399" fill="#231829"></path>
                        <path d="M93.074,127.625786 C93.550693,127.699778 93.8722419,128.182606 93.7934186,128.705565 C93.7133442,129.228524 93.2629256,129.593467 92.7862326,129.520729 C92.3095395,129.447991 91.9879907,128.965163 92.066814,128.44095 C92.1468884,127.917991 92.5985581,127.553048 93.074,127.625786" id="Fill-400" fill="#231829"></path>
                        <path d="M93.5519442,127.882876 C93.6770605,128.020827 93.6858186,128.245311 93.5682093,128.399565 C92.9651488,129.189647 91.9554605,129.63736 90.9044837,129.476835 C89.3755628,129.243573 88.3195814,127.811393 88.5522977,126.285155 C88.754986,124.952048 89.8735256,123.981376 91.1722326,123.913655 L91.0608791,124.651065 C90.1637953,124.765188 89.4130977,125.459958 89.2704651,126.395516 C89.0990558,127.525458 89.8810326,128.586426 91.0133349,128.759491 C91.8003163,128.879885 92.5710326,128.504909 93.0189488,127.900434 C93.1453163,127.73113 93.381786,127.70354 93.5219163,127.851524 L93.5269209,127.855286 L93.5519442,127.882876" id="Fill-401" fill="#A7C4DA"></path>
                        <path d="M92.066814,128.44095 C92.0392884,128.193893 92.1356279,127.924262 92.328307,127.732385 C92.5172326,127.535491 92.812507,127.428893 93.0977721,127.472786 C93.381786,127.515426 93.6332698,127.706048 93.7546326,127.949344 C93.8822512,128.19013 93.8935116,128.477319 93.7934186,128.705565 C93.7646419,128.459762 93.6820651,128.245311 93.550693,128.07977 C93.4193209,127.916737 93.242907,127.806376 93.0502279,127.78004 C92.8588,127.747434 92.658614,127.80136 92.4847023,127.916737 C92.3107907,128.035876 92.1681581,128.215212 92.066814,128.44095" id="Fill-402" fill="#231829"></path>
                        <path d="M93.7108419,123.445876 C94.1875349,123.518614 94.5090837,124.002696 94.4290093,124.525655 C94.3489349,125.048614 93.8985163,125.413557 93.4218233,125.340819 C92.9451302,125.268081 92.6235814,124.783999 92.7036558,124.26104 C92.7824791,123.738081 93.2341488,123.373139 93.7108419,123.445876" id="Fill-403" fill="#231829"></path>
                        <path d="M94.188786,123.702967 C94.3126512,123.840917 94.3226605,124.065401 94.2050512,124.218401 C93.6019907,125.008483 92.5923023,125.456196 91.5413256,125.296926 C90.0111535,125.062409 88.9551721,123.630229 89.1878884,122.105245 C89.3918279,120.772139 90.5103674,119.801467 91.8090744,119.732491 L91.6964698,120.471155 C90.8006372,120.585278 90.0486884,121.280048 89.907307,122.214352 C89.7346465,123.345548 90.5166233,124.406516 91.6501767,124.579581 C92.435907,124.698721 93.2066233,124.324999 93.6557907,123.720524 C93.780907,123.551221 94.0173767,123.52363 94.1587581,123.67036 L94.1625116,123.675376 L94.188786,123.702967" id="Fill-404" fill="#A7C4DA"></path>
                        <path d="M92.7036558,124.26104 C92.6761302,124.013983 92.7712186,123.743098 92.9638977,123.551221 C93.1528233,123.355581 93.4493488,123.248983 93.7333628,123.291622 C94.0186279,123.335516 94.2688605,123.526139 94.3914744,123.769434 C94.519093,124.010221 94.5291023,124.297409 94.4290093,124.525655 C94.4002326,124.278598 94.3176558,124.065401 94.1875349,123.89986 C94.0549116,123.736827 93.8797488,123.626467 93.6870698,123.60013 C93.4956419,123.567524 93.2942047,123.620196 93.120293,123.736827 C92.9463814,123.854712 92.8037488,124.035303 92.7036558,124.26104" id="Fill-405" fill="#231829"></path>
                        <path d="M94.3464326,119.265967 C94.8231256,119.338704 95.1446744,119.821532 95.0658512,120.344491 C94.9857767,120.868704 94.5353581,121.233647 94.0586651,121.160909 C93.5819721,121.088171 93.2604233,120.604089 93.3392465,120.08113 C93.4193209,119.558171 93.8697395,119.193229 94.3464326,119.265967" id="Fill-406" fill="#231829"></path>
                        <path d="M94.8243767,119.521803 C94.949493,119.661007 94.9582512,119.885491 94.8406419,120.038491 C94.2388326,120.828573 93.227893,121.276286 92.1769163,121.115762 C90.6479953,120.882499 89.592014,119.450319 89.8247302,117.924081 C90.0274186,116.592229 91.1459581,115.621557 92.4446651,115.552581 L92.3333116,116.289991 C91.4362279,116.405368 90.6855302,117.098885 90.5428977,118.034442 C90.3714884,119.164385 91.1534651,120.225352 92.2857674,120.398417 C93.0727488,120.518811 93.8434651,120.145089 94.2913814,119.540614 C94.4177488,119.370057 94.6542186,119.342467 94.7943488,119.49045 L94.7993535,119.495467 L94.8243767,119.521803" id="Fill-407" fill="#A7C4DA"></path>
                        <path d="M93.3392465,120.08113 C93.3117209,119.834073 93.4080605,119.563188 93.6007395,119.371311 C93.7896651,119.175671 94.0849395,119.069073 94.3702047,119.111712 C94.6554698,119.155606 94.9057023,119.344975 95.0270651,119.589524 C95.1546837,119.830311 95.1659442,120.117499 95.0658512,120.344491 C95.0370744,120.098688 94.9544977,119.884237 94.8231256,119.71995 C94.6917535,119.556917 94.5153395,119.445303 94.3226605,119.420221 C94.1324837,119.38636 93.9310465,119.440286 93.7571349,119.555663 C93.5832233,119.674803 93.4405907,119.854139 93.3392465,120.08113" id="Fill-408" fill="#231829"></path>
                        <path d="M94.9832744,115.084803 C95.4599674,115.158794 95.7815163,115.641622 95.7014419,116.164581 C95.6226186,116.68754 95.1709488,117.052483 94.6942558,116.979745 C94.2175628,116.907007 93.896014,116.42418 93.9760884,115.901221 C94.0561628,115.377007 94.5065814,115.012065 94.9832744,115.084803" id="Fill-409" fill="#231829"></path>
                        <path d="M95.4599674,115.341893 C95.5850837,115.481098 95.595093,115.704327 95.4774837,115.858581 C94.8744233,116.648663 93.8647349,117.096376 92.8137581,116.935852 C91.283586,116.702589 90.2276047,115.270409 90.4603209,113.744171 C90.6630093,112.411065 91.7828,111.440393 93.081507,111.372671 L92.9689023,112.110081 C92.0730698,112.225458 91.3211209,112.918975 91.1797395,113.854532 C91.0083302,114.984475 91.790307,116.045442 92.9226093,116.218507 C93.7083395,116.338901 94.4790558,115.963926 94.9282233,115.35945 C95.0533395,115.190147 95.2898093,115.162557 95.4311907,115.31054 L95.4349442,115.314303 L95.4599674,115.341893" id="Fill-410" fill="#A7C4DA"></path>
                        <path d="M93.9760884,115.901221 C93.9485628,115.654163 94.0436512,115.383278 94.2375814,115.191401 C94.4252558,114.994507 94.7217814,114.887909 95.0057953,114.931803 C95.2910605,114.975696 95.5425442,115.165065 95.663907,115.40836 C95.7915256,115.650401 95.802786,115.937589 95.7014419,116.164581 C95.6726651,115.918778 95.5900884,115.704327 95.4599674,115.538786 C95.3273442,115.377007 95.1521814,115.265393 94.9595023,115.240311 C94.7680744,115.20645 94.5666372,115.260376 94.3927256,115.375753 C94.218814,115.494893 94.0761814,115.674229 93.9760884,115.901221" id="Fill-411" fill="#231829"></path>
                        <path d="M95.6188651,110.904893 C96.0955581,110.978885 96.417107,111.461712 96.3382837,111.984671 C96.2582093,112.50763 95.8065395,112.872573 95.3310977,112.799835 C94.8544047,112.727098 94.5328558,112.243016 94.6116791,111.720057 C94.6917535,111.197098 95.1421721,110.832155 95.6188651,110.904893" id="Fill-412" fill="#231829"></path>
                        <path d="M96.0968093,111.161983 C96.2219256,111.299934 96.2306837,111.524417 96.1143256,111.678671 C95.5112651,112.467499 94.5003256,112.916467 93.4493488,112.755942 C91.9204279,112.521426 90.8644465,111.089245 91.0971628,109.564262 C91.2998512,108.231155 92.4183907,107.260483 93.7183488,107.191507 L93.6057442,107.930171 C92.7086605,108.044294 91.9579628,108.739065 91.8165814,109.674622 C91.6439209,110.804565 92.4258977,111.865532 93.5594512,112.038598 C94.3451814,112.157737 95.1158977,111.784016 95.563814,111.17954 C95.6901814,111.010237 95.9266512,110.982647 96.0667814,111.129376 L96.071786,111.134393 L96.0968093,111.161983" id="Fill-413" fill="#A7C4DA"></path>
                        <path d="M94.6116791,111.720057 C94.5841535,111.472999 94.680493,111.202114 94.8731721,111.010237 C95.0620977,110.814598 95.3586233,110.707999 95.6426372,110.751893 C95.9279023,110.794532 96.1781349,110.985155 96.2994977,111.22845 C96.4271163,111.469237 96.4383767,111.756426 96.3382837,111.984671 C96.309507,111.737614 96.2269302,111.524417 96.0955581,111.358876 C95.964186,111.195844 95.7877721,111.085483 95.5963442,111.059147 C95.4049163,111.02654 95.2034791,111.080467 95.0295674,111.195844 C94.8556558,111.313729 94.7117721,111.494319 94.6116791,111.720057" id="Fill-414" fill="#231829"></path>
                        <path d="M96.255707,106.724983 C96.7324,106.797721 97.0539488,107.280548 96.9738744,107.803507 C96.8950512,108.327721 96.4433814,108.692663 95.9666884,108.619926 C95.4912465,108.547188 95.1684465,108.063106 95.2485209,107.540147 C95.3285953,107.017188 95.779014,106.652245 96.255707,106.724983" id="Fill-415" fill="#231829"></path>
                        <path d="M96.7324,106.980819 C96.8575163,107.120024 96.8675256,107.344507 96.7499163,107.497507 C96.1468558,108.287589 95.1359163,108.735303 94.0861907,108.576032 C92.5560186,108.341516 91.5012884,106.909335 91.7327535,105.384352 C91.9354419,104.051245 93.0552326,103.080573 94.3539395,103.011598 L94.2413349,103.750262 C93.3455023,103.864385 92.5948047,104.557901 92.4521721,105.493458 C92.2807628,106.623401 93.0627395,107.684368 94.1950419,107.857434 C94.9807721,107.977827 95.7514884,107.604106 96.2006558,106.99963 C96.3257721,106.829073 96.5622419,106.802737 96.7036233,106.949467 L96.7073767,106.954483 L96.7324,106.980819" id="Fill-416" fill="#A7C4DA"></path>
                        <path d="M95.2485209,107.540147 C95.2209953,107.293089 95.3160837,107.022204 95.510014,106.830327 C95.6976884,106.634688 95.994214,106.528089 96.2782279,106.570729 C96.563493,106.614622 96.8149767,106.803991 96.9363395,107.04854 C97.0639581,107.289327 97.0752186,107.576516 96.9738744,107.803507 C96.9450977,107.557704 96.8625209,107.343253 96.7324,107.178967 C96.5997767,107.015934 96.424614,106.905573 96.2319349,106.879237 C96.040507,106.845376 95.8390698,106.899303 95.6651581,107.01468 C95.4912465,107.133819 95.348614,107.313155 95.2485209,107.540147" id="Fill-417" fill="#231829"></path>
                        <path d="M96.8912977,102.543819 C97.3679907,102.617811 97.6895395,103.100639 97.6107163,103.623598 C97.5306419,104.146557 97.0802233,104.511499 96.6035302,104.438762 C96.1268372,104.366024 95.8052884,103.883196 95.8841116,103.360237 C95.964186,102.836024 96.4146047,102.471081 96.8912977,102.543819" id="Fill-418" fill="#231829"></path>
                        <path d="M97.3692419,102.800909 C97.4943581,102.940114 97.5031163,103.163344 97.3867581,103.317598 C96.7836977,104.10768 95.7727581,104.555393 94.7217814,104.394868 C93.1928605,104.161606 92.1368791,102.729426 92.3695953,101.203188 C92.5722837,99.8713354 93.6908233,98.8994091 94.9907814,98.8316878 L94.8781767,99.5690977 C93.981093,99.6844747 93.2303953,100.377991 93.089014,101.313548 C92.9163535,102.443491 93.6983302,103.504458 94.8318837,103.677524 C95.617614,103.797917 96.3883302,103.422942 96.8362465,102.819721 C96.962614,102.649163 97.1990837,102.621573 97.3404651,102.769557 L97.3442186,102.773319 L97.3692419,102.800909" id="Fill-419" fill="#A7C4DA"></path>
                        <path d="M95.8841116,103.360237 C95.856586,103.11318 95.9529256,102.842294 96.1456047,102.650417 C96.3345302,102.453524 96.6310558,102.346926 96.9150698,102.390819 C97.2003349,102.434712 97.4505674,102.624081 97.5731814,102.86863 C97.6995488,103.109417 97.7108093,103.396606 97.6107163,103.623598 C97.5806884,103.377794 97.4993628,103.163344 97.3679907,102.997803 C97.2366186,102.836024 97.0602047,102.724409 96.8687767,102.699327 C96.6773488,102.665467 96.4759116,102.719393 96.3007488,102.83477 C96.1268372,102.953909 95.9854558,103.133245 95.8841116,103.360237" id="Fill-420" fill="#231829"></path>
                        <path d="M97.5281395,98.3639091 C98.0048326,98.4379009 98.3263814,98.9207288 98.246307,99.4436878 C98.1674837,99.9666468 97.715814,100.331589 97.2391209,100.258852 C96.7636791,100.186114 96.4408791,99.7020321 96.5209535,99.1790731 C96.6010279,98.6561141 97.0514465,98.2911714 97.5281395,98.3639091" id="Fill-421" fill="#231829"></path>
                        <path d="M98.0048326,98.6209993 C98.1299488,98.7589501 98.1399581,98.9834337 98.0223488,99.1376878 C97.4205395,99.9265157 96.4083488,100.375483 95.3586233,100.214958 C93.8284512,99.9804419 92.7737209,98.5482616 93.005186,97.023278 C93.2078744,95.6901714 94.3276651,94.7194993 95.6263721,94.651778 L95.5137674,95.3891878 C94.6179349,95.5033108 93.8672372,96.1980813 93.7246047,97.1336386 C93.5519442,98.2635813 94.3339209,99.3245485 95.4674744,99.4976141 C96.2532047,99.6167534 97.0239209,99.2430321 97.4730884,98.6385567 C97.5982047,98.4692534 97.8359256,98.4416632 97.9760558,98.5883927 L97.9798093,98.5934091 L98.0048326,98.6209993" id="Fill-422" fill="#A7C4DA"></path>
                        <path d="M96.5209535,99.1790731 C96.4921767,98.9320157 96.5885163,98.6611304 96.7824465,98.4692534 C96.9701209,98.2736141 97.2666465,98.1670157 97.5506605,98.2109091 C97.8359256,98.2535485 98.0874093,98.4441714 98.2087721,98.6874665 C98.3351395,98.9282534 98.3476512,99.2154419 98.246307,99.4436878 C98.2175302,99.1978845 98.1349535,98.9834337 98.0035814,98.8178927 C97.8722093,98.65486 97.6970465,98.5444993 97.5043674,98.5181632 C97.3129395,98.4855567 97.1115023,98.5394829 96.9375907,98.65486 C96.7636791,98.7727452 96.6210465,98.9533354 96.5209535,99.1790731" id="Fill-423" fill="#231829"></path>
                        <path d="M98.1637302,94.1839993 C98.6404233,94.256737 98.9619721,94.7395649 98.8818977,95.263778 C98.8030744,95.786737 98.3526558,96.1516796 97.8759628,96.0789419 C97.3992698,96.0062042 97.0777209,95.5221223 97.1577953,94.9991632 C97.2366186,94.4762042 97.6870372,94.1112616 98.1637302,94.1839993" id="Fill-424" fill="#231829"></path>
                        <path d="M98.6416744,94.4410895 C98.7667907,94.5790403 98.7768,94.8035239 98.6591907,94.9565239 C98.0561302,95.7466059 97.0451907,96.194319 95.994214,96.0350485 C94.465293,95.8005321 93.4093116,94.3683518 93.6407767,92.8433682 C93.8447163,91.5102616 94.9632558,90.5395895 96.263214,90.4706141 L96.1506093,91.209278 C95.2535256,91.3234009 94.5028279,92.0169173 94.3601953,92.9524747 C94.188786,94.0824173 94.9707628,95.1446386 96.1043163,95.3177042 C96.8900465,95.4368436 97.6595116,95.0631223 98.1086791,94.4586468 C98.2350465,94.2880895 98.4715163,94.2617534 98.6116465,94.4084829 L98.6166512,94.4134993 L98.6416744,94.4410895" id="Fill-425" fill="#A7C4DA"></path>
                        <path d="M97.1577953,94.9991632 C97.1290186,94.7521059 97.2253581,94.4812206 97.4180372,94.2893436 C97.6069628,94.0937042 97.9022372,93.9871059 98.1875023,94.0297452 C98.4727674,94.0736386 98.7242512,94.2630075 98.845614,94.5075567 C98.9719814,94.7483436 98.9832419,95.0355321 98.8818977,95.263778 C98.8543721,95.0167206 98.7717953,94.8035239 98.6404233,94.6379829 C98.5090512,94.4749501 98.3326372,94.3645895 98.1412093,94.3382534 C97.9485302,94.3043927 97.7483442,94.358319 97.5744326,94.473696 C97.3992698,94.5928354 97.2578884,94.7721714 97.1577953,94.9991632" id="Fill-426" fill="#231829"></path>
                        <path d="M98.8005721,90.0040895 C99.2772651,90.0768272 99.598814,90.559655 99.5187395,91.0826141 C99.4399163,91.6055731 98.9882465,91.9705157 98.5115535,91.897778 C98.0361116,91.8250403 97.7133116,91.3422124 97.793386,90.8192534 C97.8722093,90.2962944 98.3238791,89.9313518 98.8005721,90.0040895" id="Fill-427" fill="#231829"></path>
                        <path d="M99.2772651,90.2599255 C99.4023814,90.3991304 99.4123907,90.6236141 99.2947814,90.7766141 C98.6917209,91.566696 97.6820326,92.0144091 96.6310558,91.8538845 C95.1008837,91.6206223 94.0461535,90.1884419 94.2776186,88.6622042 C94.480307,87.3303518 95.6000977,86.3596796 96.8988047,86.2907042 L96.7862,87.0281141 C95.8903674,87.1434911 95.1396698,87.8370075 94.9970372,88.7725649 C94.8243767,89.9025075 95.6063535,90.9634747 96.739907,91.1365403 C97.5256372,91.2569337 98.2963535,90.8832124 98.7455209,90.278737 C98.8706372,90.1081796 99.1083581,90.0805895 99.2484884,90.2285731 L99.2522419,90.2323354 L99.2772651,90.2599255" id="Fill-428" fill="#A7C4DA"></path>
                        <path d="M97.793386,90.8192534 C97.7646093,90.572196 97.8622,90.3013108 98.0548791,90.1094337 C98.2425535,89.9137944 98.5390791,89.807196 98.8243442,89.8498354 C99.1083581,89.8937288 99.3598419,90.0830977 99.4812047,90.3276468 C99.6088233,90.5684337 99.6200837,90.8556223 99.5187395,91.0826141 C99.4899628,90.8368108 99.407386,90.62236 99.276014,90.4580731 C99.1446419,90.2950403 98.9694791,90.1834255 98.7768,90.1583436 C98.5853721,90.1244829 98.385186,90.1784091 98.2100233,90.2937862 C98.0361116,90.4129255 97.8934791,90.5922616 97.793386,90.8192534" id="Fill-429" fill="#231829"></path>
                        <path d="M99.4361628,85.8229255 C99.9128558,85.8969173 100.235656,86.3797452 100.155581,86.9027042 C100.075507,87.4256632 99.6250884,87.7906059 99.1483953,87.7178682 C98.6717023,87.6451304 98.3501535,87.1623026 98.4289767,86.6380895 C98.5090512,86.1151304 98.9594698,85.7501878 99.4361628,85.8229255" id="Fill-430" fill="#231829"></path>
                        <path d="M99.914107,86.0800157 C100.039223,86.2179665 100.049233,86.4424501 99.9316233,86.5967042 C99.3285628,87.3867862 98.3176233,87.8344993 97.2666465,87.6739747 C95.7377256,87.4407124 94.6817442,86.007278 94.9144605,84.4822944 C95.1171488,83.1491878 96.2356884,82.1785157 97.5343953,82.1107944 L97.4217907,82.8482042 C96.5259581,82.9623272 95.7752605,83.6570977 95.6326279,84.592655 C95.4612186,85.7225977 96.2431953,86.7835649 97.3767488,86.9566304 C98.1624791,87.0770239 98.9331953,86.7020485 99.3811116,86.0975731 C99.5074791,85.9282698 99.7439488,85.9006796 99.8853302,86.0486632 L99.8890837,86.0524255 L99.914107,86.0800157" id="Fill-431" fill="#A7C4DA"></path>
                        <path d="M98.4289767,86.6380895 C98.4014512,86.3910321 98.4977907,86.1214009 98.6904698,85.9282698 C98.8793953,85.7326304 99.1746698,85.6260321 99.4599349,85.6699255 C99.7439488,85.7125649 99.9954326,85.9031878 100.116795,86.1464829 C100.244414,86.3872698 100.255674,86.6744583 100.155581,86.9027042 C100.126805,86.6569009 100.044228,86.4424501 99.9128558,86.2769091 C99.7814837,86.1138764 99.6050698,86.0035157 99.4136419,85.9771796 C99.2209628,85.9445731 99.0207767,85.9984993 98.8468651,86.1138764 C98.6717023,86.2330157 98.5303209,86.4123518 98.4289767,86.6380895" id="Fill-432" fill="#231829"></path>
                        <path d="M100.073005,81.6430157 C100.548447,81.7157534 100.871247,82.1998354 100.791172,82.7227944 C100.712349,83.2457534 100.26193,83.610696 99.783986,83.5379583 C99.307293,83.4652206 98.9857442,82.9811386 99.0658186,82.4581796 C99.1446419,81.9352206 99.5963116,81.570278 100.073005,81.6430157" id="Fill-433" fill="#231829"></path>
                        <path d="M100.549698,81.9001059 C100.674814,82.0380567 100.684823,82.2625403 100.567214,82.4155403 C99.9641535,83.2056223 98.9544651,83.6533354 97.9034884,83.4940649 C96.3733163,83.2595485 95.318586,81.8273682 95.5500512,80.3023845 C95.7527395,78.969278 96.8725302,77.9986059 98.1712372,77.9296304 L98.0586326,78.6682944 C97.1615488,78.7824173 96.4121023,79.4771878 96.2694698,80.4114911 C96.0968093,81.5426878 96.878786,82.603655 98.0123395,82.7767206 C98.7993209,82.89586 99.568786,82.5221386 100.017953,81.9176632 C100.14307,81.74836 100.380791,81.7207698 100.520921,81.8674993 L100.524674,81.8725157 L100.549698,81.9001059" id="Fill-434" fill="#A7C4DA"></path>
                        <path d="M99.0658186,82.4581796 C99.0370419,82.2111223 99.1346326,81.940237 99.3273116,81.74836 C99.514986,81.5527206 99.8115116,81.4461223 100.096777,81.4887616 C100.380791,81.532655 100.632274,81.723278 100.753637,81.9665731 C100.881256,82.20736 100.892516,82.4945485 100.791172,82.7227944 C100.762395,82.475737 100.679819,82.2625403 100.548447,82.0969993 C100.418326,81.9339665 100.241912,81.8236059 100.049233,81.7972698 C99.8578047,81.7634091 99.6576186,81.8173354 99.4824558,81.9339665 C99.3085442,82.0518518 99.1671628,82.2311878 99.0658186,82.4581796" id="Fill-435" fill="#231829"></path>
                        <path d="M136.45807,111.382704 C136.066456,110.975122 134.253521,106.844122 136.983558,105.537352 C136.983558,105.537352 137.027349,104.700868 138.19093,104.55163 C139.355763,104.401139 139.829953,105.719196 139.849972,105.906057 C139.867488,106.094171 136.823409,111.509368 136.64074,111.446663 C136.45807,111.382704 136.45807,111.382704 136.45807,111.382704" id="Fill-436" fill="#2F2646"></path>
                        <path d="M127.020549,109.231926 C127.211977,108.937212 127.668651,108.928434 127.746223,109.213114 C127.754981,109.246975 127.744972,109.397467 127.734963,109.525385 L127.717447,109.710991 L128.067772,109.448885 L127.867586,109.820098 C127.811284,109.929204 127.52727,110.711762 127.245758,110.454671 C127.245758,110.454671 126.745293,109.658319 127.020549,109.231926" id="Fill-437" fill="#EA8D9A"></path>
                        <path d="M127.73246,108.92718 C127.73246,108.92718 127.619856,108.846917 127.57106,109.035032 C127.57106,109.035032 127.533526,108.737811 127.403405,108.745335 C127.263274,108.754114 127.221986,109.027507 127.189456,109.072655 L127.124395,108.964803 C127.04307,109.033778 126.907944,109.361098 126.93547,109.520368 C126.962995,109.679639 127.726205,109.620696 127.726205,109.620696 C127.726205,109.620696 127.790014,109.062622 127.73246,108.92718" id="Fill-438" fill="#EA8D9A"></path>
                        <path d="M124.508214,150.575786 C124.416879,150.291106 125.295195,149.815803 125.833195,149.630196 C125.695567,149.743065 125.529163,149.901081 125.77314,149.939958 C126.12847,149.996393 126.870409,149.795737 127.063088,149.519835 C127.169437,149.695409 127.220735,149.949991 127.240753,150.126819 C127.265777,150.355065 124.56827,150.762647 124.508214,150.575786" id="Fill-439" fill="#231829"></path>
                        <path d="M125.77314,149.939958 C125.529163,149.901081 125.437828,149.745573 125.789405,149.643991 C126.103447,149.552442 126.349926,149.404458 126.404977,149.370598 C126.547609,149.285319 126.573884,149.037007 126.573884,149.037007 L126.861651,148.994368 L127.063088,149.519835 C126.870409,149.795737 126.12847,149.996393 125.77314,149.939958" id="Fill-440" fill="#EA8D9A"></path>
                        <path d="M154.483572,148.241909 C154.163274,148.258212 153.985609,147.268729 153.963088,146.698114 C154.030651,146.863655 154.134498,147.068073 154.240847,146.846098 C154.397242,146.520032 154.418512,145.75127 154.210819,145.485401 C154.408502,145.433983 154.667493,145.457811 154.842656,145.490417 C155.067865,145.531803 154.680005,148.23313 154.483572,148.241909" id="Fill-441" fill="#231829"></path>
                        <path d="M154.240847,146.846098 C154.134498,147.068073 153.959335,147.111967 153.963088,146.744516 C153.966842,146.417196 153.895526,146.137532 153.87926,146.074827 C153.839223,145.913048 153.609009,145.815229 153.609009,145.815229 L153.651549,145.526786 L154.210819,145.485401 C154.418512,145.75127 154.397242,146.520032 154.240847,146.846098" id="Fill-442" fill="#EA8D9A"></path>
                        <path d="M140.549372,118.202491 C141.854335,117.666991 142.740158,116.805426 142.740158,116.805426 L143.981312,117.920319 C151.179251,122.945491 146.826456,135.254467 146.826456,135.254467 L153.944321,145.089106 C154.045665,145.175639 154.409753,146.18268 153.62027,146.131262 L153.333753,146.015885 C152.369107,145.441507 144.375428,139.420581 142.919074,138.029786 C141.02106,136.21636 141.717958,125.37468 141.717958,125.37468 L140.549372,118.202491" id="Fill-443" fill="#231829"></path>
                        <path d="M137.31887,108.448114 C137.31887,108.448114 137.368916,110.109794 137.497786,110.275335 C137.625405,110.44213 138.028279,110.621467 138.174665,110.180024 C138.321051,109.738581 137.885647,108.352803 137.885647,108.352803 L137.31887,108.448114" id="Fill-444" fill="#EA8D9A"></path>
                        <path d="M137.387684,109.653303 C137.626656,109.757393 137.936944,109.784983 138.175916,109.590598 C138.134628,109.292122 138.055805,108.962294 137.990744,108.716491 L137.333884,108.828106 C137.345144,109.066385 137.36266,109.378655 137.387684,109.653303" id="Fill-445" fill="#BA586D"></path>
                        <path d="M136.464326,107.690639 C136.478088,107.513811 136.794633,106.998376 137.072391,106.574491 C137.302605,106.223344 137.776795,106.133048 138.120865,106.372581 C138.655112,106.743794 139.224391,107.186491 139.321981,107.39718 C139.474623,107.727007 139.251916,108.103237 139.093019,108.387917 C138.93287,108.671344 138.54626,109.121565 138.237223,109.251991 C137.95446,109.37113 137.39394,109.287106 137.144958,109.127835 C136.39426,108.650024 136.297921,108.32145 136.464326,107.690639" id="Fill-446" fill="#EA8D9A"></path>
                        <path d="M142.458647,98.1732862 L142.765181,98.1080731 C142.95786,97.8823354 143.354479,97.3844583 143.339465,97.1185895 C143.320698,96.768696 143.090484,96.0651468 142.926581,96.0663993 C142.761428,96.0689091 142.682605,96.8088272 142.661335,96.9731141 C142.641316,97.1236059 141.875605,97.9350075 142.458647,98.1732862" id="Fill-447" fill="#EA8D9A"></path>
                        <path d="M131.81,133.017155 C133.615428,128.340622 137.20126,122.551704 137.20126,122.551704 L136.385502,116.73645 L139.893763,117.004827 C140.830884,116.927073 142.716386,118.904786 142.716386,118.904786 C147.970019,123.794516 141.422684,128.122409 141.422684,128.122409 L136.793381,134.38036 L127.422172,148.999385 L126.363688,149.216344 C126.328656,148.96427 130.831591,135.550434 131.81,133.017155" id="Fill-448" fill="#2F2646"></path>
                        <path d="M142.642567,109.688417 L141.403916,108.514581 C141.403916,108.514581 140.314153,109.336016 139.897516,109.509081 C139.279442,109.764917 137.27633,110.042073 137.27633,110.042073 L135.557233,110.154942 C134.716451,110.228934 134.510009,110.886081 134.686423,111.71504 C135.025488,113.311507 135.329521,115.947622 136.566921,117.787385 C139.982595,118.794426 143.074219,117.359737 143.336963,117.319606 C143.423293,117.088852 142.642567,109.688417 142.642567,109.688417" id="Fill-449" fill="#E0594E"></path>
                        <path d="M135.482163,110.146103 C136.082721,110.132368 135.990135,112.490073 134.987953,113.88463 C134.082112,115.147507 132.959819,117.01486 131.149386,117.357229 C129.810642,117.610557 131.063056,114.925532 131.063056,114.925532 L132.848465,112.309483 C132.848465,112.309483 134.444949,110.169991 135.482163,110.146103" id="Fill-450" fill="#E0594E"></path>
                        <path d="M130.815326,117.357229 C129.45406,117.286999 125.716837,112.612975 126.789084,110.853475 C127.188205,110.200089 127.692423,110.259032 127.692423,110.259032 L132.021447,115.575155 C132.021447,115.575155 132.349251,117.436237 130.815326,117.357229" id="Fill-451" fill="#E0594E"></path>
                        <path d="M140.784591,110.43586 C140.956,111.013999 141.56907,111.942032 142.586265,110.557507 C143.507121,109.305917 146.533684,105.924868 146.30347,104.09263 C146.133312,102.73695 143.9688,104.756048 143.9688,104.756048 L142.032,107.261737 C142.032,107.261737 140.489316,109.440106 140.784591,110.43586" id="Fill-452" fill="#DB3C3A"></path>
                        <path d="M146.15333,104.831294 C146.850228,103.657458 145.046051,97.9462944 142.990391,97.8660321 C142.227181,97.8359337 141.995716,98.2874091 141.995716,98.2874091 L144.005084,104.848852 C144.005084,104.848852 145.3676,106.154368 146.15333,104.831294" id="Fill-453" fill="#DB3C3A"></path>
                        <path d="M142.642567,109.688417 L141.403916,108.514581 C141.403916,108.514581 140.314153,109.336016 139.897516,109.509081 C139.654791,109.609409 139.199367,109.712245 138.735186,109.80254 C138.1584,109.911647 139.91253,114.724876 140.895944,116.80668 C141.151181,117.345942 141.567819,117.853852 141.567819,117.853852 L141.884363,117.776098 C142.700121,117.564155 143.234367,117.334655 143.336963,117.319606 C143.423293,117.088852 142.642567,109.688417 142.642567,109.688417" id="Fill-454" fill="#DB3C3A"></path>
                        <path d="M138.413637,105.250163 C138.262247,105.536098 137.317619,106.051532 137.561595,106.747557 C137.805572,107.444835 138.259744,107.803507 138.447419,108.027991 C138.447419,108.027991 137.505293,108.98236 137.914423,110.354344 C138.323553,111.725073 139.509656,111.684942 139.509656,111.684942 C139.509656,111.684942 138.122116,114.509171 139.952567,116.034155 C141.783019,117.560393 144.476772,116.448007 144.978488,114.624548 C145.478953,112.801089 144.945958,111.108057 143.493358,110.615196 C143.493358,110.615196 143.638493,108.59986 141.611609,108.184753 C141.611609,108.184753 142.576256,105.00436 139.520916,105.13604 C139.520916,105.13604 138.793991,104.531565 138.413637,105.250163" id="Fill-455" fill="#2F2646"></path>
                        <path d="M141.754242,107.022204 C141.729219,106.743794 141.672916,106.467893 141.564065,106.217073 C141.458967,105.962491 141.281302,105.746786 141.068605,105.586262 C140.854656,105.425737 140.598167,105.329171 140.334172,105.276499 C140.070177,105.222573 139.796172,105.227589 139.52467,105.235114 L139.464614,105.217557 L139.458358,105.21254 L139.36327,105.147327 L139.360767,105.146073 L139.339498,105.127262 C139.181851,104.944163 138.987921,104.791163 138.766465,104.713409 C138.545009,104.633147 138.306037,104.631893 138.067065,104.685819 C137.830595,104.734729 137.59913,104.818753 137.42647,104.973007 C137.247553,105.112212 137.119935,105.335442 137.09366,105.542368 L137.09366,105.551147 L137.031102,105.63768 C136.66326,105.813253 136.334205,106.067835 136.097735,106.397663 C135.860014,106.726237 135.708623,107.115007 135.634805,107.522589 C135.559735,107.931426 135.562237,108.354057 135.599772,108.771671 C135.634805,109.191794 135.721135,109.606901 135.826233,110.018245 C135.677344,109.620696 135.568493,109.206844 135.499679,108.785467 C135.430865,108.362835 135.417102,107.927663 135.473405,107.497507 C135.529707,107.068606 135.67234,106.63845 135.93133,106.278524 C136.185316,105.914835 136.541898,105.631409 136.934763,105.43577 L136.872205,105.531081 C136.905986,105.228844 137.058628,104.975516 137.27633,104.793671 C137.494033,104.610573 137.763033,104.51777 138.025777,104.467606 C138.284767,104.412426 138.578791,104.416188 138.839033,104.516516 C139.100526,104.613081 139.32073,104.792417 139.49214,104.999344 L139.469619,104.979278 L139.583474,105.060794 L139.517163,105.038221 C139.801177,105.040729 140.088944,105.049507 140.369205,105.119737 C140.648214,105.187458 140.920967,105.304089 141.144926,105.488442 C141.371386,105.67154 141.53654,105.92236 141.629126,106.190737 C141.722963,106.459114 141.757995,106.74254 141.754242,107.022204" id="Fill-456" fill="#745E99"></path>
                        <polyline id="Fill-457" fill="#EC923D" points="118.207358 32.062237 119.98526 35.6727862 123.852605 36.1731714 121.029981 38.9309337 121.442865 43.103319 117.905828 41.2610485 114.717865 42.8249091 113.654377 42.6982452 115.384735 38.9309337 112.562112 36.1731714 116.463237 35.6050649 117.142619 31.9355731 118.207358 32.062237"></polyline>
                        <polyline id="Fill-458" fill="#F8C74F" points="117.142619 31.9355731 118.887991 35.4784009 122.787865 36.0465075 119.965242 38.8042698 120.632112 42.6982452 117.142619 40.859737 113.654377 42.6982452 114.319995 38.8042698 111.497372 36.0465075 115.398498 35.4784009 117.142619 31.9355731"></polyline>
                        <path d="M62.1602698,68.6819091 L62.0989628,68.8750403 C61.8537349,69.0004501 61.616014,69.1409091 61.3945581,69.2939091 L61.1956233,69.2562862 L61.2331581,69.0568845 C61.4646233,68.8976141 61.7111023,68.7496304 61.9675907,68.6192042 L62.1227349,68.6342534 L62.1602698,68.6819091 Z M64.3460512,68.0147288 L64.229693,68.1802698 C63.8518419,68.2454829 63.484,68.335778 63.1361767,68.4473927 L62.9560093,68.3545895 L63.0485953,68.1739993 C63.4089302,68.0573682 63.7905349,67.9645649 64.1808977,67.8968436 L64.2947535,67.9256878 L64.3460512,68.0147288 Z M66.6344279,67.928196 L66.4830372,68.0636386 C66.1001814,68.042319 65.7198279,68.0398108 65.351986,68.0586223 L65.2018465,67.9219255 L65.3382233,67.7714337 C65.7148233,67.7526223 66.1064372,67.7551304 66.4993023,67.7764501 L66.5806279,67.8078026 L66.6344279,67.928196 Z M68.8965302,68.2893764 L68.7238698,68.3959747 C68.3535256,68.3081878 67.9781767,68.2367042 67.6103349,68.1802698 L67.4902233,68.017237 L67.6528744,67.8968436 C68.0282233,67.9520239 68.4110791,68.0272698 68.7901814,68.1163108 L68.8464837,68.1439009 L68.8965302,68.2893764 Z M71.0873163,68.9640813 L70.9046465,69.0506141 C70.5205395,68.9151714 70.1652093,68.7972862 69.8211395,68.693196 L69.7260512,68.51386 L69.9049674,68.4185485 C70.2527907,68.5238927 70.6106233,68.641778 70.9997349,68.7797288 L71.0422744,68.8035567 L71.0873163,68.9640813 Z M73.2268047,69.7942944 L73.0391302,69.8733026 C72.6850512,69.7303354 72.3309721,69.5886223 71.9756419,69.4506714 L71.8930651,69.2638108 L72.0794884,69.1822944 C72.4360698,69.3202452 72.7914,69.4632124 73.1467302,69.6061796 L73.1817628,69.6274993 L73.2268047,69.7942944 Z M75.358786,70.6408108 L75.173614,70.7235813 C74.8157814,70.5881386 74.4592,70.4464255 74.1026186,70.3034583 L74.0237953,70.1165977 L74.2102186,70.0363354 C74.5630465,70.1793026 74.9183767,70.3197616 75.2749581,70.4552042 L75.3137442,70.4765239 L75.358786,70.6408108 Z M77.533307,71.3669337 L77.3556419,71.4647534 C76.9903023,71.358155 76.6199581,71.2415239 76.2558698,71.1161141 L76.1670372,70.9330157 L76.3484558,70.8439747 C76.7087907,70.9668764 77.0753814,71.0835075 77.4357163,71.1888518 L77.4845116,71.2139337 L77.533307,71.3669337 Z M79.7666326,71.8898927 L79.5989767,72.0040157 C79.2261302,71.9337862 78.8457767,71.8522698 78.4704279,71.7619747 L78.3653302,71.587655 L78.5379907,71.4823108 C78.9083349,71.5713518 79.2836837,71.6528682 79.6515256,71.7218436 L79.7140837,71.7506878 L79.7666326,71.8898927 Z M82.0399953,72.1795895 L81.8861023,72.3125239 C81.5057488,72.2824255 81.1203907,72.2397862 80.738786,72.1883682 L80.6149209,72.0265895 L80.7763209,71.9036878 C81.1529209,71.9551059 81.5345256,71.9964911 81.9086233,72.0253354 L81.9861953,72.0554337 L82.0399953,72.1795895 Z M84.3308744,72.2021632 L84.1944977,72.352655 C83.8153953,72.3689583 83.4262837,72.3739747 83.0384233,72.3664501 L82.898293,72.2209747 L83.0446791,72.0792616 C83.4250326,72.0867862 83.8078884,72.0817698 84.1807349,72.0654665 L84.2770744,72.096819 L84.3308744,72.2021632 Z M86.6042372,71.9224993 L86.4903814,72.0892944 C86.1162837,72.1595239 85.7321767,72.2172124 85.3468186,72.2611059 L85.1879209,72.1344419 L85.3142884,71.9751714 C85.6921395,71.9325321 86.0699907,71.8760977 86.4378326,71.8071223 L86.5529395,71.8359665 L86.6042372,71.9224993 Z M88.8112884,71.3029747 L88.7249581,71.4873272 C88.3646233,71.6152452 87.9917767,71.7318764 87.6189302,71.8322042 L87.4437674,71.7306223 L87.5438605,71.5550485 C87.9104512,71.4559747 88.2757907,71.3431059 88.6286186,71.2164419 L88.7662465,71.2402698 L88.8112884,71.3029747 Z M90.8794605,70.3159993 L90.8269116,70.5128927 C90.4941023,70.7060239 90.1487814,70.8866141 89.7984558,71.0483927 L89.6082791,70.9781632 L89.6783442,70.7875403 C90.0186605,70.6295239 90.3577256,70.4539501 90.6830279,70.2645813 L90.8444279,70.2758682 L90.8794605,70.3159993 Z M85.1754093,63.2566796 C85.4218884,63.5388518 85.6921395,63.8022124 85.9811581,64.0417452 L85.9999256,64.243655 L85.7972372,64.2624665 C85.4982093,64.014155 85.2166977,63.7395075 84.9602093,63.4473026 L84.9727209,63.2441386 L85.1566419,63.2391223 L85.1754093,63.2566796 Z M87.9830186,65.3848845 L87.794093,65.4563682 C87.5376047,65.3422452 87.2811163,65.2180895 87.033386,65.0889173 L86.7556279,64.9346632 L86.7043302,64.7377698 L86.8995116,64.6863518 L87.1660093,64.8343354 C87.4087349,64.9609993 87.6602186,65.0813927 87.9104512,65.1942616 L87.9417302,65.2130731 L87.9830186,65.3848845 Z M92.736186,68.9716059 L92.7199209,69.1735157 C92.4258977,69.4243354 92.1181116,69.6638682 91.8028186,69.8858436 L91.6038837,69.8519829 L91.6376651,69.6513272 C91.9467023,69.4343682 92.2469814,69.1998518 92.5334977,68.9553026 L92.7161674,68.9515403 L92.736186,68.9716059 Z M83.9905581,61.3567206 C84.1306884,61.7003436 84.3046,62.0351878 84.5035349,62.356237 L84.458493,62.5531304 L84.2608093,62.5079829 C84.0518651,62.1743927 83.8716977,61.8244993 83.7253116,61.4658272 L83.8041349,61.2789665 L83.9467674,61.2990321 L83.9905581,61.3567206 Z M90.1525349,66.1210403 L89.9773721,66.2238764 C89.6045256,66.1260567 89.2316791,66.0119337 88.870093,65.8852698 L88.7825116,65.7021714 L88.9651814,65.6143845 C89.3192605,65.7385403 89.6846,65.850155 90.0499395,65.9454665 L90.1024884,65.9718026 L90.1525349,66.1210403 Z M92.4121349,66.499778 L92.2557395,66.6289501 C91.8703814,66.5913272 91.4850233,66.538655 91.1084233,66.4721878 L90.9920651,66.3053927 L91.1584698,66.1887616 C91.5275628,66.2539747 91.905414,66.3053927 92.2832651,66.3430157 L92.3583349,66.3731141 L92.4121349,66.499778 Z M83.5276279,59.1720813 C83.5376372,59.5458026 83.5814279,59.9195239 83.659,60.2857206 L83.5488977,60.4550239 L83.3787395,60.3459173 C83.297414,59.9621632 83.2511209,59.5708845 83.2411116,59.1796059 L83.3799907,59.0328764 L83.4725767,59.0642288 L83.5276279,59.1720813 Z M94.3176558,67.3111796 L94.3389256,67.5130895 C94.0974512,67.8115649 93.8384605,68.1037698 93.5669581,68.3809255 L93.3642698,68.3834337 L93.3617674,68.1802698 C93.627014,67.9093845 93.8797488,67.6234501 94.1149674,67.3324993 L94.3164047,67.3111796 L94.3176558,67.3111796 Z M94.703014,66.5148272 L94.5691395,66.6665731 C94.1850326,66.691655 93.7959209,66.7004337 93.4105628,66.6941632 L93.2704326,66.5474337 L93.4155674,66.4069747 C93.7934186,66.4132452 94.1750233,66.4044665 94.5503721,66.3806386 L94.649214,66.410737 L94.703014,66.5148272 Z M83.8516791,56.9585977 C83.7365721,57.3210321 83.6502419,57.689737 83.5951907,58.0521714 L83.4325395,58.173819 L83.3124279,58.0107862 C83.3687302,57.6320485 83.458814,57.2482944 83.5789256,56.8708108 L83.759093,56.7780075 L83.8041349,56.8018354 L83.8516791,56.9585977 Z M95.6076047,65.5679829 C95.4324419,65.9090977 95.2360093,66.2477042 95.0220605,66.5737698 L94.8231256,66.615155 L94.7830884,66.4157534 C94.9907814,66.0972124 95.1822093,65.7686386 95.3523674,65.4375567 L95.5450465,65.3748518 L95.5700698,65.3899009 L95.6076047,65.5679829 Z M96.9663674,66.1611714 L96.8587674,66.3329829 C96.4834186,66.4195157 96.1005628,66.4909993 95.7202093,66.5461796 L95.5575581,66.4245321 L95.6789209,66.2627534 C96.0530186,66.2088272 96.4283674,66.1385977 96.7949581,66.053319 L96.9163209,66.0809091 L96.9663674,66.1611714 Z M84.8213302,54.9257042 C84.6136372,55.2530239 84.4284651,55.5841059 84.2695674,55.9114255 L84.0781395,55.9791468 L84.0118279,55.7872698 C84.1744791,55.4499173 84.365907,55.1075485 84.5798558,54.7714501 L84.7787907,54.7275567 L84.7900512,54.7350813 L84.8213302,54.9257042 Z M96.4308698,63.3933764 C96.3370326,63.7658436 96.2194233,64.1395649 96.0817953,64.5045075 L95.8966233,64.5885321 L95.8127953,64.4029255 C95.9479209,64.0492698 96.0617767,63.6855813 96.1518605,63.3231468 L96.3257721,63.2190567 L96.3795721,63.2453927 L96.4308698,63.3933764 Z M99.1408884,65.4400649 L99.0633163,65.6269255 C98.707986,65.7761632 98.3413953,65.9103518 97.9748047,66.0269829 L97.7958884,65.9341796 L97.8884744,65.7535895 C98.2475581,65.6394665 98.6053907,65.5065321 98.953214,65.3623108 L99.0970977,65.3823764 L99.1408884,65.4400649 Z M86.5541907,53.3192042 L86.4866279,53.5110813 C86.1388047,53.6741141 85.8235116,53.8722616 85.549507,54.1017616 L85.3480698,54.0829501 L85.3668372,53.8810403 C85.6583581,53.6364911 85.9949209,53.4245485 86.364014,53.2502288 L86.5141535,53.2677862 L86.5541907,53.3192042 Z M96.7048744,61.0795649 C96.7073767,61.2563927 96.7048744,61.4319665 96.6961163,61.6087944 C96.686107,61.8219911 96.6660884,62.0364419 96.6410651,62.2458764 L96.4821674,62.3712862 L96.3570512,62.2107616 C96.3808233,62.0088518 96.3995907,61.8006714 96.4096,61.5949993 C96.4183581,61.4244419 96.4208605,61.2551386 96.4183581,61.0845813 L96.5597395,60.9378518 L96.6510744,60.9692042 L96.7048744,61.0795649 Z M101.164019,64.3602862 L101.117726,64.5571796 C100.7674,64.7728845 100.428335,64.9672698 100.113042,65.1328108 L99.9203628,65.0726141 L99.9791674,64.8782288 C100.289456,64.715196 100.622265,64.5245731 100.967586,64.3126304 L101.131488,64.3226632 L101.164019,64.3602862 Z M88.7862651,52.8489173 L88.6486372,52.9994091 C88.2720372,53.0144583 87.8991907,53.0646223 87.5413581,53.1486468 L87.3686977,53.0407944 L87.4762977,52.8689829 C87.8528977,52.781196 88.2432605,52.7285239 88.6373767,52.7122206 L88.7324651,52.7435731 L88.7862651,52.8489173 Z M96.3332791,58.7782944 C96.4471349,59.1520157 96.5359674,59.5357698 96.5985256,59.9145075 L96.4809163,60.0800485 L96.3157628,59.9609091 C96.255707,59.5947124 96.1693767,59.2247534 96.0592744,58.862319 L96.1531116,58.6829829 L96.2844837,58.7080649 L96.3332791,58.7782944 Z M103.060781,63.0648026 L103.028251,63.2654583 C102.705451,63.5012288 102.388907,63.7244583 102.086126,63.9301304 L101.887191,63.8912534 L101.925977,63.6918518 C102.225005,63.4886878 102.540298,63.2667124 102.860595,63.0334501 L103.033256,63.0372124 L103.060781,63.0648026 Z M95.3736372,56.6576141 C95.5763256,56.9874419 95.7602465,57.3348272 95.9203953,57.6872288 L95.8490791,57.8765977 L95.6589023,57.8063682 C95.5050093,57.4639993 95.326093,57.1279009 95.1296605,56.8081059 L95.1772047,56.6099583 L95.341107,56.6199911 L95.3736372,56.6576141 Z M91.0383581,53.2151141 L90.8581907,53.3066632 C90.5003581,53.1912862 90.1325163,53.1060075 89.7671767,53.0545895 L89.6445628,52.8928108 L89.807214,52.7699091 C90.1888186,52.8238354 90.5729256,52.9128764 90.9470233,53.0332698 L90.9920651,53.0583518 L91.0383581,53.2151141 Z M93.9147814,54.8441878 C94.1925395,55.1100567 94.457786,55.3997534 94.7017628,55.7032452 L94.680493,55.9064091 L94.4790558,55.8838354 C94.242586,55.5891223 93.9860977,55.3094583 93.7170977,55.0511141 L93.712093,54.8479501 L93.9047721,54.8354091 L93.9147814,54.8441878 Z M93.0514791,54.2961468 L92.8525442,54.3300075 C92.5447581,54.106778 92.2219581,53.9086304 91.8941535,53.7393272 L91.8315953,53.546196 L92.0255256,53.4847452 C92.3658419,53.6590649 92.7011535,53.8659911 93.0202,54.0967452 L93.0252047,54.1005075 L93.0514791,54.2961468 Z M104.872465,61.6539419 L104.851195,61.8545977 C104.549665,62.1004009 104.249386,62.3399337 103.949107,62.5719419 L103.748921,62.5456059 L103.773944,62.3449501 C104.071721,62.114196 104.370749,61.8759173 104.671028,61.6313682 L104.849944,61.6313682 L104.872465,61.6539419 Z M106.617837,60.1603108 L106.605326,60.3622206 C106.317558,60.6180567 106.027288,60.8701304 105.735767,61.1184419 L105.53433,61.1021386 L105.550595,60.8989747 C105.839614,60.6519173 106.128633,60.4010977 106.415149,60.1477698 L106.59907,60.1414993 L106.617837,60.1603108 Z M108.300651,58.5964501 L108.296898,58.7996141 C108.022893,59.0629747 107.742633,59.3275895 107.458619,59.589696 L107.25593,59.5809173 L107.264688,59.3777534 C107.547451,59.118155 107.825209,58.8547944 108.097963,58.5926878 L108.286888,58.582655 L108.300651,58.5964501 Z M109.915902,56.96236 L109.920907,57.1655239 C109.661916,57.4389173 109.394167,57.7135649 109.11766,57.9919747 L108.914972,57.9919747 L108.914972,57.7888108 C109.188977,57.5129091 109.455474,57.2382616 109.713214,56.9673764 L109.905893,56.9535813 L109.915902,56.96236 Z M111.44107,55.2429911 L111.458586,55.446155 C111.222116,55.7295813 110.96813,56.0230403 110.702884,56.3177534 L110.500195,56.3277862 L110.488935,56.1258764 C110.751679,55.8324173 111.004414,55.5414665 111.238381,55.2618026 L111.438567,55.2404829 L111.44107,55.2429911 Z M112.846126,53.5976141 C112.738526,53.7568845 112.630926,53.9136468 112.520823,54.0704091 C112.413223,54.2234091 112.300619,54.3801714 112.178005,54.5419501 L111.977819,54.5695403 L111.974065,54.5670321 L111.949042,54.3676304 C112.069153,54.2096141 112.180507,54.05536 112.285605,53.9048682 C112.394456,53.7506141 112.502056,53.5938518 112.608405,53.4370895 L112.80734,53.3982124 L112.816098,53.4044829 L112.846126,53.5976141 Z M114.069763,51.6399665 C113.875833,51.9735567 113.675647,52.3058927 113.474209,52.6294501 L113.276526,52.6745977 L113.231484,52.4764501 C113.430419,52.156655 113.630605,51.8268272 113.822033,51.4957452 L114.018465,51.4430731 L114.03473,51.4556141 L114.069763,51.6399665 Z M115.162028,49.605819 C114.990619,49.950696 114.814205,50.2930649 114.632786,50.6316714 L114.438856,50.6906141 L114.380051,50.4962288 C114.560219,50.1601304 114.735381,49.8202698 114.904288,49.479155 L115.096967,49.4139419 L115.121991,49.4289911 L115.162028,49.605819 Z M116.117916,47.5052042 C115.970279,47.8601141 115.816386,48.2137698 115.657488,48.5636632 L115.467312,48.6351468 L115.395995,48.4445239 C115.553642,48.0971386 115.706284,47.7472452 115.853921,47.3948436 L116.041595,47.3170895 L116.075377,47.337155 L116.117916,47.5052042 Z M116.937428,45.3494091 C116.812312,45.7118436 116.682191,46.074278 116.545814,46.4342042 L116.360642,46.5169747 L116.276814,46.3313682 C116.41194,45.9752042 116.54206,45.615278 116.665926,45.2553518 L116.848595,45.1663108 L116.891135,45.1888845 L116.937428,45.3494091 Z M117.616809,43.1434501 C117.515465,43.5146632 117.407865,43.8833682 117.29526,44.2520731 L117.115093,44.3461304 L117.021256,44.1667944 C117.132609,43.8018518 117.238958,43.435655 117.340302,43.0669501 L117.516716,42.9666223 L117.568014,42.9929583 L117.616809,43.1434501 L117.616809,43.1434501 Z" id="Fill-502" fill="#A7C4DA"></path>
                    </g>
                </g>
            </g>
        </g>
    </g>
</svg>