<?xml version="1.0" encoding="UTF-8"?>
<svg width="79px" height="72px" viewBox="0 0 79 72" version="1.1" xmlns="http://www.w3.org/2000/svg" xmlns:xlink="http://www.w3.org/1999/xlink">
    <title>Education/Pen Copy 3</title>
    <g id="design" stroke="none" stroke-width="1" fill="none" fill-rule="evenodd">
        <g id="Full-method" transform="translate(-830.000000, -4175.000000)" fill="#252763" fill-rule="nonzero">
            <g id="Group-10" transform="translate(760.000000, 4102.000000)">
                <g id="Education/Pen-Copy-3" transform="translate(59.000000, 61.000000)">
                    <g id="Path-2" opacity="0.400000006" transform="translate(24.500000, 51.458333)">
                        <path d="M26.95,14.25 C25.414366,15.0244809 23.585634,15.0244809 22.05,14.25 L1.225,0 C0.41777898,2.5662423 0.00501311834,5.23377679 0,7.91666667 C0,21.0334295 10.9690236,31.6666667 24.5,31.6666667 C38.0309764,31.6666667 49,21.0334295 49,7.91666667 C48.9949869,5.23377679 48.582221,2.5662423 47.775,0 L26.95,14.25 Z" id="Path"></path>
                    </g>
                    <path d="M46.55,13.4583333 L13.0666667,36.4166667 C11.8437294,37.0276596 11.0752681,38.2496454 11.0752681,39.5833333 C11.0752681,40.9170213 11.8437294,42.1390071 13.0666667,42.75 L46.55,65.7083333 C48.085634,66.4828142 49.914366,66.4828142 51.45,65.7083333 L75.1333333,49.4791667 C76.3706554,48.579583 78.0260874,48.4348823 79.4094555,49.1053924 C80.7928236,49.7759024 81.6666667,51.1465273 81.6666667,52.6458333 L81.6666667,67.2916667 C81.5336303,68.3759133 81.9208619,69.4594214 82.7173259,70.2315038 C83.5137898,71.0035863 84.631514,71.3789638 85.75,71.25 L85.75,71.25 C86.868486,71.3789638 87.9862102,71.0035863 88.7826741,70.2315038 C89.5791381,69.4594214 89.9663697,68.3759133 89.8333333,67.2916667 L89.8333333,41.5625 C89.7302004,40.3423452 89.145069,39.2079069 88.2,38.3958333 L51.45,13.4583333 C49.914366,12.6838525 48.085634,12.6838525 46.55,13.4583333 L46.55,13.4583333 Z" id="Path"></path>
                </g>
            </g>
        </g>
    </g>
</svg>