<?xml version="1.0" encoding="UTF-8"?>
<svg width="66px" height="81px" viewBox="0 0 66 81" version="1.1" xmlns="http://www.w3.org/2000/svg" xmlns:xlink="http://www.w3.org/1999/xlink">
    <title>Education/Pen Copy 2</title>
    <g id="design" stroke="none" stroke-width="1" fill="none" fill-rule="evenodd">
        <g id="Full-method" transform="translate(-514.000000, -4170.000000)" fill="#623E87" fill-rule="nonzero">
            <g id="Group-11" transform="translate(438.000000, 4102.000000)">
                <g id="Education/Pen-Copy-2" transform="translate(60.000000, 61.000000)">
                    <g id="Group" opacity="0.400000006" transform="translate(32.666667, 7.916667)">
                        <path d="M16.3333333,3.98329577 L16.3333333,7.9416291 L1.16055314e-13,7.9416291 L1.16055314e-13,3.98329577 C1.16055314e-13,1.79716863 1.8281706,0.0249624339 4.08333333,0.0249624339 L12.25,0.0249624339 C13.368486,-0.104001359 14.4862102,0.271376183 15.2826741,1.04345858 C16.0791381,1.81554099 16.4663697,2.89904911 16.3333333,3.98329577 L16.3333333,3.98329577 Z" id="Path"></path>
                        <path d="M2.32110627e-13,43.5666291 L2.32110627e-13,39.6082958 L16.3333333,39.6082958 L16.3333333,43.5666291 C16.4663697,44.6508758 16.0791381,45.7343839 15.2826741,46.5064663 C14.4862102,47.2785487 13.368486,47.6539262 12.25,47.5249624 L4.08333333,47.5249624 C3.000366,47.5249624 1.96175419,47.1079249 1.19598064,46.3655934 C0.430207098,45.6232619 2.32110627e-13,44.6164444 2.32110627e-13,43.5666291 Z" id="Path"></path>
                    </g>
                    <path d="M81.6666667,75.2332958 L81.6666667,83.1499624 C81.799703,84.2342091 81.4124714,85.3177172 80.6160075,86.0897996 C79.8195435,86.861882 78.7018194,87.2372596 77.5833333,87.1082958 L20.4166667,87.1082958 C18.1615039,87.1082958 16.3333333,85.3360896 16.3333333,83.1499624 L16.3333333,75.2332958 C16.3333333,73.0471686 18.1615039,71.2749624 20.4166667,71.2749624 L66.5583333,71.2749624 C67.803173,68.7788159 68.6301872,66.1064909 69.0083333,63.3582958 C69.5583339,60.7463371 69.5583339,58.0535877 69.0083333,55.4416291 C67.776203,46.2586176 61.7610247,38.3343835 53.0833333,34.4624624 L53.0833333,43.5666291 C53.2163697,44.6508758 52.8291381,45.7343839 52.0326741,46.5064663 C51.2362102,47.2785487 50.118486,47.6539262 49,47.5249624 L32.6666667,47.5249624 C30.4115039,47.5249624 28.5833333,45.7527562 28.5833333,43.5666291 L28.5833333,19.8166291 C28.5833333,17.630502 30.4115039,15.8582958 32.6666667,15.8582958 L49,15.8582958 C50.118486,15.729332 51.2362102,16.1047095 52.0326741,16.8767919 C52.8291381,17.6488743 53.2163697,18.7323824 53.0833333,19.8166291 L53.0833333,25.7541291 C67.7107427,30.8915367 77.4879999,44.3186374 77.5833333,59.3999624 C77.5722531,63.439487 76.8826735,67.4503069 75.5416667,71.2749624 L77.5833333,71.2749624 C78.7018194,71.1459986 79.8195435,71.5213762 80.6160075,72.2934586 C81.4124714,73.065541 81.799703,74.1490491 81.6666667,75.2332958 L81.6666667,75.2332958 Z" id="Path"></path>
                </g>
            </g>
        </g>
    </g>
</svg>