<?xml version="1.0" encoding="UTF-8"?>
<svg width="177px" height="115px" viewBox="0 0 177 115" version="1.1" xmlns="http://www.w3.org/2000/svg" xmlns:xlink="http://www.w3.org/1999/xlink">
    <title>illustration 3</title>
    <g id="design" stroke="none" stroke-width="1" fill="none" fill-rule="evenodd">
        <g id="Mobile-Alt---Timeline-" transform="translate(-172.000000, -2251.000000)">
            <g id="Group-23" transform="translate(15.000000, 2230.000000)">
                <g id="illustration-3" transform="translate(157.000000, 21.000000)">
                    <path d="M169.512719,111.10932 C169.512719,112.86008 131.566087,114.27964 84.7559082,114.27964 C37.9466327,114.27964 3.84998156e-13,112.86008 3.84998156e-13,111.10932 C3.84998156e-13,109.35948 37.9466327,107.93992 84.7559082,107.93992 C131.566087,107.93992 169.512719,109.35948 169.512719,111.10932" id="Fill-844-Copy" fill="#D4E9EE"></path>
                    <path d="M126.979439,44.89416 L51.8745459,44.89416 C50.0639082,44.89416 48.5964337,46.38916 48.5964337,48.23376 L48.5964337,98.2146 C48.5964337,100.0592 50.0639082,101.55512 51.8745459,101.55512 L82.96875,101.55512 L81.3640102,108.93444 L79.2255612,108.93444 C78.1734949,108.93444 77.320102,109.80292 77.320102,110.87564 L101.533883,110.87564 C101.533883,109.80292 100.681393,108.93444 99.6284235,108.93444 L97.5224847,108.93444 L96.1895663,101.55512 L126.979439,101.55512 C128.790077,101.55512 130.258454,100.0592 130.258454,98.2146 L130.258454,48.23376 C130.258454,46.38916 128.790077,44.89416 126.979439,44.89416" id="Fill-845-Copy" fill="#745E99"></path>
                    <polyline id="Fill-846-Copy" fill="#BDACC8" points="95.8120867 109.802 79.3086429 109.802 82.2038571 96.485 93.4072347 96.485 95.8120867 109.802"></polyline>
                    <path d="M99.6672551,110.87564 L75.4534745,110.87564 C75.4534745,109.80292 76.3059643,108.93444 77.3589337,108.93444 L97.7617959,108.93444 C98.8147653,108.93444 99.6672551,109.80292 99.6672551,110.87564" id="Fill-847-Copy" fill="#BDACC8"></path>
                    <path d="M125.031536,101.55512 L50.0891939,101.55512 C48.2334031,101.55512 46.7298061,100.0224 46.7298061,98.13272 L46.7298061,48.31656 C46.7298061,46.42596 48.2334031,44.89416 50.0891939,44.89416 L123.679653,44.89416 C126.282276,44.89416 128.390923,47.04328 128.390923,49.6938 L128.390923,98.13272 C128.390923,100.0224 126.887327,101.55512 125.031536,101.55512" id="Fill-848-Copy" fill="#D4C9DA"></path>
                    <path d="M128.390923,94.75448 L46.7298061,94.75448 L46.7298061,49.12064 C46.7298061,46.7866 48.5874031,44.89416 50.8784694,44.89416 L124.24226,44.89416 C126.533327,44.89416 128.390923,46.7866 128.390923,49.12064 L128.390923,94.75448" id="Fill-849-Copy" fill="#BDACC8"></path>
                    <polygon id="Fill-850-Copy" fill="#EEE8EE" points="50.0575867 91.44432 124.871694 91.44432 124.871694 48.23744 50.0575867 48.23744"></polygon>
                    <polygon id="Fill-851-Copy" fill="#EEE8EE" points="106.506138 96.3194 110.862505 96.3194 110.862505 95.41044 106.506138 95.41044"></polygon>
                    <polygon id="Fill-852-Copy" fill="#EEE8EE" points="114.981367 96.3194 119.337735 96.3194 119.337735 95.41044 114.981367 95.41044"></polygon>
                    <polygon id="Fill-853-Copy" fill="#EEE8EE" points="120.515327 96.3194 124.871694 96.3194 124.871694 95.41044 120.515327 95.41044"></polygon>
                    <polygon id="Fill-854-Copy" fill="#2F2646" points="51.1593214 88.12772 123.40151 88.12772 123.40151 51.3728 51.1593214 51.3728"></polygon>
                    <polygon id="Fill-855-Copy" fill="#3C6771" points="51.521449 57.76128 123.763638 57.76128 123.763638 54.4226 51.521449 54.4226"></polygon>
                    <path d="M54.9133469,56.2258 C54.9133469,56.72352 54.5178061,57.12648 54.0283469,57.12648 C53.5397908,57.12648 53.1433469,56.72352 53.1433469,56.2258 C53.1433469,55.72716 53.5397908,55.32328 54.0283469,55.32328 C54.5178061,55.32328 54.9133469,55.72716 54.9133469,56.2258" id="Fill-856-Copy" fill="#2F2646"></path>
                    <path d="M57.3064592,56.2258 C57.3064592,56.72352 56.9100153,57.12648 56.4214592,57.12648 C55.932,57.12648 55.5364592,56.72352 55.5364592,56.2258 C55.5364592,55.72716 55.932,55.32328 56.4214592,55.32328 C56.9100153,55.32328 57.3064592,55.72716 57.3064592,56.2258" id="Fill-857-Copy" fill="#2F2646"></path>
                    <path d="M59.6986684,56.2258 C59.6986684,56.72352 59.3031276,57.12648 58.8145714,57.12648 C58.3260153,57.12648 57.9286684,56.72352 57.9286684,56.2258 C57.9286684,55.72716 58.3260153,55.32328 58.8145714,55.32328 C59.3031276,55.32328 59.6986684,55.72716 59.6986684,56.2258" id="Fill-858-Copy" fill="#2F2646"></path>
                    <polygon id="Fill-859-Copy" fill="#EEE8EE" points="50.0575867 52.71876 124.871694 52.71876 124.871694 48.0608 50.0575867 48.0608"></polygon>
                    <polygon id="Fill-860-Copy" fill="#3C6771" points="55.2167755 63.60512 66.0833112 63.60512 66.0833112 62.6704 55.2167755 62.6704"></polygon>
                    <polygon id="Fill-861-Copy" fill="#3C6771" points="55.2167755 66.25564 61.3630102 66.25564 61.3630102 65.32 55.2167755 65.32"></polygon>
                    <polygon id="Fill-862-Copy" fill="#3C6771" points="62.87925 66.25564 67.0577143 66.25564 67.0577143 65.32 62.87925 65.32"></polygon>
                    <polygon id="Fill-863-Copy" fill="#3C6771" points="55.2167755 73.86772 59.3961429 73.86772 59.3961429 72.933 55.2167755 72.933"></polygon>
                    <polygon id="Fill-864-Copy" fill="#3C6771" points="72.908648 69.01472 81.7414898 69.01472 81.7414898 68.07908 72.908648 68.07908"></polygon>
                    <polygon id="Fill-865-Copy" fill="#3C6771" points="55.2167755 71.21904 64.0505204 71.21904 64.0505204 70.2834 55.2167755 70.2834"></polygon>
                    <polygon id="Fill-866-Copy" fill="#3C6771" points="71.5567653 79.0326 80.3896071 79.0326 80.3896071 78.09696 71.5567653 78.09696"></polygon>
                    <polygon id="Fill-867-Copy" fill="#3C6771" points="59.3880153 76.02696 68.2217602 76.02696 68.2217602 75.09224 59.3880153 75.09224"></polygon>
                    <polygon id="Fill-868-Copy" fill="#3C6771" points="66.4436327 73.86772 82.0376939 73.86772 82.0376939 72.933 66.4436327 72.933"></polygon>
                    <polygon id="Fill-869-Copy" fill="#3C6771" points="68.2217602 66.25564 70.5317908 66.25564 70.5317908 65.32 68.2217602 65.32"></polygon>
                    <polygon id="Fill-870-Copy" fill="#3C6771" points="107.685536 62.31344 118.551168 62.31344 118.551168 61.3778 107.685536 61.3778"></polygon>
                    <polygon id="Fill-871-Copy" fill="#3C6771" points="112.404934 64.96396 118.551168 64.96396 118.551168 64.02832 112.404934 64.02832"></polygon>
                    <polygon id="Fill-872-Copy" fill="#3C6771" points="106.71023 64.96396 110.889597 64.96396 110.889597 64.02832 106.71023 64.02832"></polygon>
                    <polygon id="Fill-873-Copy" fill="#3C6771" points="103.236153 64.96396 105.547087 64.96396 105.547087 64.02832 103.236153 64.02832"></polygon>
                    <polygon id="Fill-874-Copy" fill="#3C6771" points="62.452102 73.86772 64.7639388 73.86772 64.7639388 72.933 62.452102 72.933"></polygon>
                    <polygon id="Fill-875-Copy" fill="#3C6771" points="55.2167755 76.02696 57.5277092 76.02696 57.5277092 75.09224 55.2167755 75.09224"></polygon>
                    <polygon id="Fill-876-Copy" fill="#3C6771" points="67.0658418 71.21904 69.3767755 71.21904 69.3767755 70.2834 67.0658418 70.2834"></polygon>
                    <polygon id="Fill-877-Copy" fill="#3C6771" points="104.319827 86.9124 113.153571 86.9124 113.153571 85.9786 104.319827 85.9786"></polygon>
                    <polygon id="Fill-878-Copy" fill="#3C6771" points="116.168893 86.9124 118.479827 86.9124 118.479827 85.9786 116.168893 85.9786"></polygon>
                    <polygon id="Fill-879-Copy" fill="#3C6771" points="55.2167755 69.01472 70.5399184 69.01472 70.5399184 68.07908 55.2167755 68.07908"></polygon>
                    <polygon id="Fill-880-Copy" fill="#3C6771" points="71.7617602 71.21904 87.0849031 71.21904 87.0849031 70.2834 71.7617602 70.2834"></polygon>
                    <polygon id="Fill-881-Copy" fill="#3C6771" points="69.3767755 76.02696 84.7008214 76.02696 84.7008214 75.09224 69.3767755 75.09224"></polygon>
                    <polygon id="Fill-882-Copy" fill="#3C6771" points="55.2167755 79.0326 70.5399184 79.0326 70.5399184 78.09696 55.2167755 78.09696"></polygon>
                    <polygon id="Fill-883-Copy" fill="#3C6771" points="107.570847 67.27776 109.668658 67.27776 109.668658 66.4102 107.570847 66.4102"></polygon>
                    <polygon id="Fill-884-Copy" fill="#3C6771" points="110.356791 67.47832 116.748658 67.47832 116.748658 66.4102 110.356791 66.4102"></polygon>
                    <polygon id="Fill-885-Copy" fill="#3C6771" points="108.389923 69.14812 110.487735 69.14812 110.487735 68.27964 108.389923 68.27964"></polygon>
                    <polygon id="Fill-886-Copy" fill="#3C6771" points="111.17677 69.34776 117.567735 69.34776 117.567735 68.27964 111.17677 68.27964"></polygon>
                    <polygon id="Fill-887-Copy" fill="#3C6771" points="107.570847 70.95132 109.668658 70.95132 109.668658 70.08284 107.570847 70.08284"></polygon>
                    <polygon id="Fill-888-Copy" fill="#3C6771" points="110.356791 71.15096 116.748658 71.15096 116.748658 70.08284 110.356791 70.08284"></polygon>
                    <polygon id="Fill-889-Copy" fill="#3C6771" points="55.2167755 81.67024 57.3145867 81.67024 57.3145867 80.80268 55.2167755 80.80268"></polygon>
                    <polygon id="Fill-890-Copy" fill="#3C6771" points="58.0027194 81.8708 64.3945867 81.8708 64.3945867 80.80268 58.0027194 80.80268"></polygon>
                    <polygon id="Fill-891-Copy" fill="#3C6771" points="56.0367551 83.53968 58.1345663 83.53968 58.1345663 82.67212 56.0367551 82.67212"></polygon>
                    <polygon id="Fill-892-Copy" fill="#3C6771" points="58.822699 83.74024 65.2145663 83.74024 65.2145663 82.67212 58.822699 82.67212"></polygon>
                    <polygon id="Fill-893-Copy" fill="#3C6771" points="55.2167755 85.34288 57.3145867 85.34288 57.3145867 84.47532 55.2167755 84.47532"></polygon>
                    <polygon id="Fill-894-Copy" fill="#3C6771" points="58.0027194 85.54344 64.3945867 85.54344 64.3945867 84.47532 58.0027194 84.47532"></polygon>
                    <polygon id="Fill-895-Copy" fill="#3C6771" points="107.843571 77.74092 109.941383 77.74092 109.941383 76.87244 107.843571 76.87244"></polygon>
                    <polygon id="Fill-896-Copy" fill="#3C6771" points="110.629515 77.94148 117.021383 77.94148 117.021383 76.87244 110.629515 76.87244"></polygon>
                    <polygon id="Fill-897-Copy" fill="#3C6771" points="110.487735 72.73244 112.301082 72.73244 112.301082 71.86396 110.487735 71.86396"></polygon>
                    <polygon id="Fill-898-Copy" fill="#3C6771" points="112.896199 72.933 118.421128 72.933 118.421128 71.86396 112.896199 71.86396"></polygon>
                    <polygon id="Fill-899-Copy" fill="#3C6771" points="109.58648 79.6996 111.399827 79.6996 111.399827 78.83204 109.58648 78.83204"></polygon>
                    <polygon id="Fill-900-Copy" fill="#3C6771" points="111.994041 79.90016 117.518969 79.90016 117.518969 78.83204 111.994041 78.83204"></polygon>
                    <polygon id="Fill-901-Copy" fill="#3C6771" points="109.58648 81.6592 111.399827 81.6592 111.399827 80.79072 109.58648 80.79072"></polygon>
                    <polygon id="Fill-902-Copy" fill="#3C6771" points="111.994041 81.85976 117.518969 81.85976 117.518969 80.79072 111.994041 80.79072"></polygon>
                    <polygon id="Fill-903-Copy" fill="#3C6771" points="108.028699 83.17352 109.842046 83.17352 109.842046 82.30412 108.028699 82.30412"></polygon>
                    <polygon id="Fill-904-Copy" fill="#3C6771" points="110.437163 83.37408 115.961189 83.37408 115.961189 82.30412 110.437163 82.30412"></polygon>
                    <polygon id="Fill-905-Copy" fill="#3C6771" points="110.619582 74.51356 112.432929 74.51356 112.432929 73.64416 110.619582 73.64416"></polygon>
                    <polygon id="Fill-906-Copy" fill="#3C6771" points="113.027143 74.7132 118.551168 74.7132 118.551168 73.64416 113.027143 73.64416"></polygon>
                    <polygon id="Fill-907-Copy" fill="#3C6771" points="110.619582 76.12724 112.432929 76.12724 112.432929 75.25876 110.619582 75.25876"></polygon>
                    <polygon id="Fill-908-Copy" fill="#3C6771" points="113.027143 76.32688 118.551168 76.32688 118.551168 75.25876 113.027143 75.25876"></polygon>
                    <path d="M144.007561,109.8112 C144.007561,110.34572 142.326061,110.77996 140.25173,110.77996 C138.178301,110.77996 136.495898,110.34572 136.495898,109.8112 C136.495898,109.27576 138.178301,108.84152 140.25173,108.84152 C142.326061,108.84152 144.007561,109.27576 144.007561,109.8112" id="Fill-909-Copy" fill="#F8C74F"></path>
                    <path d="M143.469337,108.52412 L143.352842,108.50756 C143.129786,108.44316 143.001551,108.2058 143.066571,107.97948 C143.080117,107.92796 143.429602,106.72552 144.560235,105.39152 C145.005444,104.86528 145.628556,104.26176 146.286888,103.62236 C147.355209,102.58644 148.566214,101.4116 148.819974,100.71148 C149.065607,100.03068 149.025872,99.27168 148.717026,98.77856 C148.478617,98.39584 148.087592,98.17872 147.556592,98.13272 C146.232704,98.01864 145.20502,99.88624 145.07227,100.21652 C145.022602,100.39408 144.860051,100.52564 144.668602,100.52564 C144.437418,100.52564 144.249582,100.33428 144.249582,100.09784 C144.249582,100.04632 144.249582,99.88716 144.619837,99.2818 C144.812189,98.96716 145.130969,98.509 145.552699,98.1134 C146.208321,97.49976 146.906388,97.21916 147.627031,97.28172 C148.631235,97.36728 149.159526,97.89352 149.425026,98.31948 C149.876556,99.04076 149.945189,100.07024 149.606541,101.0068 C149.285954,101.89276 148.055082,103.08692 146.86575,104.24152 C146.221867,104.8662 145.614107,105.455 145.195087,105.94996 C144.183658,107.1432 143.874811,108.2058 143.872102,108.215 C143.818821,108.4036 143.650852,108.52412 143.469337,108.52412 L143.469337,108.52412 Z" id="Fill-910-Copy" fill="#EC923D"></path>
                    <polyline id="Fill-911-Copy" fill="#F8C74F" points="134.529031 95.5604 136.495898 109.91424 143.985888 109.91424 146.164071 95.5604 134.529031 95.5604"></polyline>
                    <path d="M138.690337,95.2108 C138.96577,94.49504 138.905265,93.82804 138.733684,93.21348 C138.646087,92.9062 138.524173,92.61088 138.384199,92.3312 C138.241515,92.04968 138.081673,91.80128 137.892934,91.52988 C137.522679,90.99812 137.084694,90.46728 136.647612,89.8564 C136.429974,89.54912 136.215949,89.2216 136.018179,88.86372 C135.919745,88.68616 135.829439,88.49848 135.741842,88.30344 C135.65876,88.10748 135.581097,87.9106 135.516077,87.70912 C135.252383,86.90504 135.141306,86.0614 135.17201,85.23524 C135.205423,84.40816 135.374296,83.59764 135.669597,82.84416 C135.962189,82.09252 136.387531,81.39884 136.918531,80.81924 C137.184934,80.53128 137.474816,80.26816 137.790888,80.04828 C138.105153,79.8284 138.440189,79.6444 138.795092,79.52204 C138.587388,79.84036 138.399551,80.14948 138.235194,80.46228 C138.07174,80.77692 137.929056,81.09064 137.808949,81.40896 C137.566929,82.04192 137.401668,82.68316 137.308653,83.32164 C137.214735,83.96012 137.188546,84.59676 137.230087,85.21592 C137.274337,85.836 137.389026,86.4386 137.575056,87.00716 C137.620209,87.14976 137.672587,87.28868 137.72948,87.42576 L137.816173,87.63184 L137.914607,87.8416 C138.050066,88.12404 138.209908,88.41108 138.377878,88.71192 C138.712913,89.3136 139.103036,89.96404 139.401949,90.70832 C139.549148,91.07448 139.681898,91.48848 139.748724,91.89788 C139.81826,92.30912 139.840837,92.7268 139.798393,93.14264 C139.755046,93.55572 139.651194,93.96696 139.46426,94.33312 C139.280939,94.69836 139.013633,95.01576 138.690337,95.2108" id="Fill-912-Copy" fill="#D9CCDB"></path>
                    <path d="M141.43474,94.8612 C141.536786,94.61648 141.598194,94.39292 141.629801,94.17856 L141.64425,94.01848 L141.649668,93.86116 L141.650571,93.78572 L141.646959,93.70844 L141.637026,93.55848 C141.619867,93.3616 141.578327,93.1684 141.534077,92.9844 C141.488923,92.79948 141.423903,92.61916 141.359786,92.44712 C141.291153,92.27416 141.21349,92.11132 141.132214,91.95676 C141.050036,91.81048 140.948893,91.64304 140.84775,91.48296 C140.740286,91.32104 140.629209,91.15636 140.512714,90.99076 L140.142459,90.47464 C139.886893,90.11952 139.615974,89.73864 139.361311,89.3136 C139.233077,89.10016 139.113872,88.87752 138.998281,88.63464 C138.887204,88.39452 138.789673,88.14428 138.71201,87.88668 C138.636153,87.62724 138.577454,87.36136 138.544944,87.08904 C138.515143,86.81672 138.506112,86.5398 138.534107,86.2638 C138.564811,85.9878 138.625316,85.7164 138.728265,85.46524 C138.83302,85.21316 138.975704,84.985 139.160832,84.80192 C139.205082,85.0632 139.259265,85.2932 139.328801,85.50756 C139.403755,85.721 139.489546,85.91696 139.583464,86.1028 C139.681898,86.28864 139.787556,86.46436 139.896827,86.63456 C140.008806,86.80476 140.127107,86.97036 140.245408,87.13136 C140.370031,87.29236 140.494653,87.45152 140.623791,87.607 L141.030168,88.08632 C141.311923,88.41752 141.606321,88.76988 141.893495,89.16456 C141.964837,89.26576 142.034372,89.36512 142.104811,89.47092 C142.173444,89.5758 142.24298,89.6862 142.309806,89.79568 C142.439847,90.02016 142.564469,90.2566 142.672837,90.50684 C142.781204,90.76076 142.870607,91.01652 142.943755,91.31 C143.006969,91.59796 143.045801,91.88684 143.049413,92.1748 C143.055735,92.74888 142.93924,93.33032 142.668321,93.83724 C142.528347,94.0884 142.357668,94.32116 142.144546,94.50148 C141.932327,94.6818 141.687597,94.81152 141.43474,94.8612" id="Fill-913-Copy" fill="#D9CCDB"></path>
                    <path d="M166.030515,75.92668 C165.56002,75.60468 164.418551,74.70032 162.837291,75.05084 C161.407745,75.36548 158.956837,76.1116 157.980628,77.57624 C157.258179,78.65908 159.997163,78.05556 159.997163,78.05556 L163.51549,76.84208 C163.51549,76.84208 166.551582,76.28272 166.030515,75.92668" id="Fill-914-Copy" fill="#745E99"></path>
                    <path d="M168.12652,76.31032 C167.328214,75.17044 163.454985,74.36912 162.076913,75.55868 C160.59499,76.83932 161.153985,83.7108 161.153985,83.7108 C161.153985,83.7108 161.696724,84.08064 162.799362,84.24164 C164.282189,84.45784 167.130444,84.4744 167.130444,84.4744 C167.130444,84.4744 168.44801,76.77032 168.12652,76.31032" id="Fill-915-Copy" fill="#745E99"></path>
                    <path d="M176.715536,110.5196 C176.133061,110.653 176.142092,109.83328 176.018372,109.38156 C176.10326,109.50024 176.221561,109.64468 176.264908,109.44596 C176.328122,109.15616 176.201694,108.53516 175.988571,108.36312 C176.13577,108.284 176.343474,108.25272 176.487061,108.24628 C176.673092,108.23708 176.870862,110.48372 176.715536,110.5196" id="Fill-916-Copy" fill="#231829"></path>
                    <path d="M176.264908,109.44596 C176.221561,109.64468 176.092423,109.71276 176.027403,109.41836 C175.968704,109.15524 175.860337,109.04024 175.836857,108.99424 L175.380811,108.60232 L175.505434,108.17636 C175.741133,108.445 175.960577,108.37692 175.988571,108.36312 C176.201694,108.53516 176.328122,109.15616 176.264908,109.44596" id="Fill-917-Copy" fill="#E77F90"></path>
                    <path d="M168.573536,86.33832 C170.198143,88.30528 168.346867,97.65156 168.346867,97.65156 L175.665276,108.33552 L175.504531,109.02828 C175.438607,109.30428 175.111699,109.41284 174.903995,109.22516 C173.179148,107.6676 167.121413,101.9084 165.027214,99.66452 C163.498332,98.026 161.153985,83.7108 161.153985,83.7108 C161.153985,83.7108 167.501602,85.04112 168.573536,86.33832" id="Fill-918-Copy" fill="#231829"></path>
                    <path d="M149.658015,109.91976 C149.940673,109.42388 150.5385,109.82592 150.974679,109.97772 C150.830189,109.9814 150.645964,110.00072 150.78323,110.14884 C150.981903,110.36504 151.555347,110.61068 151.816332,110.52972 C151.797367,110.69808 151.703449,110.89036 151.627592,111.01456 C151.530061,111.17556 149.579449,110.0596 149.658015,109.91976" id="Fill-919-Copy" fill="#231829"></path>
                    <path d="M150.78323,110.14884 C150.645964,110.00072 150.664929,109.8526 150.939459,109.96484 C151.185995,110.0642 151.418082,110.09272 151.468653,110.09916 C151.603209,110.11664 151.743184,109.96944 151.743184,109.96944 L151.953597,110.13504 L151.816332,110.52972 C151.555347,110.61068 150.981903,110.36504 150.78323,110.14884" id="Fill-920-Copy" fill="#EA8D9A"></path>
                    <path d="M169.41248,89.53624 C169.350168,92.78476 161.888173,97.89352 161.888173,97.89352 C161.888173,97.89352 152.55052,110.74408 152.383454,110.66312 L151.635719,110.05316 C151.584245,110.0274 156.238622,99.67832 157.828913,95.95876 C159.008311,93.20336 162.696413,87.26476 162.544699,87.53616 C162.544699,87.53616 162.335189,84.07144 162.63952,83.76692 C163.297852,83.7844 165.556408,83.08612 167.473607,84.66852 C169.336622,86.20768 169.435959,88.36232 169.41248,89.53624" id="Fill-921-Copy" fill="#2F2646"></path>
                    <path d="M167.865536,80.00228 C167.865536,80.00228 168.254755,83.44032 168.844454,84.7596 C169.432347,86.07888 169.064801,86.96944 169.064801,86.96944 C169.064801,86.96944 161.831281,88.89684 161.051036,87.1378 C160.269888,85.37876 160.623888,82.30136 160.623888,82.30136 L167.865536,80.00228" id="Fill-922-Copy" fill="#745E99"></path>
                    <path d="M168.12652,76.31032 C167.654219,75.63596 166.106372,75.0812 164.636189,74.98552 C163.619342,74.91928 161.257837,87.66312 162.361378,87.8232 C163.00526,87.91796 164.426679,87.91612 165.746954,87.7174 C167.466383,87.45888 169.064801,86.96944 169.064801,86.96944 C169.064801,86.96944 169.46576,86.65572 169.415189,85.87832 C169.238189,83.12936 168.377571,76.6682 168.12652,76.31032" id="Fill-923-Copy" fill="#5D4A8D"></path>
                    <path d="M159.202469,76.54676 C158.168464,75.76844 151.670036,76.46948 151.401827,78.42632 C151.30249,79.15404 151.78924,79.47788 151.78924,79.47788 L159.504995,78.1448 C159.504995,78.1448 160.367418,77.42352 159.202469,76.54676" id="Fill-924-Copy" fill="#745E99"></path>
                    <path d="M164.913429,73.06548 C164.913429,73.06548 165.159061,74.83556 165.051597,75.03428 C164.944133,75.233 164.503439,75.55408 164.265031,75.1134 C164.026622,74.6718 164.284898,73.0664 164.284898,73.0664 L164.913429,73.06548" id="Fill-925-Copy" fill="#EA8D9A"></path>
                    <path d="M164.91975,72.49784 C164.91975,72.49784 165.078689,74.24124 165.07327,74.45928 C165.068755,74.62764 164.23523,74.51908 164.184658,74.30104 C164.072679,73.82264 164.290316,72.49876 164.290316,72.49876 L164.91975,72.49784" id="Fill-926-Copy" fill="#BA586D"></path>
                    <path d="M163.605796,74.9708 C163.605796,74.9708 163.29424,75.47588 164.135893,75.82456 C164.97574,76.17508 165.832745,75.18056 165.832745,75.18056 C165.832745,75.18056 165.204214,74.86592 163.605796,74.9708" id="Fill-927-Copy" fill="#EA8D9A"></path>
                    <path d="M164.010367,75.76752 C164.010367,75.76752 164.22349,75.52556 164.842087,75.46576 C165.459781,75.40504 165.379408,75.049 165.379408,75.049 L165.051597,75.03428 L165.050694,74.05724 C165.050694,74.05724 166.557903,73.52916 166.979633,74.6258 C167.402265,75.72244 167.333633,75.71508 167.333633,75.71508 C167.333633,75.71508 164.502536,76.97916 164.010367,75.76752" id="Fill-928-Copy" fill="#745E99"></path>
                    <path d="M164.340888,74.0968 C164.340888,74.0968 162.830066,73.93672 162.59527,74.59636 L162.412852,75.10512 C162.378536,75.20356 162.396597,75.31028 162.461617,75.39032 C162.701832,75.68104 163.333071,76.30296 164.010367,75.76752 C164.010367,75.76752 163.780087,75.08212 163.579607,75.02876 C163.380934,74.97632 164.253291,74.9708 164.253291,74.9708 L164.340888,74.0968" id="Fill-929-Copy" fill="#5D4A8D"></path>
                    <path d="M163.220189,73.1354 C163.186776,72.98452 163.31501,72.47116 163.433311,72.04612 C163.533551,71.69284 163.898388,71.4932 164.242454,71.60452 C164.77526,71.7738 165.355026,71.99368 165.489582,72.14364 C165.699092,72.37824 165.612398,72.75176 165.554602,73.0296 C165.496806,73.30744 165.293617,73.784 165.074173,73.97352 C164.871888,74.14648 164.391459,74.22376 164.144923,74.1566 C163.408026,73.95328 163.244571,73.70488 163.220189,73.1354" id="Fill-930-Copy" fill="#EA8D9A"></path>
                    <path d="M164.000434,71.12796 C164.000434,71.12796 165.253883,70.10952 165.960077,70.73788 C166.66627,71.36808 166.794505,73.21636 165.382117,73.51996 C165.382117,73.51996 165.556408,72.00932 164.000434,71.12796" id="Fill-931-Copy" fill="#E0594E"></path>
                    <path d="M165.18525,72.41044 C165.18525,72.41044 163.821628,69.34868 162.644036,69.92828 C161.467347,70.5088 163.297852,72.56868 163.297852,72.56868 C163.297852,72.56868 163.448663,70.8722 165.18525,72.41044" id="Fill-932-Copy" fill="#CA3E40"></path>
                    <path d="M168.006413,76.16772 C168.254755,76.4704 168.545541,77.04356 168.443495,77.89088 C168.393827,78.31776 168.134648,78.86976 167.865536,79.39784 C167.138571,80.82016 164.555816,83.17352 162.173541,83.13212 C160.790954,83.10636 162.806587,80.84684 162.806587,80.84684 C162.806587,80.84684 167.573847,75.63872 168.006413,76.16772" id="Fill-933-Copy" fill="#5D4A8D"></path>
                    <path d="M167.865536,79.39784 C167.59552,80.00228 167.130444,80.49816 166.648209,80.93792 C166.161459,81.38044 165.624138,81.75948 165.066046,82.09988 C164.503439,82.432 163.917352,82.72916 163.295143,82.93616 C162.677449,83.13764 162.013699,83.28024 161.368913,83.17628 C161.694015,83.16064 162.008281,83.13028 162.316224,83.03184 C162.627781,82.96376 162.924888,82.84784 163.219286,82.72732 C163.805372,82.478 164.374301,82.18268 164.922459,81.84964 C165.472423,81.52304 166.000714,81.1578 166.510041,80.7668 C167.012143,80.36844 167.495281,79.93788 167.865536,79.39784" id="Fill-934-Copy" fill="#745E99"></path>
                    <path d="M161.207265,80.27092 C161.778,80.38408 162.34151,80.52392 162.903214,80.6702 L162.796653,80.69964 C163.398995,79.99032 164.035653,79.3132 164.693985,78.65908 C165.356832,78.00864 166.044964,77.38028 166.794505,76.83104 C165.514867,78.17884 164.261418,79.53584 162.951077,80.84592 L162.944755,80.85236 L162.843612,80.87628 C162.294551,80.6886 161.746393,80.49356 161.207265,80.27092" id="Fill-935-Copy" fill="#745E99"></path>
                    <path d="M162.192505,73.77572 C162.192505,79.35276 157.754862,83.87364 152.280505,83.87364 C146.806148,83.87364 142.367602,79.35276 142.367602,73.77572 C142.367602,68.19868 146.806148,63.6778 152.280505,63.6778 C157.754862,63.6778 162.192505,68.19868 162.192505,73.77572" id="Fill-936-Copy" fill="#7EC9C9"></path>
                    <path d="M146.822403,77.74368 C146.495495,77.49344 146.267923,77.00768 146.140592,76.28548 C146.054801,75.76936 145.997908,74.92204 145.96901,73.74536 C145.940112,72.4362 146.008745,71.47848 146.177617,70.87312 C146.378097,70.13988 146.759189,69.7176 147.320893,69.60536 C147.721852,69.52716 148.079464,69.59248 148.395536,69.80224 C148.74773,70.04052 148.943694,70.39748 148.985235,70.87312 L148.35851,70.91728 C148.330515,70.61828 148.217633,70.40116 148.020765,70.26684 C147.856408,70.15828 147.668571,70.127 147.455449,70.17208 C147.128541,70.23464 146.896454,70.54744 146.760995,71.10772 C146.626439,71.67352 146.572255,72.5466 146.602056,73.72788 C146.626439,74.75184 146.671592,75.50808 146.736612,75.99384 C146.831434,76.68936 146.994888,77.12636 147.227878,77.30668 L147.289286,77.34532 L147.382301,77.38488 C147.463577,77.40696 147.557495,77.41064 147.664056,77.39592 C147.930459,77.3582 148.121005,77.28736 148.235694,77.18248 C148.330515,77.09692 148.387408,76.96996 148.408179,76.8016 L149.034,76.86876 C148.956337,77.48976 148.530092,77.85408 147.756168,77.96264 L147.535821,77.9792 C147.260388,77.9792 147.022883,77.90008 146.822403,77.74368" id="Fill-937-Copy" fill="#FFFFFE"></path>
                    <path d="M151.327776,71.69376 C151.327776,73.3194 151.327776,74.94504 151.327776,76.57068 C151.327776,77.16224 152.229031,77.16316 152.229031,76.57068 C152.229031,74.94504 152.229031,73.3194 152.229031,71.69376 C152.229031,71.10404 151.327776,71.1022 151.327776,71.69376" id="Fill-938-Copy" fill="#FFFFFE"></path>
                    <path d="M149.679689,74.59176 C151.078531,74.59176 152.478276,74.59176 153.877117,74.59176 C154.456883,74.59176 154.457786,73.6736 153.877117,73.6736 C152.478276,73.6736 151.078531,73.6736 149.679689,73.6736 C149.09902,73.6736 149.098117,74.59176 149.679689,74.59176" id="Fill-939-Copy" fill="#FFFFFE"></path>
                    <path d="M156.908694,71.6358 C156.908694,73.26052 156.908694,74.88708 156.908694,76.51272 C156.908694,77.10244 157.809949,77.10428 157.809949,76.51272 C157.809949,74.88708 157.809949,73.26052 157.809949,71.6358 C157.809949,71.04424 156.908694,71.04332 156.908694,71.6358" id="Fill-940-Copy" fill="#FFFFFE"></path>
                    <path d="M155.260607,74.53288 C156.659449,74.53288 158.058291,74.53288 159.458036,74.53288 C160.038704,74.53288 160.039607,73.61472 159.458036,73.61472 C158.058291,73.61472 156.659449,73.61472 155.260607,73.61472 C154.680842,73.61472 154.679036,74.53288 155.260607,74.53288" id="Fill-941-Copy" fill="#FFFFFE"></path>
                    <polyline id="Fill-942-Copy" fill="#EA8D9A" points="156.344281 79.5708 155.465602 78.97004 155.154046 79.71708 156.238622 80.03264 156.344281 79.5708"></polyline>
                    <path d="M155.465602,78.97004 L154.612209,78.88172 C154.612209,78.88172 154.518291,78.95348 155.434898,79.17336 L155.472827,79.18256 L155.465602,78.97004" id="Fill-943-Copy" fill="#EA8D9A"></path>
                    <path d="M155.497209,79.15956 L154.362061,79.05284 C154.362061,79.05284 154.225699,79.22028 155.453862,79.41716 L155.491791,79.42636 L155.497209,79.15956" id="Fill-944-Copy" fill="#EA8D9A"></path>
                    <path d="M155.432189,79.36196 C155.432189,79.36196 154.412633,79.11908 154.375607,79.21936 C154.338582,79.31964 155.378908,79.59104 155.378908,79.59104 L155.432189,79.36196" id="Fill-945-Copy" fill="#EA8D9A"></path>
                    <polyline id="Fill-946-Copy" fill="#EA8D9A" points="155.286796 79.51468 154.45327 79.42912 155.200102 79.72812 155.286796 79.51468"></polyline>
                    <path d="M155.99299,79.33068 C155.99299,79.33068 155.579388,78.78788 155.481857,78.76488 C155.384327,78.74096 155.672403,79.20188 155.672403,79.20188 L155.99299,79.33068" id="Fill-947-Copy" fill="#EA8D9A"></path>
                    <path d="M162.552827,82.99596 C161.366204,83.72092 156.124837,82.24892 156.034531,80.12464 C156.001117,79.33528 156.682026,78.90932 156.682026,78.90932 L163.020612,80.8174 C163.020612,80.8174 163.888454,82.17992 162.552827,82.99596" id="Fill-948-Copy" fill="#5D4A8D"></path>
                    <path d="M76.7972296,2.84372 C76.3204133,2.53 75.3785204,2.70756 74.9495663,3.02772 C73.9986429,3.74164 73.8622806,4.35712 73.7593316,4.5034 L73.528148,4.47488 C73.2825153,4.47488 73.1687296,4.78308 73.160602,5.0784 C73.1362194,5.40408 73.219301,5.81808 73.337602,6.14468 L73.3737245,6.25968 C73.4811888,7.015 74.8655816,7.10608 75.5546173,6.67368 C75.7876071,6.59456 75.9980204,6.45196 76.1506378,6.24496 C76.3213163,6.0122 76.5100561,5.55128 76.2888061,5.3084 C76.3411837,5.2578 77.8899337,3.56316 76.7972296,2.84372" id="Fill-975-Copy" fill="#E0594E"></path>
                    <path d="M76.7972296,2.84372 C76.4992194,2.71124 76.1777296,2.73424 75.8770102,2.7922 C75.5780969,2.8566 75.2773776,2.96424 75.0498061,3.13536 C74.8086888,3.32764 74.5784082,3.54292 74.3824439,3.77936 C74.2867194,3.89896 74.1955102,4.02224 74.1169439,4.15288 L74.0076735,4.3562 C73.970648,4.42888 73.9489745,4.49052 73.882148,4.59356 L73.8803418,4.59632 L73.7186939,4.65244 L73.558852,4.6184 L73.5416939,4.62116 L73.528148,4.62116 C73.4604184,4.61196 73.3827551,4.6828 73.3312806,4.81068 C73.2816122,4.9312 73.2689694,5.08116 73.2572296,5.22928 C73.2454898,5.52552 73.2789031,5.83648 73.351148,6.13916 L73.352051,6.14008 L73.3737245,6.25968 L73.32225,6.14928 L73.32225,6.1502 C73.2509082,6.01036 73.1976276,5.8604 73.1506684,5.7086 C73.1028061,5.55588 73.071199,5.39764 73.0576531,5.23296 C73.0459133,5.07104 73.0441071,4.90452 73.0928724,4.72788 C73.1181582,4.6414 73.1560867,4.55216 73.2256224,4.4712 C73.292449,4.38932 73.4134592,4.32952 73.528148,4.32768 L73.4983469,4.33136 L73.6690255,4.3286 L73.7990663,4.35528 L73.6365153,4.41416 L73.7268214,4.21636 L73.8442194,3.98728 C73.9300102,3.83916 74.0257347,3.69564 74.1377143,3.56684 C74.3589643,3.30832 74.6082092,3.08568 74.885449,2.898 C75.1897806,2.70204 75.5221071,2.62476 75.8544337,2.60268 C76.1804388,2.58704 76.5398571,2.63396 76.7972296,2.84372" id="Fill-976-Copy" fill="#E6776F"></path>
                    <path d="M84.1427296,44.53352 C84.1526633,43.89964 83.3805459,44.07536 82.8757347,43.93184 C83.027449,44.02476 83.1791633,44.15816 82.9452704,44.23268 C82.6039133,44.34124 81.847148,44.25016 81.6168673,44.00268 C81.537398,44.19404 81.522949,44.45624 81.5301735,44.63564 C81.5392041,44.8684 84.134602,44.98156 84.1427296,44.53352" id="Fill-977-Copy" fill="#2F2646"></path>
                    <path d="M82.9452704,44.23268 C83.1791633,44.15816 83.027449,44.02476 82.8757347,43.93184 C82.5632755,43.84444 82.3013878,43.78188 82.2417857,43.75796 C82.0891684,43.69356 82.0431122,43.55188 82.0431122,43.55188 L81.8850765,43.52244 C81.8850765,43.52244 81.9925408,43.74048 81.7026582,43.85732 L81.6168673,44.00268 C81.847148,44.25016 82.6039133,44.34124 82.9452704,44.23268" id="Fill-978-Copy" fill="#EA8D9A"></path>
                    <path d="M65.9984235,44.63932 C65.9017959,44.00636 66.7606071,44.18116 67.2645153,44.03856 C67.112801,44.13056 66.9610867,44.26488 67.1949796,44.33848 C67.5363367,44.44704 68.2940051,44.35596 68.5233827,44.10848 C68.602852,44.29984 68.616398,44.56204 68.6100765,44.74144 C68.601949,44.9742 66.06525,45.08184 65.9984235,44.63932" id="Fill-979-Copy" fill="#2F2646"></path>
                    <path d="M67.1949796,44.33848 C66.9610867,44.26488 67.112801,44.13056 67.2645153,44.03856 C67.5769745,43.95024 67.8397653,43.8886 67.8975612,43.86376 C68.0510816,43.79936 68.0971378,43.6586 68.0971378,43.6586 L68.2551735,43.62824 C68.2551735,43.62824 68.1486122,43.8472 68.4375918,43.96404 L68.5233827,44.10848 C68.2940051,44.35596 67.5363367,44.44704 67.1949796,44.33848" id="Fill-980-Copy" fill="#EA8D9A"></path>
                    <path d="M72.6575969,15.98408 C72.6503724,16.06136 71.0474388,17.62812 70.1407653,19.527 C69.1383673,21.62736 69.2503469,22.9034 68.7374082,26.657 C68.2587857,30.16036 67.5670408,39.859 67.6456071,43.4746 C67.6564439,43.92448 68.4673929,43.96588 68.6525204,43.44332 C69.8815867,39.98872 74.9206684,22.04136 74.9206684,22.04136 L81.7017551,43.58868 L82.5370867,43.58868 C82.5370867,43.58868 82.5948827,43.42216 82.5316684,42.8582 C82.1162602,39.08436 80.8853878,23.58512 80.3932194,21.76444 C79.3628265,17.9446 78.5247857,16.94456 78.3288214,15.90312 C77.6786173,16.21868 73.9354286,16.56368 72.6575969,15.98408" id="Fill-981-Copy" fill="#ED9644"></path>
                    <path d="M82.5316684,42.8582 C82.1162602,39.08436 80.8853878,23.58512 80.3932194,21.76444 C79.3628265,17.9446 78.5247857,16.94456 78.3288214,15.90312 C78.1762041,15.97672 76.6897653,16.15612 75.7966378,16.27572 C75.7966378,16.27572 79.4124949,26.404 82.1523827,43.58868 L82.5370867,43.58868 C82.5370867,43.58868 82.5948827,43.42216 82.5316684,42.8582" id="Fill-982-Copy" fill="#E15B4D"></path>
                    <path d="M78.3143724,8.90928 C77.5621224,8.60108 75.3324643,7.81172 72.9872143,8.18708 C71.7816276,8.37936 70.7882602,9.32328 70.7882602,9.32328 C70.7882602,9.32328 72.7235204,15.26556 72.6575969,15.98408 C73.9354286,16.56368 77.6786173,16.21868 78.3288214,15.90312 L78.3342398,15.73292 C79.0720408,13.33816 78.3143724,8.90928 78.3143724,8.90928" id="Fill-983-Copy" fill="#D4C9DA"></path>
                    <line x1="74.2298265" y1="7.199" x2="74.2298265" y2="7.199" id="Fill-984-Copy" fill="#2F2646"></line>
                    <path d="M74.2469847,6.7574 C74.2469847,6.7574 73.9986429,8.22112 74.1079133,8.3858 C74.2171837,8.54956 74.6235612,8.7676 74.8637755,8.40144 C75.1057959,8.03712 74.8836429,6.7574 74.8836429,6.7574 L74.2469847,6.7574" id="Fill-985-Copy" fill="#EA8D9A"></path>
                    <path d="M74.1350051,7.5256 C74.3083929,7.83288 74.6777449,8.02056 74.973949,7.8844 C74.9838827,7.6176 74.9576939,7.31676 74.930602,7.09136 L74.1946071,7.09136 C74.163,7.30296 74.1584847,7.27996 74.1350051,7.5256" id="Fill-986-Copy" fill="#BA586D"></path>
                    <path d="M75.6205408,6.62216 C75.6738214,6.5228 75.696398,6.18884 75.7054286,5.85028 C75.7171684,5.38936 75.4354133,5.01952 74.9396327,4.991 C74.8258469,4.98456 74.1386173,5.04804 73.9200765,5.18144 C73.6816684,5.32864 73.6627041,5.6718 73.6428367,5.92572 C73.6229694,6.17872 73.6780561,6.63964 73.8198367,6.86044 C73.9489745,7.061 74.3427092,7.25144 74.5702806,7.25788 C75.253898,7.27536 75.4561837,7.10424 75.6205408,6.62216" id="Fill-987-Copy" fill="#EA8D9A"></path>
                    <path d="M67.9806429,13.61968 C67.8740816,15.01072 69.8481735,13.66844 69.8481735,13.66844 L71.5504439,10.18164 L71.0257653,9.12916 C71.0257653,9.12916 68.1531276,11.3712 67.9806429,13.61968" id="Fill-988-Copy" fill="#D4C9DA"></path>
                    <path d="M79.8288061,14.10912 C79.4711939,15.456 78.0380357,13.3768 78.0380357,13.3768 L77.4113112,9.68576 L78.2954082,8.92308 C78.2954082,8.92308 80.3092347,12.30316 79.8288061,14.10912" id="Fill-989-Copy" fill="#BDACC8"></path>
                    <path d="M78.3143724,8.90928 C77.8682602,8.72712 76.9046939,8.37476 75.7054286,8.1972 L75.504949,8.16868 C75.504949,8.16868 76.3809184,9.40792 76.405301,11.52944 C76.4287806,13.49548 75.7966378,16.27572 75.7966378,16.27572 L75.9456429,16.26836 C77.0383469,16.2058 78.0235867,16.05124 78.3288214,15.90312 L78.3342398,15.73292 C79.0720408,13.33816 78.3143724,8.90928 78.3143724,8.90928" id="Fill-990-Copy" fill="#BDACC8"></path>
                    <path d="M82.1948265,12.34272 C81.1427602,13.03916 80.3345204,13.6988 79.6409694,14.20572 C77.7752449,15.56916 79.929949,15.67128 80.6162755,15.44496 C81.4371582,15.17632 83.2622449,14.34648 83.8067908,14.12108 C84.3513367,13.89568 84.1842704,12.61964 84.1842704,12.61964 C84.1842704,12.61964 83.0879541,11.75208 82.1948265,12.34272" id="Fill-991-Copy" fill="#BDACC8"></path>
                    <polyline id="Fill-992-Copy" fill="#E0594E" points="76.0919388 5.47124 76.0919388 5.49884 76.0919388 5.47124"></polyline>
                    <path d="M84.2267143,14.79268 C84.2267143,18.49568 81.2809286,21.49764 77.6452041,21.49764 C74.0103827,21.49764 71.0636939,18.49568 71.0636939,14.79268 C71.0636939,11.08968 74.0103827,8.08772 77.6452041,8.08772 C81.2809286,8.08772 84.2267143,11.08968 84.2267143,14.79268" id="Fill-993-Copy" fill="#7EC9C9"></path>
                    <path d="M74.8402959,12.7558 C74.8402959,13.5194 74.8366837,13.91868 74.8285561,13.95364 L74.8917704,13.93892 C75.0272296,13.88556 75.1410153,13.8276 75.2331276,13.76412 C75.5148827,13.54608 75.6738214,13.24156 75.7081378,12.85056 C75.7388418,12.512 75.681949,12.19 75.5401684,11.88364 C75.4363163,11.67296 75.2674439,11.52668 75.0371633,11.44572 C74.944148,11.41444 74.886352,11.4126 74.8628724,11.4402 C74.8484235,11.46136 74.8402959,11.89928 74.8402959,12.7558 Z M74.2794949,18.62908 C74.2975561,18.11112 74.2993622,17.49472 74.2849133,16.7808 C74.2767857,16.33276 74.2569184,15.65656 74.2271173,14.7522 L74.2144745,14.44032 C74.1693214,13.01064 74.1575816,12.08236 74.1801582,11.6564 C74.2036378,11.28012 74.2731735,11.0492 74.3887653,10.96456 C74.5088724,10.88452 74.6605867,10.8422 74.8457143,10.83852 C75.0353571,10.83852 75.2177755,10.87716 75.3956786,10.95444 C75.4950153,11.00044 75.5907398,11.05656 75.6792398,11.1228 C75.7912194,11.21112 75.8896531,11.31324 75.9745408,11.42916 C76.1903724,11.73184 76.2978367,12.12284 76.2978367,12.60216 C76.2978367,13.5884 75.8038622,14.2784 74.8168163,14.67308 L74.8222347,14.73656 C74.8502296,15.64828 74.8691939,16.32908 74.8809337,16.7808 C74.8917704,17.50208 74.8890612,18.12584 74.8691939,18.65024 L74.2794949,18.62908 L74.2794949,18.62908 Z" id="Fill-994-Copy" fill="#FFFFFE"></path>
                    <path d="M78.5013061,18.67048 C78.5013061,18.64656 78.4985969,18.5058 78.4949847,18.2482 L78.4949847,17.83144 C78.4949847,17.65204 78.4931786,17.47908 78.4895663,17.3144 C78.4895663,16.86636 78.4868571,16.44224 78.4832449,16.04112 C78.4832449,15.52592 78.4814388,15.04752 78.4778265,14.60408 C78.3044388,14.60132 78.1211173,14.59948 77.9278622,14.59948 C77.6966786,14.59948 77.4880714,14.60132 77.3029439,14.60408 C77.3300357,16.99148 77.3182959,18.3586 77.2677245,18.7036 L76.6843469,18.63368 C76.715051,18.40092 76.7285969,17.70172 76.7249847,16.53148 C76.7249847,16.07792 76.7204694,15.5388 76.7123418,14.91504 C76.7087296,14.50748 76.7033112,13.96836 76.6960867,13.29952 C76.6798316,11.95816 76.6744133,11.17064 76.6780255,10.93788 L77.2740459,10.9434 C77.2695306,11.28564 77.275852,12.06948 77.2912041,13.29492 L77.2975255,13.67488 L77.2975255,14.06036 C77.4862653,14.05668 77.6966786,14.05484 77.9278622,14.05484 C78.1129898,14.05484 78.2963112,14.05668 78.4778265,14.06036 C78.4778265,12.39792 78.485051,11.35372 78.5013061,10.92776 L79.0973265,10.94892 C79.0729439,11.44204 79.0657194,12.86804 79.0729439,15.22692 C79.0774592,15.63264 79.0792653,16.0586 79.0792653,16.50572 C79.0828776,16.86176 79.0846837,17.22608 79.0846837,17.59868 C79.089199,17.74404 79.0910051,17.88756 79.0910051,18.032 C79.0910051,18.14148 79.0910051,18.25188 79.0910051,18.36412 L79.0973265,18.6668 L78.5013061,18.67048" id="Fill-995-Copy" fill="#FFFFFE"></path>
                    <path d="M80.5124235,12.7558 C80.5124235,13.5194 80.5088112,13.91868 80.5006837,13.95364 L80.564801,13.93892 C80.6993571,13.88556 80.8131429,13.8276 80.9061582,13.76412 C81.1870102,13.54608 81.345949,13.24156 81.3802653,12.85056 C81.4109694,12.512 81.3558827,12.19 81.2122959,11.88364 C81.1084439,11.67296 80.9413776,11.52668 80.7092908,11.44572 C80.6162755,11.41444 80.5593827,11.4126 80.535,11.4402 C80.520551,11.46136 80.5124235,11.89928 80.5124235,12.7558 Z M79.9516224,18.62908 C79.9705867,18.11112 79.9723929,17.49472 79.9570408,16.7808 C79.9489133,16.33276 79.930852,15.65656 79.8992449,14.7522 L79.8875051,14.44032 C79.841449,13.01064 79.8297092,12.08236 79.8531888,11.6564 C79.8757653,11.28012 79.945301,11.0492 80.0608929,10.96456 C80.181,10.88452 80.3336173,10.8422 80.5187449,10.83852 C80.7074847,10.83852 80.8908061,10.87716 81.0678061,10.95444 C81.168949,11.00044 81.2628673,11.05656 81.3513673,11.1228 C81.4633469,11.21112 81.5617806,11.31324 81.6466684,11.42916 C81.8625,11.73184 81.9699643,12.12284 81.9699643,12.60216 C81.9699643,13.5884 81.4768929,14.2784 80.4898469,14.67308 L80.4952653,14.73656 C80.5223571,15.64828 80.5413214,16.32908 80.5530612,16.7808 C80.564801,17.50208 80.5611888,18.12584 80.5413214,18.65024 L79.9516224,18.62908 L79.9516224,18.62908 Z" id="Fill-996-Copy" fill="#FFFFFE"></path>
                    <path d="M71.5504439,17.81212 C71.5504439,17.81212 71.6073367,18.39908 71.8096224,18.52696 C72.0299694,18.66588 72.3370102,18.699 72.421898,18.56652 C72.4796939,18.47728 72.1789745,18.50396 72.1789745,18.50396 L72.4562143,18.36136 L72.2774082,18.32456 C72.2774082,18.32456 72.4209949,18.30064 72.43725,18.21232 C72.452602,18.12492 72.2367704,18.17276 72.142852,18.1194 C72.0471276,18.06604 71.936051,17.67044 71.7500204,17.55268 C71.6822908,17.50944 71.5585714,17.6134 71.5504439,17.81212" id="Fill-997-Copy" fill="#EA8D9A"></path>
                    <path d="M84.1318929,12.56628 C84.1318929,12.56628 84.2068469,12.17436 84.0722908,11.96644 C83.9476684,11.7714 83.5810255,11.56716 83.5458061,11.57268 C83.4473724,11.5874 83.7679592,11.81372 83.7679592,11.81372 L83.3173316,11.60856 L83.4139592,11.75116 L83.3308776,11.76036 C83.2821122,11.83028 83.5467092,12.04556 83.6081173,12.13112 C83.6695255,12.21668 83.7842143,12.50372 83.8989031,12.68312 C83.9413469,12.74844 84.046102,12.73556 84.1318929,12.56628" id="Fill-998-Copy" fill="#EA8D9A"></path>
                    <path d="M67.9183316,13.64636 C67.7792602,15.03464 69.5266837,18.19392 71.0664031,17.9952 C71.6398469,17.9216 72.0037806,17.28404 72.0037806,17.28404 L69.8481735,13.61692 C69.8481735,13.61692 68.1052653,11.7852 67.9183316,13.64636" id="Fill-999-Copy" fill="#D4C9DA"></path>
                    <path d="M109.550357,44.68164 C109.556679,44.51144 108.897444,44.16644 108.47752,44.06984 C108.590403,44.14436 108.727668,44.25108 108.547959,44.30076 C108.285168,44.37344 107.710821,44.28052 107.543755,44.08548 C107.476929,44.229 107.458867,44.42772 107.458867,44.56572 C107.458867,44.74236 109.545842,44.83344 109.550357,44.68164" id="Fill-1000-Copy" fill="#231829"></path>
                    <path d="M108.547959,44.30076 C108.727668,44.25108 108.784561,44.12412 108.511837,44.07628 C108.26801,44.03212 108.07024,43.9392 108.026893,43.91896 C107.912204,43.86468 107.871566,43.677 107.871566,43.677 L107.652122,43.6678 L107.543755,44.08548 C107.710821,44.28052 108.285168,44.37344 108.547959,44.30076" id="Fill-1001-Copy" fill="#EA8D9A"></path>
                    <path d="M99.8903032,44.57584 C99.887602,44.35688 100.569413,44.09468 100.992949,44.01924 C100.876454,44.08824 100.73377,44.18852 100.91077,44.2474 C101.169949,44.33296 101.747908,44.27132 101.924908,44.08456 C101.982704,44.23176 101.991735,44.43048 101.98451,44.56848 C101.976383,44.7442 99.8921173,44.72672 99.8903032,44.57584" id="Fill-1002-Copy" fill="#231829"></path>
                    <path d="M100.91077,44.2474 C100.73377,44.18852 100.683199,44.0588 100.958633,44.02476 C101.203362,43.99348 101.406551,43.91068 101.450801,43.89228 C101.568199,43.84536 101.616964,43.65952 101.616964,43.65952 L101.837311,43.66228 L101.924908,44.08456 C101.747908,44.27132 101.169949,44.33296 100.91077,44.2474" id="Fill-1003-Copy" fill="#EA8D9A"></path>
                    <path d="M98.8138622,17.05588 C99.6699643,15.21036 100.927026,13.915 101.270189,13.75584 C101.659408,13.9702 102.564276,14.28116 103.717485,14.52864 C105.29152,14.8672 106.323719,14.82856 106.546776,14.83684 C106.87549,15.0282 107.261097,16.3576 107.951036,18.27488 C109.700265,23.13616 107.880597,43.86468 107.880597,43.86468 L107.621418,43.79568 C107.621418,43.79568 106.065444,34.87628 104.821026,28.50804 C104.030847,24.4628 102.956204,20.57028 102.924597,20.5206 C102.376439,22.28976 102.469454,40.11844 101.924908,43.25196 C101.832796,43.78188 101.616964,44.09468 101.616964,43.65952 C101.616061,40.434 96.6392908,21.73684 98.8138622,17.05588" id="Fill-1004-Copy" fill="#EA8D9A"></path>
                    <path d="M106.61902,14.64088 C106.61902,14.64088 108.66626,18.10284 109.199066,21.33756 C109.731872,24.57228 108.504612,34.69228 108.504612,34.69228 C105.994102,35.78156 100.107046,34.79716 100.107046,34.79716 C100.107046,34.79716 99.2085,30.6176 98.8617245,27.51904 C98.514949,24.41864 97.896352,21.9144 98.3948418,18.61712 C98.839148,15.67956 100.693133,14.25356 101.05526,13.86992 L100.949602,13.30872 L103.593765,13.86992 L106.61902,14.64088" id="Fill-1005-Copy" fill="#7EC9C9"></path>
                    <path d="M106.61902,14.64088 C106.61902,14.64088 108.66626,18.10284 109.199066,21.33756 C109.731872,24.57228 108.504612,34.69228 108.504612,34.69228 C107.41823,35.16424 105.698801,35.24704 104.097673,35.18908 L103.915255,35.18264 C103.915255,35.18264 102.629296,24.97156 102.629296,21.54732 C102.629296,17.32636 103.593765,13.86992 103.593765,13.86992 L106.61902,14.64088" id="Fill-1006-Copy" fill="#64B6C7"></path>
                    <path d="M104.887852,7.24684 C104.887852,7.24684 102.387276,3.82352 105.621138,3.48496 C105.621138,3.48496 106.172908,0.81696 108.667163,1.11044 C108.667163,1.11044 110.230362,1.42232 109.756255,3.19884 C109.756255,3.19884 111.228245,3.65884 110.366724,5.3038 C110.366724,5.3038 112.420286,4.15288 113.656577,6.2652 C114.892867,8.37752 112.649663,10.44844 112.649663,10.44844 C112.649663,10.44844 114.466622,10.73088 113.594265,12.61228 C112.25051,15.51304 107.504923,13.7954 107.504923,13.7954 L104.887852,7.24684" id="Fill-1007-Copy" fill="#B43866"></path>
                    <path d="M104.189786,5.95516 C104.072388,5.68652 103.976663,5.40408 103.939638,5.10508 C103.902612,4.80976 103.926092,4.49144 104.066969,4.21176 C104.211459,3.93116 104.468832,3.72876 104.744265,3.60272 C105.021505,3.47392 105.316806,3.42056 105.610301,3.37272 L105.514577,3.46104 C105.594949,3.09212 105.728602,2.75172 105.903796,2.42328 C106.079893,2.0976 106.314689,1.80136 106.597347,1.55572 C106.876393,1.30548 107.219556,1.12516 107.580781,1.03224 C107.941102,0.92 108.317679,0.92828 108.684321,0.95128 L108.696964,0.95312 C108.944403,1.01108 109.155719,1.11136 109.357102,1.25212 C109.553066,1.39564 109.724648,1.58792 109.832112,1.81516 C109.93777,2.04056 109.997372,2.28896 109.994663,2.53184 C110.001888,2.6542 109.979311,2.77196 109.972087,2.89156 L109.898939,3.2384 L109.799602,3.0544 C110.028077,3.13996 110.217719,3.25864 110.387495,3.42424 C110.554561,3.58984 110.684602,3.8042 110.737883,4.03972 C110.79026,4.27616 110.775811,4.5172 110.720724,4.73892 C110.69273,4.84932 110.650286,4.9542 110.615066,5.06 L110.469673,5.35992 L110.309832,5.19984 C110.617776,5.04988 110.932041,4.9634 111.259852,4.92016 C111.584954,4.88244 111.921796,4.899 112.236061,4.99928 C112.54852,5.09772 112.843821,5.2624 113.075908,5.4924 C113.202337,5.59452 113.295352,5.7316 113.400107,5.85488 C113.495832,5.9846 113.571689,6.12996 113.656577,6.2652 C113.559046,6.13732 113.470546,6.003 113.365791,5.8834 C113.251102,5.77208 113.155378,5.64328 113.023531,5.55496 C112.785122,5.34888 112.49524,5.21456 112.198133,5.14372 C111.900122,5.0738 111.588566,5.06368 111.286041,5.11612 C110.986224,5.16672 110.682796,5.267 110.422714,5.40776 L110.263776,5.359 L110.260163,5.25504 L110.262872,5.24768 L110.384786,4.96708 C110.411878,4.87048 110.447097,4.7748 110.466061,4.6782 C110.503087,4.48408 110.508505,4.29088 110.467867,4.1078 C110.423617,3.92748 110.323378,3.76648 110.188821,3.63584 C110.056071,3.50612 109.878168,3.40124 109.712908,3.34236 L109.612668,3.16388 L109.613571,3.15928 L109.674077,2.84832 C109.677689,2.74528 109.697556,2.6404 109.689429,2.53828 C109.689429,2.33312 109.636148,2.13716 109.55126,1.96052 C109.465469,1.7848 109.33001,1.63576 109.169265,1.52076 C109.012133,1.40484 108.815265,1.31284 108.636459,1.26684 L108.648199,1.26868 C108.314969,1.24568 107.975418,1.23188 107.656638,1.32756 C107.336051,1.40576 107.032622,1.55848 106.779765,1.77836 C106.52149,1.99272 106.30927,2.26412 106.131367,2.55852 C105.95798,2.852 105.814393,3.18044 105.728602,3.50704 L105.726796,3.51164 L105.631974,3.59536 C105.353832,3.62848 105.071173,3.6662 104.815607,3.77384 C104.561847,3.87964 104.330663,4.0434 104.183464,4.27892 C104.041684,4.5172 103.996531,4.81068 104.013689,5.09772 C104.030847,5.38752 104.09677,5.6764 104.189786,5.95516" id="Fill-1008-Copy" fill="#C3497C"></path>
                    <path d="M99.3358316,12.13112 C99.3358316,12.13112 101.082352,8.78784 101.614255,7.99848 C101.859888,7.63324 102.171444,7.27168 102.171444,7.27168 C102.472163,6.91104 103.479077,6.58076 104.592551,6.63136 C104.327954,7.61484 102.145255,10.68028 102.134418,10.54964 C101.775,11.34912 101.313536,12.25164 100.769893,13.06308 C100.169357,13.95732 99.3358316,12.13112 99.3358316,12.13112" id="Fill-1009-Copy" fill="#F8C74F"></path>
                    <path d="M108.933566,8.73908 C108.003413,6.79144 104.126571,6.03152 102.845128,7.0242 C101.46525,8.09232 100.856587,14.08336 100.856587,14.08336 L106.873684,15.01992 C106.873684,15.01992 109.71923,10.38496 108.933566,8.73908" id="Fill-1010-Copy" fill="#F8C74F"></path>
                    <path d="M106.674107,5.89444 C106.674107,5.89444 106.442923,6.9966 106.349005,7.09688 C106.256893,7.199 106.006745,7.28732 105.976041,6.98188 C105.947143,6.67644 106.363454,5.78772 106.363454,5.78772 L106.674107,5.89444" id="Fill-1011-Copy" fill="#EA8D9A"></path>
                    <path d="M106.09073,6.4538 C106.172005,6.25784 106.224383,6.06832 106.224383,6.06832 L106.595541,6.24036 C106.595541,6.24036 106.56574,6.3802 106.52149,6.57248 C106.390546,6.64884 106.172005,6.6746 106.09073,6.4538" id="Fill-1012-Copy" fill="#BA586D"></path>
                    <path d="M105.477551,5.35164 C105.442332,5.19892 105.564245,4.67636 105.68074,4.24396 C105.777367,3.88424 106.145816,3.67816 106.496204,3.7858 C107.038041,3.9514 107.628643,4.1676 107.767714,4.31848 C107.983546,4.554 107.899561,4.93304 107.844474,5.21548 C107.788485,5.49884 107.588908,5.98368 107.367658,6.17964 C107.165372,6.35812 106.678622,6.44184 106.427571,6.37652 C105.677128,6.17964 105.509158,5.9294 105.477551,5.35164" id="Fill-1013-Copy" fill="#ED9C9B"></path>
                    <path d="M109.125015,8.9654 C108.532607,7.659 107.010949,7.1116 107.010949,7.1116 C107.010949,7.1116 106.738224,8.79336 106.09073,10.42544 C105.25901,12.51936 103.487204,14.4808 103.487204,14.4808 C103.487204,14.4808 104.476959,14.71816 105.152449,14.79728 C105.590434,14.8488 106.873684,15.01992 106.873684,15.01992 C106.873684,15.01992 109.878168,10.626 109.125015,8.9654" id="Fill-1014-Copy" fill="#EC923D"></path>
                    <path d="M108.19125,7.95524 C108.640071,8.27724 109.16475,8.61948 109.070832,10.19728 C108.953434,12.16884 107.119316,14.076 105.47123,14.12568 C104.238551,14.16248 105.538056,12.93704 105.538056,12.93704 L107.036235,10.02892 C107.036235,10.02892 108.001607,7.81908 108.19125,7.95524" id="Fill-1015-Copy" fill="#EC923D"></path>
                    <path d="M101.678372,5.55772 C101.678372,8.62592 99.2355918,11.11452 96.2229796,11.11452 C93.2103673,11.11452 90.7684898,8.62592 90.7684898,5.55772 C90.7684898,2.4886 93.2103673,-8.17124146e-16 96.2229796,-8.17124146e-16 C99.2355918,-8.17124146e-16 101.678372,2.4886 101.678372,5.55772" id="Fill-1016-Copy" fill="#E0594E"></path>
                    <path d="M92.6125408,7.90464 C92.4048367,7.74548 92.26125,7.4382 92.1808776,6.98096 C92.1257908,6.65528 92.0896684,6.11892 92.0716071,5.3728 C92.0535459,4.5448 92.0968929,3.93944 92.2034541,3.5558 C92.3307857,3.09212 92.5719031,2.8244 92.9268061,2.75356 C93.1805663,2.70388 93.4072347,2.74528 93.6077143,2.87684 C93.8307704,3.02864 93.9553929,3.25588 93.9806786,3.5558 L93.5842347,3.58432 C93.5661735,3.3948 93.4948316,3.25772 93.3702092,3.17216 C93.2663571,3.10408 93.1471531,3.08384 93.0125969,3.11144 C92.8048929,3.15192 92.6585969,3.34972 92.5737092,3.70484 C92.4879184,4.06272 92.4545051,4.61472 92.4716633,5.3636 C92.4879184,6.01128 92.5159133,6.48968 92.5574541,6.79696 C92.6170561,7.23764 92.7209082,7.51364 92.8690102,7.62772 L92.9078418,7.65256 L92.9656378,7.6774 L93.1444439,7.68476 C93.3133163,7.66176 93.4343265,7.61576 93.5065714,7.55044 C93.5661735,7.49524 93.6022959,7.41428 93.6158418,7.30848 L94.0113827,7.3508 C93.9635204,7.74364 93.6935051,7.97456 93.2031429,8.04356 L93.0640714,8.05368 C92.8897806,8.05368 92.7389694,8.004 92.6125408,7.90464" id="Fill-1017-Copy" fill="#FFFFFE"></path>
                    <path d="M94.2642398,7.65624 L94.5947602,7.45016 L94.7889184,7.5992 L94.9830765,7.6176 C95.0896378,7.60288 95.1889745,7.55964 95.2828929,7.4888 C95.373199,7.41612 95.4373163,7.32964 95.476148,7.23028 C95.5574235,7.0196 95.5637449,6.75648 95.4969184,6.44184 C95.4291888,6.12996 95.2937296,5.8006 95.0923469,5.45468 C94.9957194,5.28724 94.9081224,5.11888 94.82775,4.95052 C94.7166735,4.71868 94.6308827,4.50248 94.5703776,4.301 C94.4051173,3.75268 94.4295,3.35156 94.6453316,3.09856 C94.7509898,2.97252 94.8683878,2.88328 94.9948163,2.83176 C95.09325,2.79128 95.1943929,2.7738 95.2982449,2.7784 C95.5474898,2.78576 95.7488724,2.89524 95.905102,3.10776 L95.5700663,3.31108 L95.4535714,3.197 L95.2828929,3.14088 C95.1736224,3.13628 95.0661582,3.19608 94.9595969,3.3212 C94.843102,3.45828 94.8295561,3.7076 94.9171531,4.0664 C95.0074592,4.42888 95.1835561,4.8346 95.4454439,5.2854 C95.6766276,5.67916 95.8265357,6.05728 95.8969745,6.417 C95.9692194,6.77764 95.9556735,7.0886 95.8536276,7.3508 C95.7895102,7.5164 95.6820459,7.65624 95.5312347,7.77032 C95.3813265,7.88624 95.2142602,7.95432 95.033648,7.97548 L94.9207653,7.98284 C94.6453316,7.98284 94.4267908,7.87428 94.2642398,7.65624" id="Fill-1018-Copy" fill="#FFFFFE"></path>
                    <path d="M96.2572959,7.65624 L96.5878163,7.45016 L96.7828776,7.5992 L96.9770357,7.6176 C97.0835969,7.60288 97.1829337,7.55964 97.276852,7.4888 C97.3671582,7.41612 97.4312755,7.32964 97.4701071,7.23028 C97.5504796,7.0196 97.5577041,6.75648 97.4899745,6.44184 C97.423148,6.12996 97.2876888,5.8006 97.0863061,5.45468 C96.9896786,5.28724 96.9020816,5.11888 96.8217092,4.95052 C96.7097296,4.71868 96.6239388,4.50248 96.5643367,4.301 C96.3990765,3.75268 96.4225561,3.35156 96.6392908,3.09856 C96.744949,2.97252 96.8614439,2.88328 96.9887755,2.83176 C97.0872092,2.79128 97.188352,2.7738 97.291301,2.7784 C97.541449,2.78576 97.7428316,2.89524 97.8981582,3.10776 L97.5640255,3.31108 L97.4475306,3.197 L97.276852,3.14088 C97.1666786,3.13628 97.0592143,3.19608 96.9535561,3.3212 C96.8370612,3.45828 96.8226122,3.7076 96.9102092,4.0664 C97.0014184,4.42888 97.1775153,4.8346 97.4394031,5.2854 C97.6705867,5.67916 97.8204949,6.05728 97.8909337,6.417 C97.9631786,6.77764 97.9496327,7.0886 97.8475867,7.3508 C97.7825663,7.5164 97.6760051,7.65624 97.5251939,7.77032 C97.3752857,7.88624 97.2082194,7.95432 97.0276071,7.97548 L96.9147245,7.98284 C96.6392908,7.98284 96.42075,7.87428 96.2572959,7.65624" id="Fill-1019-Copy" fill="#FFFFFE"></path>
                    <path d="M98.2521582,7.65256 L98.5664235,7.429 L98.6684694,7.53572 L98.7921888,7.64152 C98.8960408,7.71512 98.9845408,7.74088 99.060398,7.71604 C99.1850204,7.67372 99.2879694,7.53388 99.3719541,7.29744 C99.4613571,7.0426 99.4992857,6.74728 99.4839337,6.41332 C99.4685816,6.08764 99.4089796,5.8236 99.3060306,5.62212 L99.1687653,5.41604 L99.1028418,5.3452 L99.0721378,5.31668 L99.0414337,5.28908 L99.0062143,5.25596 L98.9709949,5.21732 L98.9041684,5.12532 C98.8626276,5.03976 98.869852,4.95604 98.9249388,4.87232 C98.9709949,4.80424 99.0360153,4.71408 99.1190969,4.60276 C99.325898,4.3286 99.4414898,4.10964 99.4640663,3.9468 C99.5056071,3.67724 99.4974796,3.45368 99.4378776,3.27888 L99.355699,3.11512 L99.3168673,3.06912 L99.2861633,3.0406 L99.134449,2.99092 C99.0567857,3.01024 98.9800255,3.08752 98.9041684,3.22184 C98.8292143,3.35432 98.7849643,3.4914 98.7723214,3.634 L98.3713622,3.60272 C98.3930357,3.40124 98.4571531,3.20896 98.5664235,3.02772 C98.6937551,2.81152 98.8508878,2.68272 99.0369184,2.6404 C99.2211429,2.59716 99.3927245,2.6404 99.5543724,2.76736 L99.6871224,2.90996 C99.7358878,2.97896 99.7774286,3.05808 99.8108418,3.14732 C99.8939235,3.3764 99.9110816,3.65976 99.8614133,3.99556 C99.8406429,4.14276 99.7891684,4.28996 99.7060867,4.43624 C99.6537092,4.52548 99.5688214,4.6506 99.4496173,4.80884 L99.3755663,4.9082 L99.3015153,5.01124 L99.3132551,5.02136 L99.3249949,5.0324 L99.3593112,5.0646 L99.3981429,5.09956 L99.4803214,5.1888 C99.548051,5.267 99.60675,5.35072 99.6546122,5.44088 C99.7873622,5.69204 99.8641224,6.01036 99.8848929,6.39584 C99.9029541,6.77212 99.857801,7.1116 99.7485306,7.41428 C99.6239082,7.76296 99.4414898,7.9764 99.2003724,8.05736 L99.002602,8.08864 C98.7497449,8.08864 98.5005,7.94328 98.2521582,7.65256" id="Fill-1020-Copy" fill="#FFFFFE"></path>
                    <path d="M95.7768673,10.60392 C96.6257449,10.70604 100.020352,11.64812 100.020352,11.64812 C100.020352,11.64812 101.652184,12.96556 100.309332,13.36852 C99.2771327,13.67764 98.2765408,13.78988 96.7621071,13.37128 C94.503551,12.7466 94.488199,11.06852 94.488199,11.06852 C94.488199,11.06852 94.9288929,10.50272 95.7768673,10.60392" id="Fill-1021-Copy" fill="#F8C74F"></path>
                    <path d="M94.8810306,11.01148 C94.8810306,11.01148 93.9508776,11.23412 93.7603316,11.02344 C93.5688827,10.81184 93.3602755,10.6858 93.4252959,10.57908 C93.4912194,10.47144 93.6844745,10.71524 93.6844745,10.71524 L93.485801,10.43096 L93.58875,10.4052 C93.58875,10.4052 93.5399847,10.4282 93.6248724,10.36748 C93.7088571,10.30676 94.1919949,10.55424 94.2958469,10.63152 C94.399699,10.7088 94.8674847,10.67752 95.0833163,10.82104 C95.1627857,10.8744 95.0869286,10.90476 94.8810306,11.01148" id="Fill-1022-Copy" fill="#EA8D9A"></path>
                    <path d="M101.17898,8.24228 C101.17898,8.24228 101.682888,7.9994 101.725332,7.6958 C101.765969,7.41152 101.591679,6.91748 101.556459,6.89448 C101.452607,6.82456 101.567296,7.30112 101.567296,7.30112 C101.567296,7.30112 101.44177,6.71968 101.316245,6.73624 L101.290959,6.94784 C101.290959,6.94784 101.307214,6.8632 101.206974,6.88804 C101.105832,6.91288 101.177173,7.33056 101.164531,7.4612 C101.153694,7.59092 100.846653,7.88532 100.809628,8.14568 C100.796082,8.24136 100.964954,8.32784 101.17898,8.24228" id="Fill-1023-Copy" fill="#EA8D9A"></path>
                    <path d="M105.24998,14.1358 C104.017301,14.0944 99.9616531,10.52204 100.663332,8.76668 C100.924316,8.1144 101.382168,8.0914 101.382168,8.0914 L106.023,12.27096 C106.023,12.27096 106.733709,14.18456 105.24998,14.1358" id="Fill-1024-Copy" fill="#EC923D"></path>
                    <path d="M105.236434,11.1274 L106.061832,11.94896 L105.894765,11.94436 C106.358036,11.57636 106.804148,11.1688 107.211429,10.72904 C107.412811,10.50732 107.605163,10.27548 107.774939,10.02708 C107.940199,9.77684 108.091913,9.51096 108.163255,9.2138 C108.113587,9.51556 107.979031,9.79708 107.828219,10.06204 C107.673796,10.32608 107.496796,10.5754 107.307153,10.81368 C106.926061,11.29116 106.507041,11.73092 106.05551,12.14584 L105.895668,12.14768 L105.888444,12.14124 L105.01699,11.37028 L105.236434,11.1274" id="Fill-1025-Copy" fill="#F8C74F"></path>
                    <path d="M106.272245,4.67268 C106.262311,4.85208 106.175617,5.02136 106.007648,5.0968 C105.737633,5.21548 105.488388,4.95512 105.486582,4.692 C105.485679,4.52272 105.581403,4.35712 105.730408,4.27984 C106.016679,4.13172 106.257796,4.4022 106.272245,4.67268 L106.432087,4.692 C106.39777,4.02868 105.329449,3.98452 105.326735,4.67268 C105.324031,5.34428 106.396867,5.37096 106.432087,4.692 L106.272245,4.67268" id="Fill-1026-Copy" fill="#FFFFFE"></path>
                    <path d="M107.598842,5.014 C107.589811,5.19248 107.504923,5.36268 107.336954,5.43904 C107.072357,5.55864 106.811372,5.32772 106.810469,5.05632 C106.809566,4.89072 106.89626,4.73616 107.036235,4.65244 C107.315281,4.485 107.584393,4.7242 107.598842,5.014 L107.755974,5.05632 C107.721658,4.40128 106.657852,4.31388 106.653328,5.014 C106.649724,5.67732 107.719852,5.74632 107.755974,5.05632 L107.598842,5.014" id="Fill-1027-Copy" fill="#FFFFFE"></path>
                    <path d="M106.36526,4.82724 C106.48898,4.80148 106.60999,4.8438 106.693071,4.9404 L106.770735,4.92568 C106.66327,4.80148 106.49801,4.76376 106.341781,4.79596 L106.36526,4.82724" id="Fill-1028-Copy" fill="#FFFFFE"></path>
                    <path d="M104.876112,6.58996 C104.876112,6.58996 104.830959,8.5652 104.94023,8.72252 C105.0495,8.87984 107.374883,7.27812 107.374883,7.27812 C107.374883,7.27812 106.004939,6.51084 104.876112,6.58996" id="Fill-1029-Copy" fill="#EA8D9A"></path>
                    <path d="M107.047064,3.37088 C107.047064,3.37088 107.034429,5.48964 108.089204,5.78772 C109.144883,6.08396 108.541638,4.14736 108.541638,4.14736 L107.047064,3.37088" id="Fill-1030-Copy" fill="#B43866"></path>
                </g>
            </g>
        </g>
    </g>
</svg>