<?xml version="1.0" encoding="UTF-8"?>
<svg width="432px" height="273px" viewBox="0 0 432 273" version="1.1" xmlns="http://www.w3.org/2000/svg" xmlns:xlink="http://www.w3.org/1999/xlink">
    <title>illustration 6</title>
    <defs>
        <path d="M81.1349721,19.5079646 C48.2084469,19.5079646 19.4470615,17.7946903 3.98732961,15.2442478 C3.26147486,12.460177 2.58189944,9.71747788 1.94373184,6.98938053 C16.8140112,4.24424779 46.6958436,2.37035398 81.1349721,2.37035398 C130.407844,2.37035398 170.351777,6.20575221 170.351777,10.9391593 C170.351777,15.6701327 130.407844,19.5079646 81.1349721,19.5079646" id="path-1"></path>
        <linearGradient x1="-4.38675152%" y1="-249.602386%" x2="533.947064%" y2="-249.602386%" id="linearGradient-3">
            <stop stop-color="#D6DBE2" offset="0%"></stop>
            <stop stop-color="#A19859" offset="100%"></stop>
        </linearGradient>
        <path d="M132.086078,19.1721239 C59.6978994,19.1721239 1.01327374,15.3367257 1.01327374,10.6057522 C1.01327374,5.87234513 59.6978994,2.0369469 132.086078,2.0369469 C204.476693,2.0369469 263.161318,5.87234513 263.161318,10.6057522 C263.161318,15.3367257 204.476693,19.1721239 132.086078,19.1721239" id="path-4"></path>
        <path d="M114.407374,52.7099558 C114.621721,50.3469027 115.36219,48.0665929 117.020939,46.2316372 C117.936782,45.2168142 119.12543,44.4429204 120.448045,44.0900442 C126.958816,42.3524336 129.984022,51.1767699 136.411978,49.6168142 C138.212,49.1787611 139.736782,47.9668142 140.725698,46.4044248 C142.92762,42.9243363 142.530592,38.7433628 141.512447,34.9493363 C140.594168,31.5300885 139.081564,28.0865044 136.107508,26.0641593 C134.592469,25.0347345 132.746168,24.5261062 130.924223,24.7086283 C126.522816,25.1466814 125.779911,28.960177 123.590168,31.5179204 C121.712201,33.7057522 118.708916,34.8763274 115.844469,34.5356195 C115.367061,34.4772124 114.894525,34.3798673 114.434168,34.2435841 C111.394346,33.340708 109.204603,30.6734513 108.578615,27.5681416 L103.300335,1.3579646 C103.241877,1.07079646 102.961765,0.885840708 102.674346,0.946681416 L78.2145028,6.23495575 C75.7129832,6.77522124 73.5013184,8.34977876 72.3638212,10.639823 C71.9229497,11.5280973 71.6282235,12.4820796 71.5113073,13.4676991 C71.1703017,16.329646 72.3418994,19.3327434 74.5340782,21.2066372 C77.0916201,23.394469 80.9084469,24.1367257 81.3468827,28.534292 C81.5295642,30.354646 81.0229274,32.1993363 79.9901676,33.7130531 C77.9660559,36.6845133 74.5218994,38.1957965 71.0996648,39.1132743 C67.2998883,40.130531 63.1176983,40.5272124 59.6321341,38.3272124 C58.0659441,37.3391593 56.8529385,35.815708 56.4169385,34.0172566 C54.8556201,27.5949115 63.6876648,24.5723451 61.9485363,18.0672566 C61.595352,16.7457965 60.8232179,15.5581858 59.8050726,14.6431416 C57.1135642,12.2143805 53.4672402,11.7568584 50.0035978,12.0367257 L49.3995307,12.1243363 L24.8544358,17.2763274 C24.5694525,17.3347345 24.3892067,17.6146018 24.4476648,17.8969027 L29.6333855,42.5641593 C29.9329832,43.980531 30.1083575,45.4261062 30.0547709,46.8765487 C29.9573408,49.5559735 29.2558436,52.1891593 27.3876201,54.2577434 C26.4693408,55.2725664 25.2806927,56.0464602 23.9580782,56.3993363 C17.4473073,58.1393805 14.4221006,49.3126106 7.99414525,50.8725664 C6.19412291,51.3081858 4.66934078,52.5201327 3.68042458,54.0849558 C1.47850279,57.5674779 1.87796648,61.7460177 2.89367598,65.5424779 C3.81195531,68.959292 5.32699441,72.4004425 8.30105028,74.4252212 C9.81365363,75.454646 11.6599553,75.9632743 13.4843352,75.7831858 C17.8833073,75.3426991 18.6262123,71.5292035 20.8159553,68.9738938 C22.6939218,66.7836283 25.6972067,65.6130531 28.5640894,65.9537611 C29.0390615,66.0097345 29.5115978,66.1095133 29.9719553,66.2457965 C32.9995978,67.1462389 35.1893408,69.7891593 35.8372514,72.8774336 L40.9718212,97.2988938 C41.0327151,97.5836283 41.3128268,97.7637168 41.5978101,97.7028761 L66.7469721,92.2710177 C69.8257654,91.6090708 72.4539441,89.4236726 73.3503017,86.4059735 C73.4867039,85.9484513 73.5865698,85.4738938 73.6425922,84.9993363 C73.9860335,82.1349558 72.8144358,79.134292 70.622257,77.2603982 C68.0622793,75.0701327 64.2454525,74.3254425 63.8070168,69.9327434 C63.6243352,68.1099558 64.1334078,66.2652655 65.1637318,64.7539823 C67.1902793,61.7825221 70.6344358,60.2688053 74.0566704,59.3513274 C77.8540112,58.3340708 82.0386369,57.9373894 85.5217654,60.1373894 C87.0879553,61.1278761 88.3009609,62.6513274 88.7393966,64.4473451 C90.2982793,70.8721239 81.4662346,73.8946903 83.2077989,80.3997788 C83.5609832,81.7212389 84.3331173,82.9064159 85.3488268,83.8238938 C88.052514,86.2623894 91.718324,86.7126106 95.196581,86.4254425 L95.7129609,86.35 L119.378749,81.3829646 C119.663732,81.3221239 119.846413,81.0422566 119.783084,80.7575221 L114.816581,58.0615044 C114.431732,56.3044248 114.244179,54.5011062 114.407374,52.7099558" id="path-6"></path>
        <linearGradient x1="-0.000534866728%" y1="49.9998811%" x2="99.9998462%" y2="49.9998811%" id="linearGradient-8">
            <stop stop-color="#595191" offset="0%"></stop>
            <stop stop-color="#DC749B" offset="100%"></stop>
        </linearGradient>
        <path d="M62.7718212,0.450221239 C64.7131173,0.450221239 66.6519777,1.00995575 68.164581,2.22433628 C69.5943687,3.37057522 70.7099441,4.91106195 71.2969609,6.64623894 C72.3029274,9.62013274 71.7256536,13.0783186 69.8087151,15.5679204 C67.5751285,18.4688053 63.675486,20.1163717 64.1918659,24.8960177 C64.4037765,26.8769912 65.3585922,28.7289823 66.7981229,30.1088496 C69.621162,32.8247788 73.6304134,33.6643805 77.4813408,33.8761062 C81.7512179,34.1097345 86.2914637,33.5986726 89.5115307,30.4860619 C90.9802905,29.064823 91.9399777,27.1349558 91.9838212,25.0931416 C92.1177877,18.8557522 84.4670838,17.1108407 82.8156425,11.8858407 C81.8778771,8.92168142 83.276,5.57300885 85.6338101,3.54579646 C85.6338101,3.54579646 89.0341229,0.30420354 95.8371844,0.450221239 C95.8371844,0.450221239 120.711106,0.450221239 121.349274,0.450221239 C121.972827,0.450221239 121.378503,84.1232301 121.349274,87.9756637 L121.205564,88.1119469 L34.285676,88.1119469 L34.1419665,87.9683628 L34.1419665,62.5004425 C34.1419665,59.6847345 33.5135419,56.8909292 32.2104134,54.3964602 C31.8206927,53.6493363 31.4139218,53.0044248 31.0436872,52.6515487 C28.7833073,50.5172566 25.6606704,48.9013274 22.6963575,49.8358407 C17.4667933,51.4882743 15.7203575,59.1323009 9.47751955,58.9984513 C7.43392179,58.9522124 5.50236872,57.9957965 4.07988827,56.525885 C0.964558659,53.3110619 0.453050279,48.7723451 0.686882682,44.5061947 C0.898793296,40.6586283 1.73912849,36.6528761 4.45499441,33.8323009 C5.83606704,32.3964602 7.68967598,31.4424779 9.67481564,31.2283186 C14.4610726,30.714823 16.1052067,34.6086283 19.0110615,36.8426991 C21.502838,38.755531 24.9640447,39.3323009 27.9405363,38.3272124 C28.4374302,38.159292 28.9172737,37.95 29.3776313,37.7017699 C32.4004022,36.0663717 34.1419665,32.7590708 34.1419665,29.3252212 L34.1419665,0.591371681 L34.285676,0.445353982 L62.7718212,0.450221239" id="path-9"></path>
        <linearGradient x1="49.9997796%" y1="-7.14543486%" x2="49.9997796%" y2="132.081726%" id="linearGradient-11">
            <stop stop-color="#595191" offset="0%"></stop>
            <stop stop-color="#DC749B" offset="100%"></stop>
        </linearGradient>
    </defs>
    <g id="design" stroke="none" stroke-width="1" fill="none" fill-rule="evenodd">
        <g id="Full-method" transform="translate(-551.000000, -4445.000000)">
            <g id="illustration-6" transform="translate(549.000000, 4445.000000)">
                <g id="Group-17">
                    <g id="Group-1518-Copy" transform="translate(7.307263, 253.097345)">
                        <mask id="mask-2" fill="white">
                            <use xlink:href="#path-1"></use>
                        </mask>
                        <g id="Clip-1517"></g>
                        <path d="M81.1349721,19.5079646 C48.2084469,19.5079646 19.4470615,17.7946903 3.98732961,15.2442478 C3.26147486,12.460177 2.58189944,9.71747788 1.94373184,6.98938053 C16.8140112,4.24424779 46.6958436,2.37035398 81.1349721,2.37035398 C130.407844,2.37035398 170.351777,6.20575221 170.351777,10.9391593 C170.351777,15.6701327 130.407844,19.5079646 81.1349721,19.5079646" id="Fill-1516" fill="url(#linearGradient-3)" mask="url(#mask-2)"></path>
                    </g>
                    <g id="Group-1521-Copy" transform="translate(170.502793, 233.628319)">
                        <mask id="mask-5" fill="white">
                            <use xlink:href="#path-4"></use>
                        </mask>
                        <g id="Clip-1520"></g>
                        <path d="M132.086078,19.1721239 C59.6978994,19.1721239 1.01327374,15.3367257 1.01327374,10.6057522 C1.01327374,5.87234513 59.6978994,2.0369469 132.086078,2.0369469 C204.476693,2.0369469 263.161318,5.87234513 263.161318,10.6057522 C263.161318,15.3367257 204.476693,19.1721239 132.086078,19.1721239" id="Fill-1519" fill="#D6DBE2" mask="url(#mask-5)"></path>
                    </g>
                    <g id="Group-1528-Copy">
                        <mask id="mask-7" fill="white">
                            <use xlink:href="#path-6"></use>
                        </mask>
                        <g id="Clip-1527"></g>
                        <path d="M114.407374,52.7099558 C114.621721,50.3469027 115.36219,48.0665929 117.020939,46.2316372 C117.936782,45.2168142 119.12543,44.4429204 120.448045,44.0900442 C126.958816,42.3524336 129.984022,51.1767699 136.411978,49.6168142 C138.212,49.1787611 139.736782,47.9668142 140.725698,46.4044248 C142.92762,42.9243363 142.530592,38.7433628 141.512447,34.9493363 C140.594168,31.5300885 139.081564,28.0865044 136.107508,26.0641593 C134.592469,25.0347345 132.746168,24.5261062 130.924223,24.7086283 C126.522816,25.1466814 125.779911,28.960177 123.590168,31.5179204 C121.712201,33.7057522 118.708916,34.8763274 115.844469,34.5356195 C115.367061,34.4772124 114.894525,34.3798673 114.434168,34.2435841 C111.394346,33.340708 109.204603,30.6734513 108.578615,27.5681416 L103.300335,1.3579646 C103.241877,1.07079646 102.961765,0.885840708 102.674346,0.946681416 L78.2145028,6.23495575 C75.7129832,6.77522124 73.5013184,8.34977876 72.3638212,10.639823 C71.9229497,11.5280973 71.6282235,12.4820796 71.5113073,13.4676991 C71.1703017,16.329646 72.3418994,19.3327434 74.5340782,21.2066372 C77.0916201,23.394469 80.9084469,24.1367257 81.3468827,28.534292 C81.5295642,30.354646 81.0229274,32.1993363 79.9901676,33.7130531 C77.9660559,36.6845133 74.5218994,38.1957965 71.0996648,39.1132743 C67.2998883,40.130531 63.1176983,40.5272124 59.6321341,38.3272124 C58.0659441,37.3391593 56.8529385,35.815708 56.4169385,34.0172566 C54.8556201,27.5949115 63.6876648,24.5723451 61.9485363,18.0672566 C61.595352,16.7457965 60.8232179,15.5581858 59.8050726,14.6431416 C57.1135642,12.2143805 53.4672402,11.7568584 50.0035978,12.0367257 L49.3995307,12.1243363 L24.8544358,17.2763274 C24.5694525,17.3347345 24.3892067,17.6146018 24.4476648,17.8969027 L29.6333855,42.5641593 C29.9329832,43.980531 30.1083575,45.4261062 30.0547709,46.8765487 C29.9573408,49.5559735 29.2558436,52.1891593 27.3876201,54.2577434 C26.4693408,55.2725664 25.2806927,56.0464602 23.9580782,56.3993363 C17.4473073,58.1393805 14.4221006,49.3126106 7.99414525,50.8725664 C6.19412291,51.3081858 4.66934078,52.5201327 3.68042458,54.0849558 C1.47850279,57.5674779 1.87796648,61.7460177 2.89367598,65.5424779 C3.81195531,68.959292 5.32699441,72.4004425 8.30105028,74.4252212 C9.81365363,75.454646 11.6599553,75.9632743 13.4843352,75.7831858 C17.8833073,75.3426991 18.6262123,71.5292035 20.8159553,68.9738938 C22.6939218,66.7836283 25.6972067,65.6130531 28.5640894,65.9537611 C29.0390615,66.0097345 29.5115978,66.1095133 29.9719553,66.2457965 C32.9995978,67.1462389 35.1893408,69.7891593 35.8372514,72.8774336 L40.9718212,97.2988938 C41.0327151,97.5836283 41.3128268,97.7637168 41.5978101,97.7028761 L66.7469721,92.2710177 C69.8257654,91.6090708 72.4539441,89.4236726 73.3503017,86.4059735 C73.4867039,85.9484513 73.5865698,85.4738938 73.6425922,84.9993363 C73.9860335,82.1349558 72.8144358,79.134292 70.622257,77.2603982 C68.0622793,75.0701327 64.2454525,74.3254425 63.8070168,69.9327434 C63.6243352,68.1099558 64.1334078,66.2652655 65.1637318,64.7539823 C67.1902793,61.7825221 70.6344358,60.2688053 74.0566704,59.3513274 C77.8540112,58.3340708 82.0386369,57.9373894 85.5217654,60.1373894 C87.0879553,61.1278761 88.3009609,62.6513274 88.7393966,64.4473451 C90.2982793,70.8721239 81.4662346,73.8946903 83.2077989,80.3997788 C83.5609832,81.7212389 84.3331173,82.9064159 85.3488268,83.8238938 C88.052514,86.2623894 91.718324,86.7126106 95.196581,86.4254425 L95.7129609,86.35 L119.378749,81.3829646 C119.663732,81.3221239 119.846413,81.0422566 119.783084,80.7575221 L114.816581,58.0615044 C114.431732,56.3044248 114.244179,54.5011062 114.407374,52.7099558" id="Fill-1526" fill="url(#linearGradient-8)" mask="url(#mask-7)"></path>
                    </g>
                    <path d="M136.075844,76.3526549 C138.358145,66.6862832 126.81267,56.2289823 122.477028,50.8068584 C121.290816,49.3247788 120.309207,47.8256637 120.309207,47.8256637 C123.653497,46.350885 122.903285,42.9900442 122.221274,41.315708 C121.536827,39.6389381 120.055888,41.7294248 119.232603,41.9752212 C117.383866,42.5325221 117.902682,45.1121681 116.869922,46.4044248 C116.324313,47.0834071 127.263285,73.7438053 127.263285,73.7438053 C127.263285,73.7438053 122.031285,85.5858407 112.90695,90.3849558 C111.16295,91.3 133.503687,87.2480088 136.075844,76.3526549" id="Fill-1529-Copy" fill="#EA8D9A"></path>
                    <path d="M130.790257,262.960841 C131.036268,260.227876 127.477631,260.661062 125.409676,260.298451 C125.977207,260.626991 126.671397,261.106416 125.80914,261.388717 C124.542547,261.8 121.72438,261.503097 120.857251,260.609956 C120.572268,261.310841 120.53086,262.26969 120.564961,262.92677 C120.606369,263.768805 130.726927,263.681195 130.790257,262.960841" id="Fill-1532-Copy" fill="#231829"></path>
                    <path d="M125.80914,261.388717 C126.671397,261.106416 126.917408,260.488274 125.575307,260.320354 C124.376916,260.174336 123.390436,259.777655 123.171218,259.687611 C122.601251,259.461283 122.357676,258.573009 122.357676,258.573009 L121.283508,258.587611 L120.857251,260.609956 C121.72438,261.503097 124.542547,261.8 125.80914,261.388717" id="Fill-1533-Copy" fill="#EA8D9A"></path>
                    <path d="M107.952626,133.078097 C103.770436,124.239159 100.672156,118.936283 98.9939218,118.16969 C94.1077989,118.413053 71.7134749,121.79823 69.7624358,121.87854 C68.1597095,122.793584 66.3377654,128.410398 63.9994413,138.293363 C58.2924693,162.425221 62.6695196,260.376327 62.6695196,260.376327 L67.7651173,260.588053 C67.7651173,260.588053 73.2090279,217.787832 79.2837989,187.294469 C83.1420335,167.925221 88.388648,149.283628 88.5396648,149.05 C91.2165587,157.516593 115.520514,241.970796 118.175486,256.976549 C118.623665,259.512389 123.680291,260.926327 123.68273,258.845575 C123.687598,243.396903 118.565207,155.494248 107.952626,133.078097" id="Fill-1534-Copy" fill="#2F2646"></path>
                    <path d="M107.952626,133.078097 C103.770436,124.239159 100.672156,118.936283 98.9939218,118.16969 C97.3619665,118.25 89.657676,119.225885 89.657676,119.225885 C89.657676,119.225885 102.326034,145.526106 110.402994,177.849558 C119.73924,215.203319 121.242101,259.770354 122.058078,259.838496 C122.96905,259.913938 123.680291,259.624336 123.68273,258.845575 C123.687598,243.396903 118.565207,155.494248 107.952626,133.078097" id="Fill-1535-Copy" fill="#231829"></path>
                    <path d="M127.104961,73.2449115 C127.104961,73.2449115 133.111531,75.6590708 136.382749,73.2692478 C136.382749,73.2692478 140.669676,88.3650442 116.58981,92.7017699 C114.582749,93.0668142 108.327732,93.3807522 106.668983,93.6411504 C90.5369832,96.184292 92.8363352,96.1429614 92.8363352,96.1429614 C92.8363352,96.1429614 92.1299665,85.1891593 97.0964693,84.7146018 C110.870659,83.4028761 115.695888,81.8745575 120.309207,79.1732301 C124.730101,76.5814159 126.250011,75.199115 126.807799,74.3716814 C127.37533,73.5272124 127.104961,73.2449115 127.104961,73.2449115" id="Fill-1537-Copy" fill="#8DB1C7"></path>
                    <path d="M116.321877,64.9438053 L119.783084,80.7575221 C119.846413,81.0422566 119.663732,81.3221239 119.378749,81.3829646 L95.7129609,86.35 L95.196581,86.4254425 C94.3757318,86.4935841 93.5475754,86.520354 92.7218547,86.4887168 C91.9497207,86.4619469 91.1800223,86.3840708 90.4273743,86.2380531 C88.5737654,85.885177 86.8200223,85.1477876 85.3488268,83.8238938 L116.321877,64.9438053" id="Fill-1540-Copy" fill="#573265"></path>
                    <path d="M69.7624358,85.9143805 C69.7624358,85.9143805 74.7752179,83.5683628 78.786905,84.3252212 C84.1918436,85.3449115 92.3735419,86.0238938 98.0464134,85.4884956 C101.468648,85.1672566 111.779196,84.7146018 111.779196,84.7146018 L98.9939218,118.16969 C98.9939218,118.16969 86.9442458,122.340929 82.7498771,122.827655 C73.6693855,123.88385 69.7624358,121.87854 69.7624358,121.87854 C69.7624358,121.87854 68.5567374,111.618363 68.4958436,108.179646 C68.3984134,102.606637 69.7624358,85.9143805 69.7624358,85.9143805" id="Fill-1541-Copy" fill="#A7C4DA"></path>
                    <path d="M96.4656089,85.5761062 L103.850816,84.9384956 L111.779196,84.7146018 L98.9939218,118.16969 L90.3664804,120.953761 C90.3664804,120.953761 95.3963128,112.05885 97.1500559,102.832965 C98.7917542,94.2081858 96.4656089,85.5761062 96.4656089,85.5761062" id="Fill-1547-Copy" fill="#8DB1C7"></path>
                    <path d="M417.695307,240.065265 C414.623821,240.291593 415.184045,236.154425 414.821117,233.735398 C415.179173,234.40708 415.700425,235.227212 416.036559,234.226991 C416.523709,232.761947 416.250905,229.469248 415.26686,228.44469 C416.05848,228.125885 417.135084,228.096681 417.873117,228.150221 C418.820626,228.218363 418.508849,240.006858 417.695307,240.065265" id="Fill-1551-Copy" fill="#231829"></path>
                    <path d="M416.036559,234.226991 C415.700425,235.227212 414.998927,235.499779 414.843039,233.930088 C414.701765,232.533186 414.277944,231.374779 414.18295,231.116814 C413.939374,230.447566 412.948022,230.145796 412.948022,230.145796 L412.984559,228.894912 C412.984559,228.894912 415.037899,228.534735 415.26686,228.44469 C416.250905,229.469248 416.523709,232.761947 416.036559,234.226991" id="Fill-1552-Copy" fill="#EA8D9A"></path>
                    <g id="Group-1555-Copy" transform="translate(153.452514, 158.185841)">
                        <mask id="mask-10" fill="white">
                            <use xlink:href="#path-9"></use>
                        </mask>
                        <g id="Clip-1554"></g>
                        <path d="M62.7718212,0.450221239 C64.7131173,0.450221239 66.6519777,1.00995575 68.164581,2.22433628 C69.5943687,3.37057522 70.7099441,4.91106195 71.2969609,6.64623894 C72.3029274,9.62013274 71.7256536,13.0783186 69.8087151,15.5679204 C67.5751285,18.4688053 63.675486,20.1163717 64.1918659,24.8960177 C64.4037765,26.8769912 65.3585922,28.7289823 66.7981229,30.1088496 C69.621162,32.8247788 73.6304134,33.6643805 77.4813408,33.8761062 C81.7512179,34.1097345 86.2914637,33.5986726 89.5115307,30.4860619 C90.9802905,29.064823 91.9399777,27.1349558 91.9838212,25.0931416 C92.1177877,18.8557522 84.4670838,17.1108407 82.8156425,11.8858407 C81.8778771,8.92168142 83.276,5.57300885 85.6338101,3.54579646 C85.6338101,3.54579646 89.0341229,0.30420354 95.8371844,0.450221239 C95.8371844,0.450221239 120.711106,0.450221239 121.349274,0.450221239 C121.972827,0.450221239 121.378503,84.1232301 121.349274,87.9756637 L121.205564,88.1119469 L34.285676,88.1119469 L34.1419665,87.9683628 L34.1419665,62.5004425 C34.1419665,59.6847345 33.5135419,56.8909292 32.2104134,54.3964602 C31.8206927,53.6493363 31.4139218,53.0044248 31.0436872,52.6515487 C28.7833073,50.5172566 25.6606704,48.9013274 22.6963575,49.8358407 C17.4667933,51.4882743 15.7203575,59.1323009 9.47751955,58.9984513 C7.43392179,58.9522124 5.50236872,57.9957965 4.07988827,56.525885 C0.964558659,53.3110619 0.453050279,48.7723451 0.686882682,44.5061947 C0.898793296,40.6586283 1.73912849,36.6528761 4.45499441,33.8323009 C5.83606704,32.3964602 7.68967598,31.4424779 9.67481564,31.2283186 C14.4610726,30.714823 16.1052067,34.6086283 19.0110615,36.8426991 C21.502838,38.755531 24.9640447,39.3323009 27.9405363,38.3272124 C28.4374302,38.159292 28.9172737,37.95 29.3776313,37.7017699 C32.4004022,36.0663717 34.1419665,32.7590708 34.1419665,29.3252212 L34.1419665,0.591371681 L34.285676,0.445353982 L62.7718212,0.450221239" id="Fill-1553" fill="url(#linearGradient-11)" mask="url(#mask-10)"></path>
                    </g>
                    <path d="M336.031777,154.647345 C338.111911,166.511283 352.492603,188.993142 352.492603,188.993142 L414.560492,228.712389 L412.024872,233.190265 C412.024872,233.190265 361.395285,215.371239 341.587732,205.259513 C331.16514,199.939602 308.885296,164.871018 305.959955,161.147566 C306.31314,157.969248 311.771665,144.092699 318.260514,134.170796 C322.152849,128.218142 334.15381,143.934513 336.031777,154.647345" id="Fill-1556-Copy" fill="#231829"></path>
                    <path d="M275.824804,122.219248 C273.817743,120.700664 271.910547,123.603982 269.96438,124.82323 C267.336201,126.468363 260.603777,133.810619 255.264603,139.179204 C240.562391,146.153982 226.425274,160.867699 226.425274,160.867699 C225.416872,160.612168 224.016313,157.976549 221.164045,158.027655 C217.432469,158.093363 217.137743,159.964823 218.37267,160.232522 C219.488246,160.478319 219.821944,159.857743 220.896112,160.140044 C221.643888,160.337168 221.478257,160.660841 222.116425,160.828761 C221.315061,160.948009 219.556447,160.892035 220.053341,161.271681 C221.234682,162.179425 225.049073,163.459513 225.633654,163.308628 C226.568983,163.065265 260.38943,144.350664 260.38943,144.350664 C260.38943,144.350664 280.248134,125.572788 275.824804,122.219248" id="Fill-1557-Copy" fill="#EA8D9A"></path>
                    <path d="M320.674346,245.730752 C320.245654,242.564602 324.257341,242.854204 326.556693,242.311504 C325.935575,242.730088 325.185363,243.328761 326.169408,243.603761 C327.611374,244.007743 330.755933,243.494248 331.674212,242.403982 C332.034704,243.202212 332.137006,244.316814 332.137006,245.080973 C332.137006,246.069027 320.788827,246.56792 320.674346,245.730752" id="Fill-1558-Copy" fill="#231829"></path>
                    <path d="M326.169408,243.603761 C325.185363,243.328761 324.873587,242.620575 326.36914,242.348009 C327.703933,242.104646 328.787844,241.58385 329.028983,241.469469 C329.654972,241.167699 329.876626,240.121239 329.876626,240.121239 L331.079888,240.072566 C331.079888,240.072566 331.569475,242.172788 331.674212,242.403982 C330.755933,243.494248 327.611374,244.007743 326.169408,243.603761" id="Fill-1559-Copy" fill="#EA8D9A"></path>
                    <path d="M314.163575,175.990265 L288.110749,193.412611 L330.675553,239.157522 C331.316156,239.846239 331.02143,240.994912 330.134816,241.257743 L329.925341,241.323451 C329.031419,241.588717 328.076603,241.532743 327.216782,241.160398 C319.044827,237.604867 275.883263,218.004425 268.561385,197.608186 C264.301251,185.739381 296.14143,152.184513 296.487307,147.156637 C298.952291,145.002876 312.699687,138.544027 324.500916,135.864602 C326.622458,135.38031 327.872,137.90885 328.580804,141.688274 C331.08476,155.051327 325.190235,168.618805 314.163575,175.990265" id="Fill-1560-Copy" fill="#2F2646"></path>
                    <path d="M296.445899,147.424336 C296.445899,147.424336 314.47048,144.684071 326.052492,135.993584 C326.052492,135.993584 309.089899,110.262832 300.891151,107.999558 C297.123039,106.962832 283.580246,112.543142 278.143642,117.120796 C272.709475,121.703319 268.169229,126.792035 268.169229,126.792035 C268.169229,126.792035 281.166413,135.453319 286.145095,138.996681 C291.520804,142.819912 297.366615,146.835398 296.445899,147.424336" id="Fill-1561-Copy" fill="#A7C4DA"></path>
                    <path d="M299.242145,112.251106 C297.132782,111.387168 295.379039,112.662389 294.314615,114.446239 C292.507285,117.473673 287.942682,133.182743 286.145095,138.996681 C269.581966,144.589159 255.549587,158.636062 255.549587,158.636062 C254.624,158.271018 253.393944,157.794027 250.670771,157.677212 C249.172782,157.613938 246.469095,158.560619 247.942726,159.027876 C248.882927,159.327212 249.645318,158.777212 251.640201,159.327212 C254.110056,160.008628 254.541184,161.242478 254.88219,161.181637 C255.854056,161.001549 289.119151,144.920133 289.119151,144.920133 C289.119151,144.920133 310.069073,116.694912 299.242145,112.251106" id="Fill-1562-Copy" fill="#EA8D9A"></path>
                    <path d="M226.425274,160.867699 C226.425274,160.867699 227.811218,163.590929 231.601251,163.145575 C235.396156,162.697788 255.854056,150.34469 262.691218,144.056195 C267.058525,140.040708 277.266771,126.288274 278.160693,125.643363 C279.052179,125.000885 278.165564,117.120796 278.165564,117.120796 C278.165564,117.120796 261.402704,128.568584 255.323061,138.288496 C255.323061,138.288496 231.822905,148.108186 226.425274,160.867699" id="Fill-1563-Copy" fill="#8DB1C7"></path>
                    <path d="M296.31924,147.833186 C296.31924,147.833186 298.204514,147.891593 301.417274,146.828097 C303.592402,146.112611 307.036559,144.927434 307.036559,144.927434 C307.036559,144.927434 294.872402,137.261504 288.247151,128.425 C283.217318,121.715487 287.172983,111.664602 284.53019,113.046903 C282.006749,114.363496 279.731754,115.787168 278.143642,117.120796 C272.709475,121.703319 268.169229,126.792035 268.169229,126.792035 C268.169229,126.792035 281.166413,135.453319 286.145095,138.996681 C291.520804,142.819912 295.949006,147.424336 296.31924,147.833186" id="Fill-1564-Copy" fill="#8DB1C7"></path>
                    <path d="M255.249989,159.113053 C255.035642,159.475664 256.611575,165.588938 261.780246,164.58385 C266.94648,163.576327 290.263955,145.044248 290.263955,145.044248 C290.263955,145.044248 305.882011,121.360177 303.304983,114.451106 C300.727955,107.542035 296.609095,110.922345 294.804201,112.416593 C292.999307,113.910841 286.07933,137.17146 286.07933,137.17146 C286.07933,137.17146 262.172402,147.54115 255.249989,159.113053" id="Fill-1565-Copy" fill="#A7C4DA"></path>
                    <path d="M281.020268,112.134292 C281.020268,112.134292 283.197832,117.383628 284.011374,117.568584 C284.824916,117.755973 286.98543,117.232743 287.185162,115.395354 C287.382458,113.562832 283.660626,110.262832 283.660626,110.262832 L281.020268,112.134292" id="Fill-1566-Copy" fill="#EA8D9A"></path>
                    <path d="M282.754525,115.85531 C284.038168,115.531637 285.577564,114.767478 286.505587,113.475221 C285.959978,112.625885 285.192715,111.771681 284.588648,111.158407 L281.534212,113.321903 C281.865475,114.066593 282.313654,115.03031 282.754525,115.85531" id="Fill-1567-Copy" fill="#BA586D"></path>
                    <path d="M275.223173,102.093142 C277.283821,99.5426991 283.373207,100.878761 284.391352,101.679425 C285.509363,102.557965 285.392447,104.261504 285.336425,105.534292 C285.280402,106.802212 283.967531,112.175664 279.855978,112.574779 C272.112715,113.32677 275.223173,102.093142 275.223173,102.093142" id="Fill-1568-Copy" fill="#EA8D9A"></path>
                    <path d="M269.930279,99.4599558 C269.930279,99.4599558 270.483196,103.015487 274.239128,102.738053 C274.239128,102.738053 273.939531,105.755752 274.58257,106.661062 C274.58257,106.661062 274.982034,102.87677 276.316827,102.562832 C276.316827,102.562832 278.226458,104.183628 282.713117,101.55531 C282.713117,101.55531 283.901765,102.460619 283.833564,104.478097 C283.765363,106.493142 284.354816,107.573673 284.354816,107.573673 C284.354816,107.573673 283.697162,111.326327 279.609966,111.715708 C275.525207,112.107522 274.828581,109.559513 274.779866,108.836726 C274.779866,108.836726 271.635307,111.861726 272.936,114.363496 C274.127084,116.65354 279.617274,117.493142 283.436536,114.368363 C284.125855,113.803761 284.61057,113.037168 284.924782,112.204867 C285.295017,111.224115 285.787039,109.761504 286.072022,108.26969 C286.174324,107.722124 286.437385,107.218363 286.831978,106.828982 C287.762436,105.911504 289.348112,103.97677 288.765966,101.893584 C287.962168,99 285.750503,98.4743363 285.750503,98.4743363 C285.750503,98.4743363 283.592425,94.135177 279.924179,94.8774336 C276.255933,95.614823 275.191508,96.9216814 273.761721,98.7347345 C272.329497,100.547788 269.983866,98.9099558 269.930279,99.4599558" id="Fill-1569-Copy" fill="#231829"></path>
                    <path d="M297.917095,132.019469 C298.896268,129.890044 299.882749,127.765487 300.732827,125.589823 C301.590212,123.42146 302.401318,121.22146 302.851933,118.963053 C303.066279,117.838717 303.209989,116.694912 303.095508,115.614381 C303.058972,115.061947 302.873855,114.601991 302.640022,114.064159 C302.435419,113.531195 302.145564,113.056637 301.875196,112.572345 C301.283307,111.645133 300.450279,110.902876 299.466235,110.793363 C298.489497,110.664381 297.446994,111.131637 296.536022,111.749779 C296.070793,112.056416 295.622615,112.401991 295.174436,112.771903 C294.91381,113.000664 294.62152,113.587168 294.382816,114.076327 C293.895665,115.110619 293.464536,116.198451 293.048022,117.286283 C292.205251,119.459513 291.467218,121.681416 290.668291,123.88385 L286.07933,137.17146 C287.216827,132.620575 288.51752,128.111062 289.908335,123.630752 C290.587911,121.38208 291.357609,119.165044 292.158972,116.952876 C292.568179,115.848009 292.984693,114.748009 293.479151,113.65531 C293.610682,113.38031 293.737341,113.110177 293.890793,112.835177 C294.032067,112.574779 294.222056,112.255973 294.524089,111.985841 C294.974704,111.608628 295.449676,111.226549 295.961184,110.885841 C296.969587,110.226327 298.219128,109.625221 299.597765,109.810177 C300.291955,109.868584 300.896022,110.236062 301.427017,110.618142 C301.663285,110.837168 301.899553,111.063496 302.113899,111.299558 L302.671687,112.061283 C302.968849,112.601549 303.280626,113.136947 303.487665,113.701549 C303.719061,114.23208 303.962637,114.889159 303.98943,115.512168 C304.113654,116.770354 303.904179,117.972566 303.631374,119.135841 C302.440291,123.762168 300.240804,127.95531 297.917095,132.019469" id="Fill-1570-Copy" fill="#B1D0E1"></path>
                </g>
                <path d="M51.0354864,113.413666 C51.0354864,113.413666 55.6877769,117.015436 62.4786596,110.792648 C62.4786596,110.792648 70.7358663,102.764108 72.0341232,91.0096835 L72.0341232,84.5557012 C69.1964696,85.6289313 66.7144361,87.4590197 64.8486484,89.8464091 C61.1073299,94.6455242 54.8206484,102.562117 53.5126484,103.294639 C51.6249389,104.355701 51.0354864,113.413666 51.0354864,113.413666" id="Fill-1536" fill="#A7C4DA"></path>
                <path d="M38.4182797,86.0572498 C38.2185478,85.5632233 36.6401791,83.5798162 36.5451847,81.60371 C36.3600674,77.773179 39.1270841,75.6778251 39.6897434,75.4734003 C40.6737881,75.1156569 40.634816,77.9800374 40.634816,77.9800374 C40.634816,77.9800374 41.7698774,77.6417631 41.4995087,78.5154357 C40.2256093,82.6234003 40.1062573,84.6141082 40.2670171,85.0034888 C42.4591959,89.3572498 53.3494529,99.4957454 55.9873746,104.718312 C57.2149948,107.154374 58.7957992,117.901276 48.660626,112.807692 C39.6678216,108.286011 38.9370953,93.0636658 38.4182797,86.0572498" id="Fill-1538" fill="#EA8D9A"></path>
                <path d="M86.4932707,81.6528227 C86.4932707,81.6528227 85.6237065,86.6393271 86.1473936,87.1674245 C86.6710808,87.6979554 88.5466115,88.3355661 89.572064,87.045743 C90.5975165,85.7607873 89.3723322,81.5043714 89.3723322,81.5043714 L86.4932707,81.6528227" id="Fill-1543" fill="#EA8D9A"></path>
                <path d="M85.3898741,79.1583537 C85.3898741,79.1583537 86.3422539,74.6172032 87.6380752,72.470743 C88.9314606,70.3242829 89.7133377,68.1680882 91.0237735,69.2023802 C92.336645,70.2366723 96.0316841,73.237336 99.8996618,70.6455218 C100.433092,70.2902121 100.978701,69.2145484 101.322142,68.3141059 C101.409829,68.0804776 101.745963,68.0853448 101.826343,68.3214068 C102.308623,69.7134422 103.122165,72.8552563 101.843394,75.476274 C100.143237,78.9636634 97.5053154,80.236451 95.992712,81.1003891 C95.1475053,81.5822475 92.7020081,82.5289289 92.7020081,82.5289289 L85.3898741,79.1583537" id="Fill-1545" fill="#714E27"></path>
                <path d="M93.218388,83.1129997 C93.7006673,82.73092 94.5824104,80.8278227 95.269293,79.2143271 C95.8392595,77.8733979 95.1889132,76.3304776 93.8321981,75.7926457 C91.7350137,74.9603448 89.3625891,74.1645484 88.5660975,74.2862298 C87.3189914,74.4760528 86.6613377,75.8437519 86.1473936,76.8488404 C85.6358852,77.8539289 85.082969,79.8349023 85.2997511,80.9787076 C85.499483,82.0251678 86.8196618,83.4853448 87.7574271,83.9014953 C90.582902,85.1548138 91.7155277,84.8019377 93.218388,83.1129997" id="Fill-1546" fill="#EA8D9A"></path>
            </g>
        </g>
    </g>
</svg>