<?xml version="1.0" encoding="UTF-8" standalone="no"?>
<!-- Created with Inkscape (http://www.inkscape.org/) -->

<svg
   xmlns:dc="http://purl.org/dc/elements/1.1/"
   xmlns:cc="http://creativecommons.org/ns#"
   xmlns:rdf="http://www.w3.org/1999/02/22-rdf-syntax-ns#"
   xmlns:svg="http://www.w3.org/2000/svg"
   xmlns="http://www.w3.org/2000/svg"
   xmlns:sodipodi="http://sodipodi.sourceforge.net/DTD/sodipodi-0.dtd"
   xmlns:inkscape="http://www.inkscape.org/namespaces/inkscape"
   width="8.6057444mm"
   height="8.605751mm"
   viewBox="0 0 8.6057444 8.605751"
   version="1.1"
   id="svg66"
   inkscape:version="0.92.5 (2060ec1f9f, 2020-04-08)"
   sodipodi:docname="close-icon.svg">
  <defs
     id="defs60" />
  <sodipodi:namedview
     id="base"
     pagecolor="#ffffff"
     bordercolor="#666666"
     borderopacity="1.0"
     inkscape:pageopacity="0.0"
     inkscape:pageshadow="2"
     inkscape:zoom="0.35"
     inkscape:cx="-213.73718"
     inkscape:cy="-209.45145"
     inkscape:document-units="mm"
     inkscape:current-layer="layer1"
     showgrid="false"
     inkscape:window-width="1600"
     inkscape:window-height="845"
     inkscape:window-x="0"
     inkscape:window-y="28"
     inkscape:window-maximized="1" />
  <metadata
     id="metadata63">
    <rdf:RDF>
      <cc:Work
         rdf:about="">
        <dc:format>image/svg+xml</dc:format>
        <dc:type
           rdf:resource="http://purl.org/dc/dcmitype/StillImage" />
        <dc:title></dc:title>
      </cc:Work>
    </rdf:RDF>
  </metadata>
  <g
     inkscape:label="Layer 1"
     inkscape:groupmode="layer"
     id="layer1"
     transform="translate(-72.048318,-84.810219)">
    <path
       d="m 80.507596,85.673687 c 0.195289,0.195289 0.195289,0.511916 0,0.707205 l -2.732114,2.732008 2.732114,2.732379 c 0.195289,0.195289 0.195289,0.511916 0,0.707205 l -0.717021,0.71702 c -0.195289,0.195289 -0.511915,0.195289 -0.707204,0 l -2.732194,-2.732299 -2.732193,2.732299 c -0.195289,0.195289 -0.511916,0.195289 -0.707205,0 l -0.716994,-0.71702 c -0.195289,-0.195289 -0.195289,-0.511916 0,-0.707205 L 74.926872,89.1129 72.194785,86.380892 c -0.195289,-0.195289 -0.195289,-0.511916 0,-0.707205 l 0.716994,-0.717021 c 0.195289,-0.195262 0.511916,-0.195262 0.707205,0 l 2.732193,2.731929 2.732194,-2.731929 c 0.195289,-0.195262 0.511915,-0.195262 0.707204,0 z"
       id="Combined-Shape-Copy-3"
       inkscape:connector-curvature="0"
       style="fill:#548bf2;fill-rule:evenodd;stroke:none;stroke-width:0.26458332" />
  </g>
</svg>
