<?xml version="1.0" encoding="UTF-8"?>
<svg width="176px" height="176px" viewBox="0 0 176 176" version="1.1" xmlns="http://www.w3.org/2000/svg" xmlns:xlink="http://www.w3.org/1999/xlink">
    <title>Combined Shape</title>
    <defs>
        <rect id="path-1" x="0" y="0" width="1440" height="640"></rect>
    </defs>
    <g id="Design" stroke="none" stroke-width="1" fill="none" fill-rule="evenodd">
        <g id="Full-method" transform="translate(-78.000000, -4202.000000)">
            <g id="Group-14" transform="translate(0.000000, 3423.000000)">
                <g id="Bg-Copy-4" transform="translate(0.000000, 453.000000)">
                    <mask id="mask-2" fill="white">
                        <use xlink:href="#path-1"></use>
                    </mask>
                    <use id="Mask" fill="" fill-rule="nonzero" xlink:href="#path-1"></use>
                </g>
            </g>
            <path d="M82,4370 C84.209139,4370 86,4371.79086 86,4374 C86,4376.20914 84.209139,4378 82,4378 C79.790861,4378 78,4376.20914 78,4374 C78,4371.79086 79.790861,4370 82,4370 Z M106,4370 C108.209139,4370 110,4371.79086 110,4374 C110,4376.20914 108.209139,4378 106,4378 C103.790861,4378 102,4376.20914 102,4374 C102,4371.79086 103.790861,4370 106,4370 Z M130,4370 C132.209139,4370 134,4371.79086 134,4374 C134,4376.20914 132.209139,4378 130,4378 C127.790861,4378 126,4376.20914 126,4374 C126,4371.79086 127.790861,4370 130,4370 Z M154,4370 C156.209139,4370 158,4371.79086 158,4374 C158,4376.20914 156.209139,4378 154,4378 C151.790861,4378 150,4376.20914 150,4374 C150,4371.79086 151.790861,4370 154,4370 Z M178,4370 C180.209139,4370 182,4371.79086 182,4374 C182,4376.20914 180.209139,4378 178,4378 C175.790861,4378 174,4376.20914 174,4374 C174,4371.79086 175.790861,4370 178,4370 Z M202,4370 C204.209139,4370 206,4371.79086 206,4374 C206,4376.20914 204.209139,4378 202,4378 C199.790861,4378 198,4376.20914 198,4374 C198,4371.79086 199.790861,4370 202,4370 Z M226,4370 C228.209139,4370 230,4371.79086 230,4374 C230,4376.20914 228.209139,4378 226,4378 C223.790861,4378 222,4376.20914 222,4374 C222,4371.79086 223.790861,4370 226,4370 Z M250,4370 C252.209139,4370 254,4371.79086 254,4374 C254,4376.20914 252.209139,4378 250,4378 C247.790861,4378 246,4376.20914 246,4374 C246,4371.79086 247.790861,4370 250,4370 Z M82,4346 C84.209139,4346 86,4347.79086 86,4350 C86,4352.20914 84.209139,4354 82,4354 C79.790861,4354 78,4352.20914 78,4350 C78,4347.79086 79.790861,4346 82,4346 Z M106,4346 C108.209139,4346 110,4347.79086 110,4350 C110,4352.20914 108.209139,4354 106,4354 C103.790861,4354 102,4352.20914 102,4350 C102,4347.79086 103.790861,4346 106,4346 Z M130,4346 C132.209139,4346 134,4347.79086 134,4350 C134,4352.20914 132.209139,4354 130,4354 C127.790861,4354 126,4352.20914 126,4350 C126,4347.79086 127.790861,4346 130,4346 Z M154,4346 C156.209139,4346 158,4347.79086 158,4350 C158,4352.20914 156.209139,4354 154,4354 C151.790861,4354 150,4352.20914 150,4350 C150,4347.79086 151.790861,4346 154,4346 Z M178,4346 C180.209139,4346 182,4347.79086 182,4350 C182,4352.20914 180.209139,4354 178,4354 C175.790861,4354 174,4352.20914 174,4350 C174,4347.79086 175.790861,4346 178,4346 Z M202,4346 C204.209139,4346 206,4347.79086 206,4350 C206,4352.20914 204.209139,4354 202,4354 C199.790861,4354 198,4352.20914 198,4350 C198,4347.79086 199.790861,4346 202,4346 Z M226,4346 C228.209139,4346 230,4347.79086 230,4350 C230,4352.20914 228.209139,4354 226,4354 C223.790861,4354 222,4352.20914 222,4350 C222,4347.79086 223.790861,4346 226,4346 Z M250,4346 C252.209139,4346 254,4347.79086 254,4350 C254,4352.20914 252.209139,4354 250,4354 C247.790861,4354 246,4352.20914 246,4350 C246,4347.79086 247.790861,4346 250,4346 Z M82,4322 C84.209139,4322 86,4323.79086 86,4326 C86,4328.20914 84.209139,4330 82,4330 C79.790861,4330 78,4328.20914 78,4326 C78,4323.79086 79.790861,4322 82,4322 Z M106,4322 C108.209139,4322 110,4323.79086 110,4326 C110,4328.20914 108.209139,4330 106,4330 C103.790861,4330 102,4328.20914 102,4326 C102,4323.79086 103.790861,4322 106,4322 Z M130,4322 C132.209139,4322 134,4323.79086 134,4326 C134,4328.20914 132.209139,4330 130,4330 C127.790861,4330 126,4328.20914 126,4326 C126,4323.79086 127.790861,4322 130,4322 Z M154,4322 C156.209139,4322 158,4323.79086 158,4326 C158,4328.20914 156.209139,4330 154,4330 C151.790861,4330 150,4328.20914 150,4326 C150,4323.79086 151.790861,4322 154,4322 Z M178,4322 C180.209139,4322 182,4323.79086 182,4326 C182,4328.20914 180.209139,4330 178,4330 C175.790861,4330 174,4328.20914 174,4326 C174,4323.79086 175.790861,4322 178,4322 Z M202,4322 C204.209139,4322 206,4323.79086 206,4326 C206,4328.20914 204.209139,4330 202,4330 C199.790861,4330 198,4328.20914 198,4326 C198,4323.79086 199.790861,4322 202,4322 Z M226,4322 C228.209139,4322 230,4323.79086 230,4326 C230,4328.20914 228.209139,4330 226,4330 C223.790861,4330 222,4328.20914 222,4326 C222,4323.79086 223.790861,4322 226,4322 Z M250,4322 C252.209139,4322 254,4323.79086 254,4326 C254,4328.20914 252.209139,4330 250,4330 C247.790861,4330 246,4328.20914 246,4326 C246,4323.79086 247.790861,4322 250,4322 Z M82,4298 C84.209139,4298 86,4299.79086 86,4302 C86,4304.20914 84.209139,4306 82,4306 C79.790861,4306 78,4304.20914 78,4302 C78,4299.79086 79.790861,4298 82,4298 Z M106,4298 C108.209139,4298 110,4299.79086 110,4302 C110,4304.20914 108.209139,4306 106,4306 C103.790861,4306 102,4304.20914 102,4302 C102,4299.79086 103.790861,4298 106,4298 Z M130,4298 C132.209139,4298 134,4299.79086 134,4302 C134,4304.20914 132.209139,4306 130,4306 C127.790861,4306 126,4304.20914 126,4302 C126,4299.79086 127.790861,4298 130,4298 Z M154,4298 C156.209139,4298 158,4299.79086 158,4302 C158,4304.20914 156.209139,4306 154,4306 C151.790861,4306 150,4304.20914 150,4302 C150,4299.79086 151.790861,4298 154,4298 Z M178,4298 C180.209139,4298 182,4299.79086 182,4302 C182,4304.20914 180.209139,4306 178,4306 C175.790861,4306 174,4304.20914 174,4302 C174,4299.79086 175.790861,4298 178,4298 Z M202,4298 C204.209139,4298 206,4299.79086 206,4302 C206,4304.20914 204.209139,4306 202,4306 C199.790861,4306 198,4304.20914 198,4302 C198,4299.79086 199.790861,4298 202,4298 Z M226,4298 C228.209139,4298 230,4299.79086 230,4302 C230,4304.20914 228.209139,4306 226,4306 C223.790861,4306 222,4304.20914 222,4302 C222,4299.79086 223.790861,4298 226,4298 Z M250,4298 C252.209139,4298 254,4299.79086 254,4302 C254,4304.20914 252.209139,4306 250,4306 C247.790861,4306 246,4304.20914 246,4302 C246,4299.79086 247.790861,4298 250,4298 Z M226,4274 C228.209139,4274 230,4275.79086 230,4278 C230,4280.20914 228.209139,4282 226,4282 C223.790861,4282 222,4280.20914 222,4278 C222,4275.79086 223.790861,4274 226,4274 Z M250,4274 C252.209139,4274 254,4275.79086 254,4278 C254,4280.20914 252.209139,4282 250,4282 C247.790861,4282 246,4280.20914 246,4278 C246,4275.79086 247.790861,4274 250,4274 Z M82,4274 C84.209139,4274 86,4275.79086 86,4278 C86,4280.20914 84.209139,4282 82,4282 C79.790861,4282 78,4280.20914 78,4278 C78,4275.79086 79.790861,4274 82,4274 Z M154,4274 C156.209139,4274 158,4275.79086 158,4278 C158,4280.20914 156.209139,4282 154,4282 C151.790861,4282 150,4280.20914 150,4278 C150,4275.79086 151.790861,4274 154,4274 Z M178,4274 C180.209139,4274 182,4275.79086 182,4278 C182,4280.20914 180.209139,4282 178,4282 C175.790861,4282 174,4280.20914 174,4278 C174,4275.79086 175.790861,4274 178,4274 Z M106,4274 C108.209139,4274 110,4275.79086 110,4278 C110,4280.20914 108.209139,4282 106,4282 C103.790861,4282 102,4280.20914 102,4278 C102,4275.79086 103.790861,4274 106,4274 Z M130,4274 C132.209139,4274 134,4275.79086 134,4278 C134,4280.20914 132.209139,4282 130,4282 C127.790861,4282 126,4280.20914 126,4278 C126,4275.79086 127.790861,4274 130,4274 Z M202,4274 C204.209139,4274 206,4275.79086 206,4278 C206,4280.20914 204.209139,4282 202,4282 C199.790861,4282 198,4280.20914 198,4278 C198,4275.79086 199.790861,4274 202,4274 Z M130,4250 C132.209139,4250 134,4251.79086 134,4254 C134,4256.20914 132.209139,4258 130,4258 C127.790861,4258 126,4256.20914 126,4254 C126,4251.79086 127.790861,4250 130,4250 Z M106,4250 C108.209139,4250 110,4251.79086 110,4254 C110,4256.20914 108.209139,4258 106,4258 C103.790861,4258 102,4256.20914 102,4254 C102,4251.79086 103.790861,4250 106,4250 Z M202,4250 C204.209139,4250 206,4251.79086 206,4254 C206,4256.20914 204.209139,4258 202,4258 C199.790861,4258 198,4256.20914 198,4254 C198,4251.79086 199.790861,4250 202,4250 Z M226,4250 C228.209139,4250 230,4251.79086 230,4254 C230,4256.20914 228.209139,4258 226,4258 C223.790861,4258 222,4256.20914 222,4254 C222,4251.79086 223.790861,4250 226,4250 Z M154,4250 C156.209139,4250 158,4251.79086 158,4254 C158,4256.20914 156.209139,4258 154,4258 C151.790861,4258 150,4256.20914 150,4254 C150,4251.79086 151.790861,4250 154,4250 Z M178,4250 C180.209139,4250 182,4251.79086 182,4254 C182,4256.20914 180.209139,4258 178,4258 C175.790861,4258 174,4256.20914 174,4254 C174,4251.79086 175.790861,4250 178,4250 Z M250,4250 C252.209139,4250 254,4251.79086 254,4254 C254,4256.20914 252.209139,4258 250,4258 C247.790861,4258 246,4256.20914 246,4254 C246,4251.79086 247.790861,4250 250,4250 Z M82,4250 C84.209139,4250 86,4251.79086 86,4254 C86,4256.20914 84.209139,4258 82,4258 C79.790861,4258 78,4256.20914 78,4254 C78,4251.79086 79.790861,4250 82,4250 Z M178,4226 C180.209139,4226 182,4227.79086 182,4230 C182,4232.20914 180.209139,4234 178,4234 C175.790861,4234 174,4232.20914 174,4230 C174,4227.79086 175.790861,4226 178,4226 Z M154,4226 C156.209139,4226 158,4227.79086 158,4230 C158,4232.20914 156.209139,4234 154,4234 C151.790861,4234 150,4232.20914 150,4230 C150,4227.79086 151.790861,4226 154,4226 Z M202,4226 C204.209139,4226 206,4227.79086 206,4230 C206,4232.20914 204.209139,4234 202,4234 C199.790861,4234 198,4232.20914 198,4230 C198,4227.79086 199.790861,4226 202,4226 Z M226,4226 C228.209139,4226 230,4227.79086 230,4230 C230,4232.20914 228.209139,4234 226,4234 C223.790861,4234 222,4232.20914 222,4230 C222,4227.79086 223.790861,4226 226,4226 Z M250,4226 C252.209139,4226 254,4227.79086 254,4230 C254,4232.20914 252.209139,4234 250,4234 C247.790861,4234 246,4232.20914 246,4230 C246,4227.79086 247.790861,4226 250,4226 Z M106,4226 C108.209139,4226 110,4227.79086 110,4230 C110,4232.20914 108.209139,4234 106,4234 C103.790861,4234 102,4232.20914 102,4230 C102,4227.79086 103.790861,4226 106,4226 Z M130,4226 C132.209139,4226 134,4227.79086 134,4230 C134,4232.20914 132.209139,4234 130,4234 C127.790861,4234 126,4232.20914 126,4230 C126,4227.79086 127.790861,4226 130,4226 Z M82,4226 C84.209139,4226 86,4227.79086 86,4230 C86,4232.20914 84.209139,4234 82,4234 C79.790861,4234 78,4232.20914 78,4230 C78,4227.79086 79.790861,4226 82,4226 Z M82,4202 C84.209139,4202 86,4203.79086 86,4206 C86,4208.20914 84.209139,4210 82,4210 C79.790861,4210 78,4208.20914 78,4206 C78,4203.79086 79.790861,4202 82,4202 Z M106,4202 C108.209139,4202 110,4203.79086 110,4206 C110,4208.20914 108.209139,4210 106,4210 C103.790861,4210 102,4208.20914 102,4206 C102,4203.79086 103.790861,4202 106,4202 Z M130,4202 C132.209139,4202 134,4203.79086 134,4206 C134,4208.20914 132.209139,4210 130,4210 C127.790861,4210 126,4208.20914 126,4206 C126,4203.79086 127.790861,4202 130,4202 Z M154,4202 C156.209139,4202 158,4203.79086 158,4206 C158,4208.20914 156.209139,4210 154,4210 C151.790861,4210 150,4208.20914 150,4206 C150,4203.79086 151.790861,4202 154,4202 Z M178,4202 C180.209139,4202 182,4203.79086 182,4206 C182,4208.20914 180.209139,4210 178,4210 C175.790861,4210 174,4208.20914 174,4206 C174,4203.79086 175.790861,4202 178,4202 Z M202,4202 C204.209139,4202 206,4203.79086 206,4206 C206,4208.20914 204.209139,4210 202,4210 C199.790861,4210 198,4208.20914 198,4206 C198,4203.79086 199.790861,4202 202,4202 Z M226,4202 C228.209139,4202 230,4203.79086 230,4206 C230,4208.20914 228.209139,4210 226,4210 C223.790861,4210 222,4208.20914 222,4206 C222,4203.79086 223.790861,4202 226,4202 Z M250,4202 C252.209139,4202 254,4203.79086 254,4206 C254,4208.20914 252.209139,4210 250,4210 C247.790861,4210 246,4208.20914 246,4206 C246,4203.79086 247.790861,4202 250,4202 Z" id="Combined-Shape" fill="#000000" fill-rule="nonzero" opacity="0.148646763"></path>
        </g>
    </g>
</svg>
